<?xml version="1.0" encoding="UTF-8"?>
<!DOCTYPE svg PUBLIC "-//W3C//DTD SVG 1.1//EN" "http://www.w3.org/Graphics/SVG/1.1/DTD/svg11.dtd">
<!-- Creator: CorelDRAW -->
<svg xmlns="http://www.w3.org/2000/svg" xml:space="preserve" width="200px" height="217px" version="1.1" style="shape-rendering:geometricPrecision; text-rendering:geometricPrecision; image-rendering:optimizeQuality; fill-rule:evenodd; clip-rule:evenodd"
viewBox="0 0 394.09 427.89"
 xmlns:xlink="http://www.w3.org/1999/xlink"
 xmlns:xodm="http://www.corel.com/coreldraw/odm/2003">
 <defs>
  <style type="text/css">
   <![CDATA[
    .fil2 {fill:#FEFEFE}
    .fil0 {fill:#210D06}
    .fil9 {fill:#354A52}
    .fil5 {fill:#4D8893}
    .fil11 {fill:#552A14}
    .fil12 {fill:#9CA2A3}
    .fil6 {fill:#AD5A1E}
    .fil3 {fill:#CE7426}
    .fil1 {fill:#CE7426}
    .fil7 {fill:#CEA682}
    .fil13 {fill:#D1CECB}
    .fil10 {fill:#E79449}
    .fil14 {fill:#EDD078}
    .fil8 {fill:#F6F6F6}
    .fil4 {fill:#FAD9B5}
   ]]>
  </style>
 </defs>
 <g id="Layer_x0020_1">
  <metadata id="CorelCorpID_0Corel-Layer"/>
  <path class="fil0" d="M281.46 378.42l-5.99 5.41c-2.1,1.69 -4.28,3.01 -6.87,4.48 -4.44,2.53 -11.13,4.95 -16.67,6.32 -0.05,3.32 1.63,5.55 4.95,6 3.23,0.44 6.49,0.87 9.82,1.28l39.91 4.42c4.99,0.54 16.09,1.79 20.77,1.18 0.24,-1.72 -0.2,-3.07 -0.83,-3.87 -0.5,-3.19 -4.51,-3.99 -4.81,-5.69 1.31,-1.26 3.52,0.44 4.63,1.27 1.77,1.32 1.77,2.12 3.21,3.88 0.49,1.6 0.65,2.12 0.62,3.95 2.61,-0.09 9.76,-1.87 8.76,-5.77l-0.29 -0.61c0.29,-4.37 -5.49,-7.42 -9.37,-8.55 -0.86,-0.25 -1.55,-0.41 -2.44,-0.6 -1.29,-0.26 -1.57,-0.1 -1.98,-1.11 1.66,-1.85 5.67,0.1 7.96,0.19 -6.57,-6.52 -13.56,-6.29 -22.57,-4.27 -3.8,0.4 -7.8,1.32 -11.61,1.88 -2.36,0.34 -3.75,-0.02 -5.92,0.72 -1.29,0.43 -3.83,1.7 -5.12,0.93 0.38,-1.09 8.02,-5.92 9.7,-7.12 0.28,-0.2 0.41,-0.28 0.64,-0.47 0.53,-0.46 0.42,-0.38 0.72,-0.78 1.18,-0.39 2.35,-1.59 3.29,-2.42 0.97,-0.86 2.42,-1.61 2.94,-2.93 4.22,-2.44 8.36,-10.61 8.18,-17.27 -0.17,-6.38 -4.14,-13.92 -8.35,-17.01 -0.63,1.31 0.23,1.51 -1.5,2.51 -3.05,1.12 -9.91,1.2 -13.45,1.77 1.9,10.18 1.45,16.72 -3.85,26.03 -1.45,2.55 -4.27,5.89 -4.48,6.25zm-44.1 -38.09c0.32,-2.11 -1.07,-4.01 -3.07,-3.77 -0.52,0.06 -4.13,1.12 -4.25,2.95 -0.34,4.76 6.63,5.28 7.32,0.82zm-37.62 -0.39c4.33,0.32 11.24,3.51 14.43,5.46 4.22,2.58 7.84,5.97 10.4,9.8 6.58,9.81 5.86,21.09 -0.45,30.69 -4.73,6.41 -5.54,5.61 -8.38,8.6 7.99,1.19 27.22,-1.99 35.67,-4.01 8.05,-1.93 14.29,-4.72 20.81,-9.06 1.09,-0.73 1.79,-1.27 2.81,-2.17 1.11,-0.98 2.11,-1.48 2.71,-2.7 1.46,-1.02 4.79,-5.73 6.02,-8.22 1.34,-2.69 3.53,-7.83 3.16,-11.22 0.79,-1.18 0.33,-9.08 -0.52,-10.28 -0.5,-0.4 0.29,-0.08 -0.52,-0.23l-5.95 0.53c-7.51,0.72 -47.16,4.54 -48.14,5.22 -4.11,-0.46 -4.69,-0.12 -5.12,-4.79 -0.27,-3.02 -0.68,-6.11 -0.83,-9.13 -14.1,0.22 -14.24,-3.81 -17.65,-3.9 -2.25,-0.07 -5,-0.28 -7.1,-0.26 -0.67,-0.36 -0.48,-0.24 -1.39,-0.41l-4.66 -0.91c-2.07,-0.49 -3.97,-0.97 -5.92,-1.54l-11.1 -3.77c-2.92,4.32 -5.7,8.72 -8.48,13.35 -6.66,11.1 -9.7,21.4 -3.44,33.67 3.63,7.13 9.57,10.84 9.91,12.16 -0.58,0.6 -1.09,0.79 -1.71,1.26l-5.23 4.73c-1.58,1.28 -5.23,4.9 -6.25,6.77 -2.42,4.43 1.17,6.34 4.07,7.76 2.71,1.33 6.18,3.3 8.98,4.18 1.87,1.15 14.49,6.36 17.44,7.62 3.02,1.29 5.98,2.28 9.1,3.3 1.79,0.59 9.29,2.68 10.89,1.02 0.91,-1.12 -0.24,-3.89 -0.81,-4.98 -1.29,-2.45 -2.58,-2.73 -2.61,-4.26 1.83,-0.55 3.92,1.79 4.74,2.95 1.22,1.7 1.81,3.88 1.83,6.41 4.99,-0.1 9.31,-0.41 12.18,-3.28 0.27,-2.89 -2.5,-5.09 -4.08,-6.15 -4.07,-2.72 -6.49,-1.76 -6.2,-3.91 4.37,-1.62 10.81,4.58 11.49,4.9 -0.11,-4.51 -3.33,-6.93 -6.34,-8.52 -1.86,-0.98 -8.56,-4.07 -10.46,-4.16 -0.49,-0.59 -6.31,-2.76 -7.11,-2.83 -1.47,-0.12 -4.86,1.98 -8.32,1.58 0.44,-0.88 7.37,-4.13 9.55,-5.43 1.69,-1.01 3.04,-1.84 4.56,-2.93 0.82,-0.59 1.41,-1.07 2.2,-1.67 0.79,-0.6 1.57,-1.1 2.07,-1.98 3.25,-1.93 7.46,-8.54 8.62,-13.33 4.38,-18.16 -12.05,-30.87 -30,-35.08 -1.1,-0.33 -0.96,-0.05 -1.6,-0.73 1.43,-1.22 4.71,-0.5 6.73,-0.12zm48.46 -15.3c-1.7,-0.1 -2.46,-0.21 -2.86,1.31l2.8 -0.15 0.06 -1.16zm44.09 6.73l5.35 -0.62c0.55,-1.51 -0.49,-7.26 -0.67,-9.27 -1.3,-0.02 -2.57,0.21 -3.87,0.33 -2.9,0.28 -1.86,-0.36 -1.23,7.67l0.42 1.89zm-44.55 -10.14c-0.38,0.05 -0.99,-0.27 -1.02,0.86 -0.01,0.5 0.13,0.5 0.19,0.67l0.83 -0.02c0.47,-0.96 0.28,-0.93 0,-1.51zm-79.25 13.14c0.98,-0.55 5.3,-7.22 5.91,-8.42 -0.79,-0.92 -4.42,-2.59 -5.66,-3.45 -1.45,-1.01 -4.23,-3.47 -5.37,-3.98 0.13,3.81 1.63,8.95 3.34,12.36 0.56,1.11 1.45,2.52 1.78,3.49zm76.51 -24.77l1.88 -0.26 -0.1 -1.35 -2.56 0.23 0.78 1.38zm65.19 5.58c-0.48,2.51 -8.29,2.52 -9.94,2.47 0.66,4.52 6.89,6.33 11.88,4.89 9.2,-2.65 12.12,-13.72 5.97,-22.41 -1.8,-2.55 -7.49,-5.8 -12.44,-4.25 -2.21,0.69 -3.96,1.67 -5.49,3.08 -1.1,1.02 -4.22,4.6 -2.53,5.47 0.27,0.15 2.22,-0.87 2.79,-1.06 5.7,-1.99 11.86,-0.49 5.8,0.8 -2.33,0.5 -4.37,1.29 -6.34,2.26 -2.06,1.02 -3.85,2.01 -3.31,5.28 1.04,6.31 11.39,1.99 13.61,3.47zm-73.75 -13.86c0.92,-3.22 -4.04,-3.62 -4.52,-1.05 -0.26,1.41 0.77,2.34 1.83,2.54 1.19,0.22 2.42,-0.57 2.69,-1.49zm53.72 2.69c1.08,-0.07 2.96,-0.08 3.66,-0.58 0.32,-0.4 1.42,-3.48 1.5,-4.07 0.14,-0.97 -0.2,-4.12 -0.24,-5.35l-5.52 0.57 -0.09 2.06c0.09,0.85 0.16,1.69 0.24,2.53 0.15,1.62 0.29,3.23 0.45,4.84zm-57.38 -19.1c-1.8,-0.66 -3.88,0.54 -4.35,2.11 -0.62,2.06 0.59,3.87 2.11,4.38 3.8,1.29 6.81,-4.82 2.24,-6.49zm3.73 5.62c-0.7,1.2 -1.88,2.33 -3.42,2.8 -2.46,0.75 -3.34,-0.13 -5.04,-0.92l0.92 12.25 3.42 -0.5c-3.2,-1.37 -2.74,-6.91 1.51,-7.11 2.1,-0.1 3.59,0.89 4.07,2.46 0.83,2.69 -0.84,3.48 -1.86,4.55 7.41,1.02 4.23,2.95 8.59,2.57 5,-0.44 3.28,0 3.94,4.56 0.6,4.12 -0.59,2.32 -1.61,3.69 0.63,2.33 0.5,0.55 1.72,1.15l0.13 1.61c-1.47,0.39 -1.42,0.04 -1.9,0.84 0.45,1.79 1.26,0.12 2.11,0.92 0.37,0.41 0.83,5.35 0.8,6.27 -0.07,2.76 -3.12,1.42 -5.03,2.37 -1.3,0.64 -2.94,4.42 -7.9,7.05 2.22,2.02 2.29,2.58 2.33,6.32 -0.31,0.25 -0.21,0.14 -0.49,0.5 -0.5,0.65 -0.52,1 -1.31,1.73 -0.62,0.58 -1.49,1.19 -2.61,1.46 -3.4,0.82 -4.93,-1.34 -6.07,-2.09l0.61 6.7c6.04,-0.06 12.9,-1.59 18.59,-2.03 11.04,-0.86 24.59,-2.56 36.08,-3.66 3.05,-0.3 16.05,-1.38 17.83,-2.06l-0.17 -8.1c1.17,-2.94 4.95,-0.94 6.91,-2.63 0.42,-0.94 0.19,-3.86 -0.44,-4.63 -0.14,-0.1 -4.05,-0.91 -5.03,-1.32 -2.07,-0.86 -2.63,-1.66 -3.99,-2.67l0.77 9.76c-1.89,0.44 -8.93,2.1 -9.6,0.14 -0.55,-1.62 -1.07,-11.22 -0.91,-12.16l7.94 -1.01c-0.96,-3.78 -2.33,-2.16 -3.64,-5.94 -0.44,-1.29 -0.53,-2.8 -0.27,-4.21 0.51,-2.86 2.68,-3.81 -1.73,-3.34 -1.14,0.13 -1.82,0.28 -3.05,0.13 -0.61,-1.1 -1.67,-11.32 -1.2,-12.68 0.42,-0.34 -0.03,-0.14 0.8,-0.45 1.18,-0.44 7.18,-0.83 8.21,-0.73 0.49,1.42 0.42,3.41 0.65,5.1 1.18,-0.5 1.04,-1.01 3.51,-2.43 1.26,-0.73 2.74,-1.09 4,-1.77 0.03,-1.14 0.01,-2 -0.5,-2.85 -4.87,0.12 -13.21,1.86 -16.05,0.93 -1.41,-0.46 -2.26,0.24 -3.63,0.27 -1.96,0.04 -1.89,-0.99 -1.85,-3.33l-0.77 -9.14c-0.07,-0.03 -0.16,-0.06 -0.22,-0.07 -0.06,-0.01 -0.16,-0.04 -0.23,-0.06 -1.76,-0.28 1.51,0.06 -0.49,-0.06 -0.19,-0.01 -0.62,0.02 -0.82,0.03l-5.27 0.24c-8.17,0.49 -45,3.29 -47.39,4.32l-0.16 1.59c1.45,-1.69 4.17,-2.9 7.17,-1.29 2.6,1.4 2.46,3.54 2.04,6.93zm50.2 -14.69l-2.67 0.37c-0.27,2.45 0.59,10.06 0.95,12.94l2.8 -0.34 -1.08 -12.97zm17.76 -1.74l-15.63 1.43 1.24 13.86 15.39 -1.57 -1 -13.72zm-128.94 -10.13l-2.49 10.56c1.03,-0.55 1.91,-1.41 2.85,-2.17 4.03,-3.22 5.18,-3.21 8.39,-4.9 0.06,-0.03 0.14,-0.07 0.19,-0.1 0.05,-0.03 0.14,-0.09 0.17,-0.12 0.04,-0.02 0.15,-0.03 0.18,-0.12 0.02,-0.09 0.11,-0.08 0.13,-0.01l-9.42 -3.14zm131.69 -85.56c-2.72,-1.25 -4.51,2.96 -2.04,4.08 2.91,1.32 4.59,-2.91 2.04,-4.08zm-10.48 -24.14c-8.25,-1.75 -10.73,12.01 -2.35,13.75 4,0.83 7.1,-2.21 7.61,-5.59 0.64,-4.15 -1.86,-7.44 -5.26,-8.16zm3.52 37.52c1.17,1.23 4.2,2.6 6.4,3 7.35,1.32 12.94,-4.59 15.81,-11.04 8.47,-19.06 -2,-47.24 -18.39,-48.89 -11.29,-1.13 -17.44,11.44 -17.21,18.86 2.39,-7.02 14.23,-10.78 22.03,-0.16 1.79,2.44 3.06,4.4 4.22,7.68 2.64,7.43 2.86,17.74 -1.72,24.45 -2.55,3.74 -5.94,6.77 -11.14,6.1zm-162.84 -81.83c-0.69,-2.36 -1.12,-4.05 -1.64,-6.58 -0.38,-1.86 -1.91,-2.33 -4.5,-3.78 -10.98,-6.16 -26.81,-9.69 -39.87,-9.52 -17.06,0.22 -37.21,5.61 -50.84,15.04 -3.29,1.53 -9.17,6.69 -12.04,9.36 -24.02,22.28 -31.93,66.33 -16.99,95.18 1.82,3.51 6.44,10.62 8.92,12.16 0.98,2.06 7.03,6.71 9.68,8.53 12.09,8.3 28.57,11.76 42.95,7 -0.21,-9.39 -7.01,-28.54 -15.46,-35.05 -1.74,-1.34 -2.84,-2.23 -5.17,-3.4 -2.45,-1.23 -5.43,-1.89 -5.76,-2.38l0.73 -0.37c6.36,-0.43 11.9,4.07 14.79,6.82 11.69,11.13 15.3,31.89 16.13,48.26 1.05,21.02 -2.95,36.71 2.67,60.47 0.69,2.92 1.44,5.62 2.41,8.41l2.86 7.72c4.3,12.46 17.54,27.54 28.61,34.95 11.57,7.74 30.18,15.52 48.15,14.87 -1.02,-3.7 -3.9,-6.55 -4.15,-15.46 -0.17,-6.17 1.36,-11.27 3.49,-16.2 4.83,-11.21 4.98,-4.82 1.06,-12.67 -2.05,-4.09 -4.03,-10.09 -4.1,-15.4 -0.08,-5.21 0.64,-2.1 -2.54,-7.29 -1.12,-1.83 -2.18,-4.61 -2.49,-7.19 -0.73,-6.24 2.22,-11.07 4.92,-14.54 1.47,-1.89 3.01,-3.63 4.59,-5.36 2.77,-3.02 3.1,-2.35 3.99,-5.72 0.83,-3.14 3.86,-12.77 3.81,-15.48 -11.56,-4.27 -27.09,-13.55 -35.36,-21.92 -1.83,-1.86 -7.18,-7.72 -8.3,-10.67l-4.3 1.41c-4.65,1.11 -9.65,3.1 -14.12,4.74 -2.25,0.83 -4.28,1.59 -6.57,2.54 -1.92,0.8 -5.6,2.81 -6.51,1.94 -1.28,-1.34 1.14,-2.14 2.2,-2.63l27.76 -10.3c-0.66,-3.01 -2.04,-3.74 -2.25,-8.19 -1.47,0.24 -7.4,4.92 -6.64,-7.59 0.08,-1.38 0.58,-3.4 0.53,-4.52 -5.43,-0.67 -27.84,-0.55 -33.88,-0.21 -1.7,-0.06 -3.41,0.04 -5.1,0.13 -1.75,0.1 -3.11,0.59 -3.4,-1.26 1.16,-1.31 5.55,-0.91 7.42,-1.11 6.01,-0.14 11.96,-0.4 17.99,-0.4 3.04,0 6.08,0.03 9.13,0.1 2.55,0.06 6.07,0.44 8.46,0.24 0.79,-1.82 1.23,-3.36 2.09,-5.11l2.69 -4.51c-3.33,-0.16 -6.45,-0.44 -4.92,-4.62 1.11,-3.06 3.13,-4.19 4.24,-6.28 -2.56,-0.66 -10.89,-4.26 -14.64,-5.52 -2.54,-0.85 -4.96,-1.65 -7.41,-2.53 -1.35,-0.49 -2.41,-0.83 -3.73,-1.26 -1.69,-0.55 -2.76,-0.43 -2.72,-2.09 1.35,-1.07 3.47,0.04 5.34,0.59 1.9,0.57 3.69,1.05 5.49,1.68 3.58,1.25 6.91,2.46 10.43,3.7 2.76,0.97 8.7,4 9.94,3.18 1.32,-0.87 2.45,-2.06 4.12,-3.1 1.4,-0.87 3.08,-1.63 4.38,-2.45 0.21,-8.73 2.07,-18.71 4.2,-26.61 2.49,-9.17 4.58,-13.61 8.57,-21.87 -2.16,-4.37 -4.21,-3.57 -9.34,-17.88zm1.67 -105.69c-0.26,0.14 -0.6,-0.66 -0.17,2.1 1.59,10.17 4.15,15.53 6.88,24.49 2.97,9.76 -7.44,-3.53 -13.52,-5.05 0.38,1.28 -0.03,0.42 0.81,1.44l4.52 5.15c0.62,0.64 1.25,1.11 1.81,1.77 1.23,1.45 2.25,2.58 3.49,3.99 0.9,1.01 3.24,2.72 3.63,3.9 0.1,-0.04 0.2,-0.1 0.27,-0.14l2.17 -0.96c-0.31,2.55 -2.83,8.25 -3.79,11.21 -1.17,3.62 -2.33,7.77 -3.23,11.67 -1.98,8.53 -3.46,17.49 -3.34,26.65 0.12,8.91 1.89,17.6 5.18,24.79 2.35,5.11 8.15,14.49 12.19,17.79 -2.88,0.02 -4.17,-1.97 -5.88,-2.92 -2.67,3.58 -6.52,15.62 -8.02,20.99 -2.11,7.63 -3.49,16.48 -4.24,24.68 1.46,-0.17 2.64,-0.67 3.57,0.16 -0.49,1.16 -0.91,0.48 -1.8,1.52 -1.07,0.04 -2.91,0.88 -3.68,1.51 -1.67,0.48 -6.64,3.73 -7.43,4.72 2.62,2.35 15.67,6.01 13.54,8.3 -1.35,0.84 -2.97,-0.47 -4.2,-1.06 -2.89,-1.38 -9.06,-4.69 -11.57,-5.29 -0.93,0.66 -4.93,4.63 -4.62,6.5 1.74,0.16 5.2,-0.43 6.53,0.41 1.37,1.64 -4.56,4.79 -6.01,12.37 2.97,0.03 6.09,0.32 9.08,0.59 4.35,0.38 3.05,0.3 6.58,1.06 1.09,0.23 0.92,-0.07 1.12,0.92 -0.86,0.41 -0.22,0.11 -1,0.12 -2.14,0.01 -0.73,0.42 -2.82,0.39 -3.13,-0.04 -11.82,-1.11 -13.65,-0.61 -0.61,2.94 -1,6.92 -0.4,9.72 1.65,-0.03 6.5,-4.13 6.96,-2.54 0.59,2.01 0.2,-1.14 0.15,0.64 -0.02,0.82 -0.82,1.32 -1.04,2.06 -0.63,2.1 1.6,7.54 2.81,9.2 2.55,-0.32 8.18,-2.88 10.16,-1.93 0.16,3.26 -5.07,2.07 -8.42,4.25 0.64,2.11 7.77,9.38 9.5,10.79l6.53 5.11c13.25,9.69 27.19,14.97 43.23,19.84 2.08,0.63 4.36,1.08 6.18,1.86 1.79,0.78 4.13,1.15 6.17,1.56 2.26,0.45 4.38,0.96 6.67,1.37 1.53,0.26 5.45,0.35 6.27,1.44 -3.64,0.04 -8.18,-0.53 -11.85,-0.92 -1.89,-0.2 -3.73,-0.42 -5.61,-0.74 -0.45,-0.07 -7.96,-1.86 -3.8,1.37 2.9,2.26 6.09,8.65 5.62,11.89 -1.16,-0.85 -5.6,-10.21 -11.28,-11.25 -4.21,-0.76 -9.24,2.74 -12.04,5.1 -1.23,1.04 -2.08,1.46 -2.87,2.8 -1.05,0.25 -2.11,1.66 -2.97,2.43 -1.06,0.97 -1.96,1.83 -2.98,2.84 -1.76,1.75 -3.85,3.99 -5.48,6.09 -4.55,4.73 -6.47,11.44 -3.33,17.62 6.65,13.1 33.51,22.97 50.48,22.63 3.93,5.04 17.44,6.16 25.45,1.41l2.36 -1.82c0.35,-0.44 0.07,0.01 0.4,-0.58 0.76,-0.29 2.24,-1.86 2.78,-2.91 -2.03,0.38 -10.43,2.71 -10.73,-0.49 1.01,-0.86 8.24,-0.93 11.2,-2.29 3.78,-1.74 2.64,-7.24 1.46,-10.23 -2.96,-0.19 -8.99,2.94 -11.09,2.3 0.08,-2.99 7.21,-3.63 9.88,-4.77 -2.69,-7.4 -16.04,-2.38 -18.18,-3.04 -0.03,-1.33 0.98,-1.62 2.24,-2.14 0.01,-1.15 -0.03,-2.25 -0.1,-3.4 -0.07,-1.3 -0.01,-2.16 -0.69,-2.6 -2.92,-1.21 -8.26,5.11 -9.41,6.55l-3.71 4.31c-1.11,0.6 -13.55,-7.58 -15.26,-8.74 -1.63,-1.12 -8.58,-5.76 -8.95,-7.2 1.27,-0.51 3.6,1.44 5.16,1.84l5.85 -6.84c0.74,-0.89 1.18,-1.67 2.48,-1.98 -0.3,2.7 -4.53,7.65 -5.56,9.96 0.82,0.82 8.25,5.25 9.69,5.92 1.5,0.97 4.13,2.35 5.5,3.42 0.87,-0.53 4.82,-5.22 6.18,-6.5 2,-1.87 4.24,-4.4 8.55,-3.68l-0.63 -7.26c-0.39,-3.68 -1.37,-8.28 2.15,-9.43 1.84,-0.61 8.24,-0.93 10.58,-1.12l21.55 -1.88c-0.09,-2.62 -0.31,-2.97 -2.15,-5.39 -2.97,-0.07 -13.9,0.72 -15.76,-0.09 0.61,-0.91 5.22,-0.96 6.6,-1.13 6.21,-0.78 13.34,-2.04 19.38,-3.32 17.22,-3.64 29.98,-7.38 45.45,-15.41 3.76,-1.95 16.12,-9.31 17.84,-12.42 0.98,-0.4 4.41,-3.7 5.4,-4.73 1.69,-1.76 5.83,-7.41 6.83,-9.77 -1.96,-0.64 -3.96,-0.72 -5.76,-1.75 -0.14,-0.99 0.04,-1.28 0.49,-1.95l6.38 1.42c2.59,-4.47 3.54,-10.71 3.42,-16.67l-5.35 0.95c-1.08,0.02 -2.43,-0.08 -1.77,-1.42 0.49,-1 1.46,-0.54 2.19,-1.17l4.43 -0.59c0.62,-2.49 -3.15,-10.94 -4.55,-12.21 -1.42,0.49 -2.68,1.67 -4.09,2.39 -0.98,-0.17 -1.28,-0.13 -1.33,-1.13 0.62,-1.38 2.4,-2.56 3.81,-3.21 -0.86,-1.86 -6.29,-6.77 -8.91,-7.58 -0.75,1.26 -0.64,2.86 -1.93,3.16 -0.93,-1.61 -0.93,-12.39 -1.19,-15.29 -0.48,1.37 -0.42,3.49 -0.67,5.1 -2.07,13.32 -12.18,27.22 -26.07,20.35 -16.76,-8.29 -22.96,-38.84 -14.12,-55.03 2.37,-4.34 6.27,-8.45 12.53,-9.58 3.39,-0.61 6.79,0.03 9.61,1.27 4.43,1.95 3.67,2.08 6.77,4.08 -3.19,-4.49 -4.7,-6.92 -8.44,-11 -0.6,-0.65 -0.94,-1.14 -1.52,-1.81l-14.74 -13.87c-0.5,-0.9 -1.08,-1.19 -2.15,-2.16l-6.46 -5.17c-16.61,-12.04 -37.71,-19.57 -58.69,-20.03 -6.37,-0.14 -23.03,1.02 -27.93,3.47 0.27,1.83 5.72,11.16 5.56,16.32 -0.97,-0.4 -1,-1.23 -1.45,-2.2 -1.67,-3.55 -7.08,-12.29 -9.07,-15.25l-8.62 -12.41c-6.17,-7.86 -16.19,-18.65 -23.75,-25.23l-5.5 -5.02c-0.6,-0.5 -1.32,-0.87 -1.46,-1.58 -0.2,-1.68 4.08,-11.72 4.88,-13.98 0.84,-2.39 1.58,-4.85 2.4,-7.27 0.74,-2.17 1.8,-5.03 2.32,-7.13 0.17,-0.87 0.77,-2.73 2.08,-2.43 0.8,1.36 -0.79,5.91 -1.3,7.71l-4.61 14.18c-0.9,2.48 -1.99,4.48 -2.81,6.7l5.62 4.71c1.98,1.83 3.72,3.28 5.55,4.96 0.89,0.82 1.55,1.69 2.47,2.51l10.22 10.53 7.04 8.73c2.87,3.93 5.83,7.99 8.48,12.51 4.02,-0.75 6.51,-1.94 12.87,-2.86 10.18,-1.48 19.43,-1.57 29.64,-0.07 2.34,0.34 4.66,0.77 6.82,1.2 2.18,0.44 4.52,1.24 6.61,1.5 3.7,-6.71 5.97,-10 9.25,-17.8 2.78,-6.59 4.81,-12.96 6.84,-20.28 1.87,-6.79 1.61,-4.47 -1.63,-9.36 -1.82,-2.77 -3.57,-5.25 -5.36,-8.2 -14.22,-23.4 -6.81,-18.22 -6.39,-16.81 0.4,1.71 6.47,12.1 7.74,14.07 1.44,2.21 2.84,4.32 4.24,6.56 1.19,1.9 3.11,4.98 3.96,6.96l2.04 -0.37c0.64,1.11 -0.08,0.54 0.77,1.23 0.45,2.94 -5.69,20.88 -6.96,24.25 -1.46,3.89 -3.14,7.39 -4.82,10.94 -2.08,4.41 -4.28,7.19 -5.61,9.92 1.24,1.07 3.92,1.59 5.57,2.2 8.78,3.27 17.75,8.21 25.17,13.57l6.48 5.15c1.3,1.25 0.79,1.45 1.95,1.39 1.4,-16.26 -2.6,-37.93 -8.85,-52.87 -0.9,-2.13 -2.2,-4.85 -3.3,-6.93l-3.61 -6.54c-0.09,-1.07 0.45,-1.33 1.01,-1.85 1.35,-1.27 4.73,-6.78 5.67,-8.5 0.41,-0.74 0.59,-1.05 1.02,-1.75 0.58,-0.93 0.71,-0.92 0.83,-2.05 0.06,-0.66 2.74,-5.31 3.43,-6.63 1.21,-2.31 2.54,-6.19 4.44,-5.96 0.88,3.35 -6.54,16.27 -8.66,20 -0.54,0.95 -1.19,2.03 -1.76,2.94 -0.72,1.14 -1.45,1.78 -2.03,3 2.61,5.24 3.97,5.83 7.42,14.23 1.97,4.81 3.96,11.29 5.19,16.66 1.4,6.05 2.48,12.48 3.06,18.84 0.68,7.62 0.27,13.58 0.06,21.11l9.88 9.58c1.02,1.19 2.18,2.25 3.17,3.48 0.95,1.19 1.94,2.22 2.9,3.45 2.84,3.65 5.69,7.36 8.06,11.59 8.25,14.75 10.35,23.68 11.04,41 3.9,2.18 8.84,6.11 11.01,9.11 2.18,-0.87 5.58,-3.13 7.91,-4.42 2.77,-1.55 5.35,-3.04 8.27,-4.47l12.8 -6c0.88,-0.37 3.9,-2.23 4.82,-1.1 1.19,1.46 -5.81,3.94 -7.3,4.7 -2.86,1.45 -5.71,2.72 -8.45,4.29 -2.73,1.56 -5.51,2.9 -8.29,4.43 -1.34,0.74 -2.59,1.5 -4.02,2.35 -0.66,0.39 -1.29,0.79 -1.9,1.15l-2.04 1.37c1.59,3.66 3.29,4.48 4.78,11.66l0.31 1.38c0.18,0.55 0.11,0.35 0.27,0.64 6.34,-0.55 39.02,-5.75 42.86,-3.44 0.17,1.94 -2.3,1.39 -4.46,1.57 -1.93,0.17 -3.75,0.34 -5.66,0.5 -3.71,0.31 -7.42,0.67 -11.12,1.06 -7.07,0.74 -14.55,1.61 -21.49,2.83 -0.38,3.36 0.19,6.06 -0.57,9.95 -0.6,3.12 -1.69,5.42 -2.57,8.16l26.18 8.37c1.41,0.5 2.83,1.09 4.16,1.65 1.76,0.73 3,0.97 2.56,2.72 -1.57,0.55 -6.29,-1.68 -8.21,-2.33l-17.19 -5.48c-2.2,-0.64 -6.68,-2.18 -8.85,-2.36 -14.58,28.51 -55.56,41.23 -83.89,45.85 1.61,1.67 4.37,4.06 6.89,4.15 3.94,0.14 7.39,0.09 11.32,-0.11 0.61,-2.57 0.3,-2.56 3.5,-2.75 2.06,-0.11 4.18,-0.32 6.21,-0.53 4.01,-0.4 8.05,-0.78 12.08,-1.16 2.54,-0.23 3.56,-0.08 3.82,2.46 0.22,2.02 0.35,4.09 0.53,6.11 0.18,2.05 0.42,4.17 0.53,6.22 0.22,3.95 -1.37,0.21 -0.64,5 7.36,0.2 12.45,3.19 15.57,9.05 1.06,2 1.76,3.73 2.12,6.22 0.78,5.33 -0.67,9.9 -3.13,13.36 -1.09,1.51 -2.63,2.93 -4.35,3.95 -1.28,0.77 -2.75,1.4 -4.33,1.73 -1.98,0.41 -0.41,-0.31 -1.8,0.53 0.1,2.38 0.78,5.12 -0.74,6.65 -1.53,1.53 -3.79,1.08 -6.09,1.89 -0.81,1.88 2.16,2.92 4.04,4.86 1.3,1.33 2.98,3.31 4.2,5.2 7.77,11.99 4.46,24.41 -4.6,34.02 -1.54,1.64 -3.56,2.72 -5,4.37 6.22,-0.59 13.6,-3.28 19.86,-2.14 11.6,2.11 23.47,16.79 18.4,24.66 -2.5,3.87 -11.32,5.63 -17.53,5.56 -12.85,-0.17 -48.23,-4.5 -62.42,-6.3 -4.95,-0.63 -9.38,-0.96 -11.84,-5.35 -0.85,-1.52 -0.91,-3.07 -1.55,-4.31 -2.29,0.18 -5.18,0.96 -7.57,1.31 -5.37,0.79 -10.78,1.42 -16.22,1.71 -2.45,0.13 -6.5,0.07 -8.72,0.5 7.7,2.78 15.95,5.66 17.88,14.47 1.53,6.96 -2.11,11.08 -8.51,12.88 -3.83,1.07 -6.93,0.38 -10.06,1.05 -5.97,1.26 -13.63,-1.02 -18.65,-2.99 -10.39,-4.06 -20.75,-8.36 -30.48,-13.22 -2.44,-1.22 -4.92,-2.67 -6.16,-4.64 -1.6,-2.52 -1.53,-6.24 -0.24,-8.98 1.63,-3.45 5.31,-6.3 7.94,-8.67 0.68,-0.62 2.43,-2 2.84,-2.77 -0.61,-0.71 -1.14,-0.99 -1.9,-1.77 -1.84,-1.91 -1.42,-3.05 -4.27,-2.79 -12.74,1.15 -29.58,-4.05 -40.32,-9.06 -9.07,-4.23 -15.95,-9.52 -22.19,-15.72 -1.19,-1.19 -2.76,-2.55 -3.9,-3.85 -2.21,-2.53 -4.65,-5.41 -6.72,-8.49 -14.53,-21.61 -18.17,-46.61 -17.03,-73.69 0.43,-10.27 0.39,-19.16 -0.07,-29.37 -1.9,0.21 -5.69,1.7 -9.41,2.1 -12.73,1.35 -27.16,-2.89 -37.17,-10.23 -7.17,-5.27 -12.4,-10.31 -17.4,-18.29 -13.06,-20.86 -12.06,-54.44 -2.11,-77.57 9.03,-20.96 26.41,-36.94 49.59,-45.31 21.59,-7.8 48.1,-9.05 69.79,0.63 1.38,0.62 2.65,1.13 3.98,1.83 1.4,0.72 2.62,1.56 3.88,2.11 0.05,-2.3 -0.32,-4.97 -0.33,-7.41 -0.05,-11.66 2.14,-23.55 5.67,-34.55l4.09 -11.93 -7.33 -7.32c-3.2,-3.04 -7.47,-8.56 -9.93,-12.51 -0.55,-0.89 -0.66,-0.97 -0.14,-1.74 1.13,-0.66 2.37,1.13 4.05,1.72 6.61,2.31 8.72,5.15 12.02,7.07 -1.1,-5.08 -8.4,-21.77 -5.41,-26.82 1.27,0.06 1.2,0.17 1.58,0.97z"/>
  <path class="fil1" d="M137.42 109.96c5.13,14.31 7.18,13.51 9.34,17.88 -3.99,8.26 -6.08,12.7 -8.57,21.87 -2.13,7.9 -3.99,17.88 -4.2,26.61 -1.3,0.82 -2.98,1.58 -4.38,2.45 -1.67,1.04 -2.8,2.23 -4.12,3.1 -1.24,0.82 -7.18,-2.21 -9.94,-3.18 -3.52,-1.24 -6.85,-2.45 -10.43,-3.7 -1.8,-0.63 -3.59,-1.11 -5.49,-1.68 -1.87,-0.55 -3.99,-1.66 -5.34,-0.59 -0.04,1.66 1.03,1.54 2.72,2.09 1.32,0.43 2.38,0.77 3.73,1.26 2.45,0.88 4.87,1.68 7.41,2.53 3.75,1.26 12.08,4.86 14.64,5.52 -1.11,2.09 -3.13,3.22 -4.24,6.28 -1.53,4.18 1.59,4.46 4.92,4.62l-2.69 4.51c-0.86,1.75 -1.3,3.29 -2.09,5.11 -2.39,0.2 -5.91,-0.18 -8.46,-0.24 -3.05,-0.07 -6.09,-0.1 -9.13,-0.1 -6.03,0 -11.98,0.26 -17.99,0.4 -6.82,-14.68 -18.31,-31.25 -36.79,-31.66 -10.68,-0.24 -18.64,5.72 -22.64,11.58 -4.71,6.88 -7.8,17.22 -5.89,27.36 0.44,1.76 0.69,3.32 1.17,4.96 0.48,1.65 1.16,3.18 1.5,4.88 -2.48,-1.54 -7.1,-8.65 -8.92,-12.16 -14.94,-28.85 -7.03,-72.9 16.99,-95.18 2.87,-2.67 8.75,-7.83 12.04,-9.36 0.33,0.57 -0.48,0.9 1.33,0.16l3.9 -2c1.9,-0.93 3.4,-1.55 5.47,-2.31 20.51,-7.47 45.02,-9.12 65.72,-1.22 11.45,4.36 11.16,5.06 20.43,10.21zm-51.13 217.87c0.02,-1.54 -1.06,-5.56 -1.35,-7.57 -0.92,-6.37 0.21,-20.19 1,-26.36 0.98,-7.64 3.85,-26.85 4.06,-33.17l0.47 -3.25c1.59,5.87 2.38,11.11 4.8,17.58 1.58,4.24 3.04,7.58 4.59,12.29 0.44,1.35 0.69,2.88 1.79,3.79 0.58,-0.8 0.49,-1.14 0.68,-2.46 0.12,-0.83 0.29,-1.63 0.4,-2.37 1.06,0.36 0.36,0.02 1.14,0.9 0.55,0.61 0.47,0.57 0.85,1.08 3.19,4.34 8.83,9.23 14,10.92 0.24,-1.65 -0.48,-7.44 -0.52,-9.79 -0.11,-6.76 2.08,-21.75 3.64,-27.94 0,0 2.78,3.25 3.35,1.46 0.02,-0.05 0.06,-0.14 0.08,-0.2l0.04 -7.82c-0.17,-2.46 -0.4,-5.44 -0.48,-8.11 -0.17,-5.35 -1.73,-10.39 -1.16,-15.65l4.3 -1.41c1.12,2.95 6.47,8.81 8.3,10.67 8.27,8.37 23.8,17.65 35.36,21.92 0.05,2.71 -2.98,12.34 -3.81,15.48 -0.89,3.37 -1.22,2.7 -3.99,5.72 -1.58,1.73 -3.12,3.47 -4.59,5.36 -2.7,3.47 -5.65,8.3 -4.92,14.54 0.31,2.58 1.37,5.36 2.49,7.19 3.18,5.19 2.46,2.08 2.54,7.29 0.07,5.31 2.05,11.31 4.1,15.4 3.92,7.85 3.77,1.46 -1.06,12.67 -2.13,4.93 -3.66,10.03 -3.49,16.2 0.25,8.91 3.13,11.76 4.15,15.46 -17.97,0.65 -36.58,-7.13 -48.15,-14.87 -11.07,-7.41 -24.31,-22.49 -28.61,-34.95zm37.38 -96.67c-0.57,5.26 0.99,10.3 1.16,15.65 0.08,2.67 0.31,5.65 0.48,8.11l-0.04 7.82c-0.02,0.06 -0.06,0.15 -0.08,0.2 -0.57,1.79 -3.35,-1.46 -3.35,-1.46 -1.56,6.19 -3.75,21.18 -3.64,27.94 0.04,2.35 0.76,8.14 0.52,9.79 -5.17,-1.69 -10.81,-6.58 -14,-10.92 -0.38,-0.51 -0.3,-0.47 -0.85,-1.08 -0.78,-0.88 -0.08,-0.54 -1.14,-0.9 -0.11,0.74 -0.28,1.54 -0.4,2.37 -0.19,1.32 -0.1,1.66 -0.68,2.46 -1.1,-0.91 -1.35,-2.44 -1.79,-3.79 -1.55,-4.71 -3.01,-8.05 -4.59,-12.29 -2.42,-6.47 -3.21,-11.71 -4.8,-17.58l-0.47 3.25 0.35 -4.85c0.12,-9.39 0.23,-17.27 -0.88,-26.49 -0.45,-3.78 -1.27,-8.05 -2.14,-11.73 -0.88,-3.72 -2.34,-7.28 -3.14,-10.72 6.04,-0.34 28.45,-0.46 33.88,0.21 0.05,1.12 -0.45,3.14 -0.53,4.52 -0.76,12.51 5.17,7.83 6.64,7.59 0.21,4.45 1.59,5.18 2.25,8.19l-27.76 10.3c-1.06,0.49 -3.48,1.29 -2.2,2.63 0.91,0.87 4.59,-1.14 6.51,-1.94 2.29,-0.95 4.32,-1.71 6.57,-2.54 4.47,-1.64 9.47,-3.63 14.12,-4.74z"/>
  <path class="fil2" d="M275.55 208.8c-0.46,2.89 -0.82,5.27 -1.66,8 -1.23,3.95 -1.3,3.52 -4.25,5.43 -4.01,2.59 -7.23,5.14 -12.9,6.46 -9.23,2.15 -18.24,-1.94 -24.1,-8.55 -0.75,-0.86 -1.75,-2.02 -2.16,-3.03 1.37,-0.25 4.32,-0.92 4.48,-2.39 -2.08,-1.61 -12.84,2.63 -13.38,6.73 2.17,-0.36 4.59,-2.19 6.52,-3.08 0.82,0.7 1.4,1.99 2.2,3 2.27,2.88 5.09,5.29 8.57,7.19 5.58,3.06 10.52,3.96 17.82,2.96 0.78,7.27 6.73,15.2 15.08,13.58 8.57,-1.65 11.55,-8.35 13.69,-15.9 4.73,0.39 7.63,0.38 11.06,-2.23 0.44,-0.34 1.29,-1.16 1.69,-1.62 0.43,-0.51 1.03,-1.47 1.4,-2.2 0.67,-1.32 1.97,-4.53 0.42,-5.78 -0.75,0.54 -0.17,-0.12 -0.52,0.7 -0.06,0.14 -0.23,0.92 -0.27,1.12 -0.17,0.74 -0.33,1.2 -0.63,1.85 -0.45,0.97 -1.44,2.41 -2,2.99 -5.21,5.37 -13.12,2.21 -18.37,-1.35 -0.97,-0.65 -2.32,-1.77 -3.2,-2.08 0.35,-1.71 1.2,-3.43 1.64,-5.48 0.4,-1.91 0.75,-4.04 0.81,-6.1 5.16,-1.95 10.53,-6.37 12.75,-11.55 5.27,-12.28 -35.73,-9.41 -29.45,1.44 1.72,2.98 9.77,9.14 14.76,9.89zm61.4 -15.72c-0.55,0.47 -0.47,-0.59 -0.46,0.58 -0.72,-0.64 -0.16,-0.33 -1.04,-0.58l-0.55 0.8c-0.66,-1.38 -1.77,-0.22 -3.7,-2.56 -0.04,-0.05 -0.09,-0.11 -0.13,-0.16 -0.03,-0.04 -0.09,-0.1 -0.13,-0.15l-0.7 -0.96 -0.72 0.44c-0.4,0.19 -0.84,-0.03 -1.38,-0.01l-3.7 0.16c-0.02,0.01 -0.08,0.06 -0.11,0.08l-0.47 0.56c-0.48,0.62 -0.97,1.13 -0.68,2.05 -1.12,0 -0.63,-0.08 -1.37,0.28l0.16 0.5c0.18,0.61 0.64,0.44 -0.2,0.79l-1.48 0.63c-0.79,0.36 -2.14,2.29 -2.26,2.03 -0.03,-0.05 -0.11,0.08 -0.16,0.13 -0.33,-0.7 -1.38,-0.6 -2.09,-0.68 -2.78,-0.29 -1.09,0.72 -3.97,0.73l0.02 1.65c-0.8,-0.2 -0.23,-0.28 -1.11,0.01 -0.44,1.47 0.08,0.35 0.03,0.85l-0.73 1.21c-0.03,0.07 -0.06,0.14 -0.09,0.2 -0.6,1.31 0.28,1.45 0.41,2.47 0.3,2.33 -0.4,2.54 1.22,4.5 -0.57,0.17 0.4,-0.46 -0.44,0.12 -0.54,0.37 -0.02,-0.41 -0.37,0.44l1.1 0.63c0.03,0.04 0.09,0.1 0.13,0.14 0.5,0.6 -0.02,-0.21 0.34,0.49 0.54,1.07 0.2,0.6 0.07,0.97l-0.55 1c0.06,0.06 0.16,0.1 0.22,0.13 2.21,1.36 0.77,1.67 1.89,3.44 0.46,0.71 0.61,1.37 1.46,1.71 0.49,0.2 0.28,0.15 0.83,0.22 -0.02,0.06 -0.03,0.15 -0.04,0.2l0.07 1.67c1.33,0 0.95,0.25 2.21,0.28 0.03,1.27 0.2,0.76 0.31,1.89 1.13,-0.05 0.76,0.1 1.36,-0.52 0.1,1.92 -0.14,0.51 0.78,1.45l0.32 0.32c0.03,-0.05 0.11,0.11 0.17,0.16 0.24,-0.73 0.48,-0.98 1.58,-1.06 0.08,0.16 0.06,0.33 0.07,0.35l0.26 0.36c0.12,0.11 0.75,0.48 0.83,0.52 0.07,0.03 0.28,0.12 0.35,0.14 0.05,0.02 0.13,0.04 0.18,0.05l0.91 0.31c0.9,0.5 -0.96,-0.43 0.25,0.18 1.75,0.87 0.27,-0.31 1.77,-0.17 0.36,0.03 0.64,0.26 1.36,0.12 0.04,-0.01 0.12,-0.04 0.16,-0.05l5.61 0.33c0.44,-0.18 0.51,-0.96 1.88,-0.51l-0.07 -1.66c0.11,1.95 0.12,0.71 0.57,1.18 1.8,1.03 3.8,1.11 5.76,1.75 -1,2.36 -5.14,8.01 -6.83,9.77 -0.99,1.03 -4.42,4.33 -5.4,4.73l-3.87 2.31c-1.32,0.9 -2.48,1.64 -3.95,2.41 -2.8,1.46 -5.4,3.07 -8.37,4.12 -6.31,2.24 -12.14,4.52 -18.99,6.19 -31.55,7.69 -79,5.97 -108.47,-7.78 -10.35,-4.84 -8.21,-4.26 -16.28,-8.97 0.2,-0.36 0.04,-0.4 0.28,-0.66 2.2,0.99 0.42,-0.1 1.7,0.55 0.41,0.22 0.13,0.12 0.33,0.3 0.83,0.74 -0.77,-0.09 0.56,0.22 0.69,0.16 0.49,-0.17 0.68,0.53 0.07,-0.12 0.22,-0.43 0.29,-0.5 0.55,-0.63 0.39,-0.06 1.01,-0.7 0.04,-0.03 0.09,-0.1 0.12,-0.14 0.04,-0.04 0.09,-0.12 0.13,-0.17 0.03,-0.04 0.09,-0.14 0.12,-0.18 0.03,-0.04 0.08,-0.14 0.13,-0.2 0.03,0.05 0.06,0.08 0.07,0.15l0.21 0.93c2.07,0 1.47,-0.92 2.49,0.53l0.85 -0.68c0.86,-0.5 0.14,0.17 1.03,-0.64l0.8 -0.99c0.17,-0.51 -0.29,-1 1.13,-1.16 0.39,-0.04 0.83,0.08 1.09,0.22 -0.27,-0.62 -0.74,-0.16 -1.11,-1.11 2.19,0 1.24,-0.24 2.22,0.82 0.63,-1.11 0.9,-0.47 1.74,-1.57l0.2 -0.29c0.01,-0.04 0.05,-0.12 0.07,-0.15 0.7,-1.73 -0.73,-1.04 1.83,-2.29l0.57 -0.28c0.83,0.19 -0.42,-0.31 0.2,0.11 1.57,1.05 -0.8,-0.19 0.37,0.33 0.27,-0.63 0.11,-0.38 0.71,-0.71 0.49,-0.26 0.35,0 0.95,-0.32 -1.02,-0.64 -0.37,0.24 -1.08,-0.83 0.06,-0.04 0.17,-0.16 0.2,-0.1l1.02 -0.75c1.56,-0.71 -0.16,0.09 1.21,-0.94 0.07,-0.04 0.28,-0.17 0.34,-0.21l0.32 -0.13c1.06,-0.38 -0.34,0.19 0.49,-0.09 -0.31,-0.62 -0.48,-1.38 -0.52,-2.24 1.81,0.35 0.14,0.73 2.16,0.22 -0.39,-0.57 -0.38,-0.56 -0.54,-1.37 0.85,-0.22 0.6,-0.12 1.11,-0.76 -1.18,-0.63 -0.56,0.43 -1.38,-0.83 0.2,-0.3 0.2,-0.75 1.15,-0.64 0.67,0.08 -0.33,0.27 0.25,0.09 0.38,-0.91 -0.07,-0.61 -0.09,-1.58 -0.03,-1.39 0.19,-0.99 0.91,-1.46 -0.51,-1.37 -0.32,0.2 -0.43,-0.92 -0.16,-1.81 -0.3,0.23 0.55,-1.36 0.37,-0.69 0.25,-0.38 1.26,-0.99 -1.58,-1.23 0.49,-3.59 -0.15,-5.93l-0.95 -1.59c0.42,-1.11 -0.26,-0.2 1.08,-0.93 -1.97,-1.61 1.38,-1.04 -2.26,-2.27 -1.88,-0.63 -0.84,-0.42 -0.58,-0.72 4.8,0.39 6.69,1.83 13.66,0.26 20.59,-4.62 29.36,-28.8 22.74,-48.08 -9.73,-28.31 -39.98,-30.79 -53.75,-11.42 -7.07,9.94 -9.73,23.26 -5.84,35.86 1.76,5.73 3.15,6.45 4.9,10.14 -1.05,-0.02 -0.41,0.09 -1.43,-0.3 -0.02,0 -0.48,-0.21 -0.53,-0.23l-0.81 -0.2c-0.04,-0.02 -0.12,-0.06 -0.15,-0.08l-0.78 -0.84c-0.04,-0.04 -0.1,-0.1 -0.14,-0.15 -0.05,-0.04 -0.12,-0.1 -0.16,-0.14l-0.34 -0.27c0.58,-0.97 0.72,0.01 0.51,-1.25 -0.23,-1.34 0.4,-1.09 -2.27,-1.16 1.25,0.35 0.63,-0.37 1.13,0.75 -0.31,0.49 -0.91,1.63 -1.95,-0.2 -0.57,0.81 -2.04,1.09 -3.03,0.86l-0.56 -0.29c-1.53,2.74 -2.05,2.41 -4.15,2.23 -0.35,0.64 -0.65,1.1 -0.82,1.93 -1.01,-0.06 -1.42,-0.31 -2.4,0.1 -0.29,0.12 0.03,-0.55 -0.91,1.3 -0.98,-0.5 -0.63,0.38 -0.82,-1.09 -0.85,1.42 -0.3,0.47 -1.79,1.09l-0.99 -0.81c-0.35,-0.28 -0.45,-0.36 -0.95,-0.53 -0.78,1.47 0.06,2.6 -1.36,2.66 -0.66,0.03 -0.53,-0.05 -0.68,-0.44 0.67,1.58 -0.48,2.03 -0.54,2.1 -0.02,0.02 -0.08,0.08 -0.09,0.1l-0.21 0.55c-0.33,0.38 -0.89,0.21 -1.39,0.4 0.05,0.68 -0.05,0.12 0.35,0.4l0.47 0.29c-2.24,3.2 -1.58,1.29 -4.97,1.12 -0.52,0.94 0.35,0.88 -0.71,1.37 -0.42,-0.6 -0.37,-1.36 -0.34,-2.11 0.15,-3.24 0.77,-6.37 1.9,-9.2 0.86,-2.13 2.83,-5.93 5.47,-5.7 4.3,1.7 4.72,2.71 10.69,2.86 -0.7,-4.54 -1.71,-5.25 -2.21,-12.55 -0.84,-12.42 1.61,-25.44 6.98,-36.17 6.78,-13.53 19.73,-23.26 35.53,-21.87 16.29,1.44 26.12,14.02 32.06,25.52 3.27,6.34 5.91,13.3 7.95,20.82 2.92,10.78 2.94,14.05 3.99,24.79 1.39,-0.46 5.97,-3.01 9.24,-4.21 17.53,-6.41 29.89,2.07 32.72,2.25 -1.55,-2.98 -2.99,-1.39 -5.67,-7.21 -3.64,-7.89 -6.29,-22.32 -6.91,-31.04 -0.69,-9.67 1.11,-23.69 9.59,-28.34 4.22,-2.32 6.27,-1.08 10.79,-0.56 -0.27,-1.87 -1.56,-2.6 -2.5,-3.87 -0.5,-0.68 -0.79,-1.06 -1.29,-1.77 -1.21,-1.73 -0.99,-1.27 -0.72,-1.61l14.74 13.87c0.58,0.67 0.92,1.16 1.52,1.81 3.74,4.08 5.25,6.51 8.44,11 -3.1,-2 -2.34,-2.13 -6.77,-4.08 -2.82,-1.24 -6.22,-1.88 -9.61,-1.27 -6.26,1.13 -10.16,5.24 -12.53,9.58 -8.84,16.19 -2.64,46.74 14.12,55.03 13.89,6.87 24,-7.03 26.07,-20.35 0.25,-1.61 0.19,-3.73 0.67,-5.1 0.26,2.9 0.26,13.68 1.19,15.29 1.29,-0.3 1.18,-1.9 1.93,-3.16 2.62,0.81 8.05,5.72 8.91,7.58 -1.41,0.65 -3.19,1.83 -3.81,3.21zm0 0c0.05,1 0.35,0.96 1.33,1.13 1.84,2.36 1.28,1.04 2.59,4.55 0.36,0.97 1.21,3.77 1.09,4.86 -0.12,1.02 0.12,0.27 -0.25,0.78l0.78 0.22c-0.73,0.63 -1.7,0.17 -2.19,1.17 -0.66,1.34 0.69,1.44 1.77,1.42 0.6,0.81 0.61,0.46 0.74,1.44 0.42,3.19 -0.78,10.54 -2.38,12.94l-2.81 -0.08c-0.45,0.67 -0.63,0.96 -0.49,1.95 -0.45,-0.47 -0.46,0.77 -0.57,-1.18l0.07 1.66c-1.37,-0.45 -1.44,0.33 -1.88,0.51l-5.61 -0.33c-0.04,0.01 -0.12,0.04 -0.16,0.05 -0.72,0.14 -1,-0.09 -1.36,-0.12 -1.5,-0.14 -0.02,1.04 -1.77,0.17 -1.21,-0.61 0.65,0.32 -0.25,-0.18l-0.91 -0.31c-0.05,-0.01 -0.13,-0.03 -0.18,-0.05 -0.07,-0.02 -0.28,-0.11 -0.35,-0.14 -0.08,-0.04 -0.71,-0.41 -0.83,-0.52l-0.26 -0.36c-0.01,-0.02 0.01,-0.19 -0.07,-0.35 -1.1,0.08 -1.34,0.33 -1.58,1.06 -0.06,-0.05 -0.14,-0.21 -0.17,-0.16l-0.32 -0.32c-0.92,-0.94 -0.68,0.47 -0.78,-1.45 -0.6,0.62 -0.23,0.47 -1.36,0.52 -0.11,-1.13 -0.28,-0.62 -0.31,-1.89 -1.26,-0.03 -0.88,-0.28 -2.21,-0.28l-0.07 -1.67c0.01,-0.05 0.02,-0.14 0.04,-0.2 -0.55,-0.07 -0.34,-0.02 -0.83,-0.22 -0.85,-0.34 -1,-1 -1.46,-1.71 -1.12,-1.77 0.32,-2.08 -1.89,-3.44 -0.06,-0.03 -0.16,-0.07 -0.22,-0.13l0.55 -1c0.13,-0.37 0.47,0.1 -0.07,-0.97 -0.36,-0.7 0.16,0.11 -0.34,-0.49 -0.04,-0.04 -0.1,-0.1 -0.13,-0.14l-1.1 -0.63c0.35,-0.85 -0.17,-0.07 0.37,-0.44 0.84,-0.58 -0.13,0.05 0.44,-0.12 -1.62,-1.96 -0.92,-2.17 -1.22,-4.5 -0.13,-1.02 -1.01,-1.16 -0.41,-2.47 0.03,-0.06 0.06,-0.13 0.09,-0.2l0.73 -1.21c0.05,-0.5 -0.47,0.62 -0.03,-0.85 0.88,-0.29 0.31,-0.21 1.11,-0.01l-0.02 -1.65c2.88,-0.01 1.19,-1.02 3.97,-0.73 0.71,0.08 1.76,-0.02 2.09,0.68 0.05,-0.05 0.13,-0.18 0.16,-0.13 0.12,0.26 1.47,-1.67 2.26,-2.03l1.48 -0.63c0.84,-0.35 0.38,-0.18 0.2,-0.79l-0.16 -0.5c0.74,-0.36 0.25,-0.28 1.37,-0.28 -0.29,-0.92 0.2,-1.43 0.68,-2.05l0.47 -0.56c0.03,-0.02 0.09,-0.07 0.11,-0.08l3.7 -0.16c0.54,-0.02 0.98,0.2 1.38,0.01l0.72 -0.44 0.7 0.96c0.04,0.05 0.1,0.11 0.13,0.15 0.04,0.05 0.09,0.11 0.13,0.16 1.93,2.34 3.04,1.18 3.7,2.56l0.55 -0.8c0.88,0.25 0.32,-0.06 1.04,0.58 -0.01,-1.17 -0.09,-0.11 0.46,-0.58zm-165.64 3.42c-0.34,-0.91 0.15,-0.9 -0.43,-1.43 -0.02,-0.02 -0.08,-0.06 -0.11,-0.08l-0.59 -0.36c-0.95,-0.69 0.28,-0.11 -0.65,-0.58 -0.71,1.39 0.95,-0.98 -0.09,1.05l-1.16 1.1c-1.26,1.07 -1.18,0.17 -2.16,0.06l-0.5 1.05c-0.41,0.66 -1.2,2.19 -1.85,2.56 -1.24,0.7 0.25,-0.53 -0.87,0.25 -0.26,0.18 -0.51,1.23 -0.99,1.36 -0.45,0.11 -0.1,-0.02 -0.77,-0.26l-0.68 0.93c-2.07,1.86 -0.71,0.63 -0.65,2.65 -1.02,-0.2 -0.68,-0.16 -1.16,-0.82 -0.27,0.23 -0.1,0.08 -0.4,0.39 -0.07,0.07 -0.26,0.35 -0.29,0.29 -0.02,-0.05 -0.09,0.11 -0.14,0.16l-0.2 -0.81c-0.46,0.7 -0.59,0.57 -1.02,1.44 -0.21,0.42 -0.19,0.47 -0.32,0.78l-0.19 0.41c-0.02,0.04 -0.08,0.24 -0.1,0.2 -0.02,-0.04 -0.07,0.14 -0.11,0.2 -1.52,-0.16 -0.37,0.35 -1.28,-0.81 -0.3,0.57 -0.15,2.35 -0.19,3.47 -0.08,2.38 0.02,1.29 1.75,1.65l0.71 1.3c0.02,-0.04 0.11,0.09 0.16,0.13 -0.89,0.57 -1.28,-0.39 -1.19,0.63l0.21 1.5c-0.04,0.65 -0.27,0.52 -0.02,1.09 0.23,0.51 0.27,0.25 0.3,0.84l0.14 2.91c-0.08,2.34 -1.44,3.99 1.28,1.54 0.36,0.3 0.16,0.12 0.49,0.46l0.28 0.3c0.49,0.59 0.24,0.17 0.56,0.86 0.91,1.97 -0.24,0.48 1.21,2.63 0.4,0.6 1.17,0.89 1.51,1.63 0.73,2.13 -0.67,-0.32 0.07,0.99 0.6,1.05 0.63,0.57 1.07,1.09 0.78,0.93 0.84,2.19 2.25,2.3l2.01 -0.1c0.04,0 0.13,0.02 0.17,0.02 0.07,0.01 0.27,0.06 0.34,0.07 0.51,0.05 0.2,0.04 0.63,-0.03l2.16 -0.29c1.3,-0.34 1.32,0.05 2.59,0.26 1.15,0.18 1.13,0.18 2.22,-0.37 0.94,-0.47 2.12,-0.56 3.11,-1.08l3.14 -1.55c0.61,-0.36 0.4,-0.43 1.16,-0.84 0.04,0.06 0.07,0.16 0.08,0.19 0.01,0.04 0.05,0.15 0.06,0.19l0.06 0.73c0.21,-0.14 0.94,-0.54 1.36,-0.33 -0.1,-0.85 -0.2,-0.53 -0.28,-1.61 1.08,-0.39 0.8,-0.07 1.56,-0.66 0.65,-0.52 0.29,-0.02 0.67,-0.7 0.01,-0.03 0.17,-0.6 0.28,-0.83 1.05,-0.42 0.65,0.16 1.46,-0.26 0.86,-0.45 0.19,0.08 0.73,-1.17 1.01,0.07 0.67,0.02 1.38,0.28 0.08,-1.01 0.09,-0.54 0.29,-0.84 -0.54,-0.18 -0.26,-0.06 -0.61,-0.29 -0.45,-0.29 -0.2,-0.12 -0.51,-0.43l1.47 -1.11c0.59,-0.77 -0.18,-0.13 0.63,-0.78 0.17,-0.14 0.43,-0.21 0.63,-0.32 -0.17,-0.92 -0.49,-0.73 -0.4,-1.61 0.15,-1.36 0.45,0.07 0.44,-1.69 -0.02,-1.7 -0.5,-1.55 -0.11,-4.49 0.1,-0.74 -0.03,0.04 0.07,-0.76 0.14,-1.07 -0.09,-1.17 -0.18,-2.25 -0.12,-1.23 0.17,-0.82 0.2,-1.93l-2.69 -0.86c-0.02,0.02 -0.1,0.08 -0.12,0.1l-0.78 -0.67c-0.52,-1.38 -0.94,-1.37 -0.25,-3.32l0.27 -0.69 -1.91 -0.01c0.87,-1.05 0.58,-0.54 0.03,-0.87 -0.06,-0.03 -0.25,-0.15 -0.31,-0.19l-1.52 -0.71c-0.91,-0.26 -1.2,0.29 -2.43,-0.34l-2.16 -1.93c-0.02,-0.03 -0.09,-0.07 -0.11,-0.09 -0.02,-0.03 -0.1,-0.07 -0.13,-0.09 -1.3,-1.28 0.43,-0.51 -0.92,-1.77 -0.05,-0.05 -0.82,-0.52 -0.84,-0.52l-3.71 0.12c-0.06,0.01 -1.9,1.1 -3.11,1.37zm5.97 -6.13l0.5 0.52c3.12,3.61 2.36,3.55 7.24,7.41 4.73,3.75 8.11,3.88 10.55,5.31 -0.26,0.3 -1.3,0.09 0.58,0.72 3.64,1.23 0.29,0.66 2.26,2.27 -1.34,0.73 -0.66,-0.18 -1.08,0.93l0.95 1.59c0.64,2.34 -1.43,4.7 0.15,5.93 -1.01,0.61 -0.89,0.3 -1.26,0.99 -0.85,1.59 -0.71,-0.45 -0.55,1.36 0.11,1.12 -0.08,-0.45 0.43,0.92 -0.72,0.47 -0.94,0.07 -0.91,1.46 0.02,0.97 0.47,0.67 0.09,1.58 -0.58,0.18 0.42,-0.01 -0.25,-0.09 -0.95,-0.11 -0.95,0.34 -1.15,0.64 0.82,1.26 0.2,0.2 1.38,0.83 -0.51,0.64 -0.26,0.54 -1.11,0.76 0.16,0.81 0.15,0.8 0.54,1.37 -2.02,0.51 -0.35,0.13 -2.16,-0.22 0.04,0.86 0.21,1.62 0.52,2.24 -0.83,0.28 0.57,-0.29 -0.49,0.09l-0.32 0.13c-0.06,0.04 -0.27,0.17 -0.34,0.21 -1.37,1.03 0.35,0.23 -1.21,0.94l-1.02 0.75c-0.03,-0.06 -0.14,0.06 -0.2,0.1 0.71,1.07 0.06,0.19 1.08,0.83 -0.6,0.32 -0.46,0.06 -0.95,0.32 -0.6,0.33 -0.44,0.08 -0.71,0.71 -1.17,-0.52 1.2,0.72 -0.37,-0.33 -0.62,-0.42 0.63,0.08 -0.2,-0.11l-0.57 0.28c-2.56,1.25 -1.13,0.56 -1.83,2.29 -0.02,0.03 -0.06,0.11 -0.07,0.15l-0.2 0.29c-0.84,1.1 -1.11,0.46 -1.74,1.57 -0.98,-1.06 -0.03,-0.82 -2.22,-0.82 0.37,0.95 0.84,0.49 1.11,1.11 -0.26,-0.14 -0.7,-0.26 -1.09,-0.22 -1.42,0.16 -0.96,0.65 -1.13,1.16l-0.8 0.99c-0.89,0.81 -0.17,0.14 -1.03,0.64l-0.85 0.68c-1.02,-1.45 -0.42,-0.53 -2.49,-0.53l-0.21 -0.93c-0.01,-0.07 -0.04,-0.1 -0.07,-0.15 -0.05,0.06 -0.1,0.16 -0.13,0.2 -0.03,0.04 -0.09,0.14 -0.12,0.18 -0.04,0.05 -0.09,0.13 -0.13,0.17 -0.03,0.04 -0.08,0.11 -0.12,0.14 -0.62,0.64 -0.46,0.07 -1.01,0.7 -0.07,0.07 -0.22,0.38 -0.29,0.5 -0.19,-0.7 0.01,-0.37 -0.68,-0.53 -1.33,-0.31 0.27,0.52 -0.56,-0.22 -0.2,-0.18 0.08,-0.08 -0.33,-0.3 -1.28,-0.65 0.5,0.44 -1.7,-0.55 -0.24,0.26 -0.08,0.3 -0.28,0.66 -1.27,-1.16 -3.43,-2.3 -4.83,-3.42 -3.97,-3.18 -5.32,-4.53 -8.67,-7.92 -1.58,-1.6 -2.65,-2.73 -4.05,-4.51 -4.14,-5.29 -10.35,-14.67 -8.71,-24.61 -0.03,0.75 -0.08,1.51 0.34,2.11 1.06,-0.49 0.19,-0.43 0.71,-1.37 3.39,0.17 2.73,2.08 4.97,-1.12l-0.47 -0.29c-0.4,-0.28 -0.3,0.28 -0.35,-0.4 0.5,-0.19 1.06,-0.02 1.39,-0.4l0.21 -0.55c0.01,-0.02 0.07,-0.08 0.09,-0.1 0.06,-0.07 1.21,-0.52 0.54,-2.1 0.15,0.39 0.02,0.47 0.68,0.44 1.42,-0.06 0.58,-1.19 1.36,-2.66 0.5,0.17 0.6,0.25 0.95,0.53l0.99 0.81c1.49,-0.62 0.94,0.33 1.79,-1.09 0.19,1.47 -0.16,0.59 0.82,1.09 0.94,-1.85 0.62,-1.18 0.91,-1.3 0.98,-0.41 1.39,-0.16 2.4,-0.1 0.17,-0.83 0.47,-1.29 0.82,-1.93 2.1,0.18 2.62,0.51 4.15,-2.23l0.56 0.29c0.99,0.23 2.46,-0.05 3.03,-0.86 1.04,1.83 1.64,0.69 1.95,0.2 -0.5,-1.12 0.12,-0.4 -1.13,-0.75 2.67,0.07 2.04,-0.18 2.27,1.16 0.21,1.26 0.07,0.28 -0.51,1.25l0.34 0.27c0.04,0.04 0.11,0.1 0.16,0.14 0.04,0.05 0.1,0.11 0.14,0.15l0.78 0.84c0.03,0.02 0.11,0.06 0.15,0.08l0.81 0.2c0.05,0.02 0.51,0.23 0.53,0.23 1.02,0.39 0.38,0.28 1.43,0.3zm-5.97 6.13c1.21,-0.27 3.05,-1.36 3.11,-1.37l3.71 -0.12c0.02,0 0.79,0.47 0.84,0.52 1.35,1.26 -0.38,0.49 0.92,1.77 0.03,0.02 0.11,0.06 0.13,0.09 0.02,0.02 0.09,0.06 0.11,0.09l2.16 1.93c1.23,0.63 1.52,0.08 2.43,0.34l1.52 0.71c0.06,0.04 0.25,0.16 0.31,0.19 0.55,0.33 0.84,-0.18 -0.03,0.87l1.91 0.01 -0.27 0.69c-0.69,1.95 -0.27,1.94 0.25,3.32l0.78 0.67c0.02,-0.02 0.1,-0.08 0.12,-0.1l2.69 0.86c-0.03,1.11 -0.32,0.7 -0.2,1.93 0.09,1.08 0.32,1.18 0.18,2.25 -0.1,0.8 0.03,0.02 -0.07,0.76 -0.39,2.94 0.09,2.79 0.11,4.49 0.01,1.76 -0.29,0.33 -0.44,1.69 -0.09,0.88 0.23,0.69 0.4,1.61 -0.2,0.11 -0.46,0.18 -0.63,0.32 -0.81,0.65 -0.04,0.01 -0.63,0.78l-1.47 1.11c0.31,0.31 0.06,0.14 0.51,0.43 0.35,0.23 0.07,0.11 0.61,0.29 -0.2,0.3 -0.21,-0.17 -0.29,0.84 -0.71,-0.26 -0.37,-0.21 -1.38,-0.28 -0.54,1.25 0.13,0.72 -0.73,1.17 -0.81,0.42 -0.41,-0.16 -1.46,0.26 -0.11,0.23 -0.27,0.8 -0.28,0.83 -0.38,0.68 -0.02,0.18 -0.67,0.7 -0.76,0.59 -0.48,0.27 -1.56,0.66 0.08,1.08 0.18,0.76 0.28,1.61 -0.42,-0.21 -1.15,0.19 -1.36,0.33l-0.06 -0.73c-0.01,-0.04 -0.05,-0.15 -0.06,-0.19 -0.01,-0.03 -0.04,-0.13 -0.08,-0.19 -0.76,0.41 -0.55,0.48 -1.16,0.84l-3.14 1.55c-0.99,0.52 -2.17,0.61 -3.11,1.08 -1.09,0.55 -1.07,0.55 -2.22,0.37 -1.27,-0.21 -1.29,-0.6 -2.59,-0.26l-2.16 0.29c-0.43,0.07 -0.12,0.08 -0.63,0.03 -0.07,-0.01 -0.27,-0.06 -0.34,-0.07 -0.04,0 -0.13,-0.02 -0.17,-0.02l-2.01 0.1c-1.41,-0.11 -1.47,-1.37 -2.25,-2.3 -0.44,-0.52 -0.47,-0.04 -1.07,-1.09 -0.74,-1.31 0.66,1.14 -0.07,-0.99 -0.34,-0.74 -1.11,-1.03 -1.51,-1.63 -1.45,-2.15 -0.3,-0.66 -1.21,-2.63 -0.32,-0.69 -0.07,-0.27 -0.56,-0.86l-0.28 -0.3c-0.33,-0.34 -0.13,-0.16 -0.49,-0.46 -2.72,2.45 -1.36,0.8 -1.28,-1.54l-0.14 -2.91c-0.03,-0.59 -0.07,-0.33 -0.3,-0.84 -0.25,-0.57 -0.02,-0.44 0.02,-1.09l-0.21 -1.5c-0.09,-1.02 0.3,-0.06 1.19,-0.63 -0.05,-0.04 -0.14,-0.17 -0.16,-0.13l-0.71 -1.3c-1.73,-0.36 -1.83,0.73 -1.75,-1.65 0.04,-1.12 -0.11,-2.9 0.19,-3.47 0.91,1.16 -0.24,0.65 1.28,0.81 0.04,-0.06 0.09,-0.24 0.11,-0.2 0.02,0.04 0.08,-0.16 0.1,-0.2l0.19 -0.41c0.13,-0.31 0.11,-0.36 0.32,-0.78 0.43,-0.87 0.56,-0.74 1.02,-1.44l0.2 0.81c0.05,-0.05 0.12,-0.21 0.14,-0.16 0.03,0.06 0.22,-0.22 0.29,-0.29 0.3,-0.31 0.13,-0.16 0.4,-0.39 0.48,0.66 0.14,0.62 1.16,0.82 -0.06,-2.02 -1.42,-0.79 0.65,-2.65l0.68 -0.93c0.67,0.24 0.32,0.37 0.77,0.26 0.48,-0.13 0.73,-1.18 0.99,-1.36 1.12,-0.78 -0.37,0.45 0.87,-0.25 0.65,-0.37 1.44,-1.9 1.85,-2.56l0.5 -1.05c0.98,0.11 0.9,1.01 2.16,-0.06l1.16 -1.1c1.04,-2.03 -0.62,0.34 0.09,-1.05 0.93,0.47 -0.3,-0.11 0.65,0.58l0.59 0.36c0.03,0.02 0.09,0.06 0.11,0.08 0.58,0.53 0.09,0.52 0.43,1.43z"/>
  <path class="fil3" d="M153.41 46.39c0.37,1.72 -0.58,3.44 -1.06,5.11 -2.69,9.37 -7.21,25.67 -6.27,34.79 0.22,1.87 -0.32,4.83 -0.13,7.25 0.18,2.23 0.6,4.21 1.16,6.27 1.06,3.86 2.75,7.25 4.49,10.19 2.88,4.88 10.92,13.93 16.34,13.49 0.02,-0.05 0.36,-1.46 0.53,-1.82l3.2 -3.77c0.32,-0.31 0.08,-0.08 0.44,-0.39 0.03,-0.02 0.13,-0.03 0.16,-0.12 0.02,-0.08 0.1,-0.07 0.15,-0.12 4.19,-2.9 3.4,-17.42 2.81,-22.32 -0.9,-7.46 -3.07,-14.41 -5.34,-20.97 -2.83,-8.18 -10.16,-22.99 -15.86,-30.06 -0.98,-1.22 -1.64,-2.74 -3.15,-3.25 0.26,2.18 1.93,3.76 2.53,5.72zm-0.85 -5.98c0.14,0.71 0.86,1.08 1.46,1.58l5.5 5.02c7.56,6.58 17.58,17.37 23.75,25.23l8.62 12.41c1.99,2.96 7.4,11.7 9.07,15.25 0.45,0.97 0.48,1.8 1.45,2.2 0.16,-5.16 -5.29,-14.49 -5.56,-16.32 4.9,-2.45 21.56,-3.61 27.93,-3.47 20.98,0.46 42.08,7.99 58.69,20.03l6.46 5.17c1.07,0.97 1.65,1.26 2.15,2.16 -0.27,0.34 -0.49,-0.12 0.72,1.61 0.5,0.71 0.79,1.09 1.29,1.77 0.94,1.27 2.23,2 2.5,3.87 -4.52,-0.52 -6.57,-1.76 -10.79,0.56 -8.48,4.65 -10.28,18.67 -9.59,28.34 0.62,8.72 3.27,23.15 6.91,31.04 2.68,5.82 4.12,4.23 5.67,7.21 -2.83,-0.18 -15.19,-8.66 -32.72,-2.25 -3.27,1.2 -7.85,3.75 -9.24,4.21 -1.05,-10.74 -1.07,-14.01 -3.99,-24.79 -2.04,-7.52 -4.68,-14.48 -7.95,-20.82 -5.94,-11.5 -15.77,-24.08 -32.06,-25.52 -15.8,-1.39 -28.75,8.34 -35.53,21.87 -5.37,10.73 -7.82,23.75 -6.98,36.17 0.5,7.3 1.51,8.01 2.21,12.55 -5.97,-0.15 -6.39,-1.16 -10.69,-2.86 -0.26,-0.26 0,-0.4 -1.6,-0.8 -0.79,-0.2 -1.19,-0.3 -1.95,-0.52 -5.13,-1.45 -10.24,-1.51 -12.35,-2.3 0.77,-0.63 2.61,-1.47 3.68,-1.51 0.16,0.06 3.08,0.45 3.7,1.47 0.46,0.75 -0.43,-0.3 0.11,0.39l4.33 0.17c0.16,-1.29 0.09,-9.29 0.4,-13.08 1.1,-13.22 2.53,-19.22 6.09,-31.34 0.49,-1.66 0.44,-1.31 1.52,-1.92 0.05,-0.03 0.16,-0.06 0.22,-0.12 -4.04,-3.3 -9.84,-12.68 -12.19,-17.79 -3.29,-7.19 -5.06,-15.88 -5.18,-24.79 -0.12,-9.16 1.36,-18.12 3.34,-26.65 0.9,-3.9 2.06,-8.05 3.23,-11.67 0.96,-2.96 3.48,-8.66 3.79,-11.21 -0.26,-1.56 -0.5,-1.11 -0.6,-2.9l2.5 0.13c0.23,1.32 0.64,1.59 1.68,2.22z"/>
  <path class="fil3" d="M210.34 288.58l0.01 0.31c-0.79,2.42 -1.94,4.54 -2.76,7.15 -0.79,2.52 -1.42,5.35 -2.17,7.88 -1.44,-0.67 -8.87,-5.1 -9.69,-5.92 1.03,-2.31 5.26,-7.26 5.56,-9.96 -1.3,0.31 -1.74,1.09 -2.48,1.98l-5.85 6.84c-1.56,-0.4 -3.89,-2.35 -5.16,-1.84 0.37,1.44 7.32,6.08 8.95,7.2 1.71,1.16 14.15,9.34 15.26,8.74l3.71 -4.31c1.15,-1.44 6.49,-7.76 9.41,-6.55 0.68,0.44 0.62,1.3 0.69,2.6 0.07,1.15 0.11,2.25 0.1,3.4 -1.26,0.52 -2.27,0.81 -2.24,2.14 2.14,0.66 15.49,-4.36 18.18,3.04 -2.67,1.14 -9.8,1.78 -9.88,4.77 2.1,0.64 8.13,-2.49 11.09,-2.3 1.18,2.99 2.32,8.49 -1.46,10.23 -2.96,1.36 -10.19,1.43 -11.2,2.29 0.3,3.2 8.7,0.87 10.73,0.49 -0.54,1.05 -2.02,2.62 -2.78,2.91 -1.69,0.12 -1.62,-0.48 -0.41,-1.16 -1.99,0.02 -3.93,0.8 -5.75,1.3 -9.19,2.5 -34.9,-5.25 -42.12,-8.42 -9.75,-4.29 -20.84,-8.94 -25.17,-18.64 -1.72,-3.85 -2.59,-7.61 -1.91,-12.34 1.63,-2.1 3.72,-4.34 5.48,-6.09 1.02,-1.01 1.92,-1.87 2.98,-2.84 0.86,-0.77 1.92,-2.18 2.97,-2.43 1.38,0.53 2.39,1.2 3.83,1.8 3.49,1.48 9.26,3.46 12.88,4.23 3.09,0.66 6.15,1.37 9.36,1.98 3.23,0.61 6.53,0.81 9.84,1.52zm5.92 -17.78l1.14 0.62c0.38,0.12 0.71,0.12 1.22,0.3 0.16,1.44 -3.26,6.96 -4.13,8.54 -0.68,1.25 -3.54,7.7 -4.15,8.32 -3.31,-0.71 -6.61,-0.91 -9.84,-1.52 -3.21,-0.61 -6.27,-1.32 -9.36,-1.98 -3.62,-0.77 -9.39,-2.75 -12.88,-4.23 -1.44,-0.6 -2.45,-1.27 -3.83,-1.8 0.79,-1.34 1.64,-1.76 2.87,-2.8 2.8,-2.36 7.83,-5.86 12.04,-5.1 5.68,1.04 10.12,10.4 11.28,11.25 0.47,-3.24 -2.72,-9.63 -5.62,-11.89 -4.16,-3.23 3.35,-1.44 3.8,-1.37 1.88,0.32 3.72,0.54 5.61,0.74 3.67,0.39 8.21,0.96 11.85,0.92z"/>
  <path class="fil4" d="M83.11 204.7c-1.87,0.2 -6.26,-0.2 -7.42,1.11 0.29,1.85 1.65,1.36 3.4,1.26 1.69,-0.09 3.4,-0.19 5.1,-0.13 0.8,3.44 2.26,7 3.14,10.72 0.87,3.68 1.69,7.95 2.14,11.73 1.11,9.22 1,17.1 0.88,26.49 -0.77,-0.92 -2,-8.39 -2.4,-10.29 -4.06,-19.3 -10.32,-39.31 -29.48,-47.71 -2.05,-0.9 -6.91,-2.38 -9.4,-2.27l-1.64 0.54 -0.73 0.37c-2.71,0.33 -1.17,0.07 -4.12,1.88 0.98,3.18 9.78,9.81 4.43,15.91 -1.61,1.84 -2.35,0.99 -3.62,2.19 -0.61,0.57 -0.35,0.54 -1.24,0.99 -7.56,3.88 -19.95,-2.03 -24.36,-5.51 -1.91,-10.14 1.18,-20.48 5.89,-27.36 4,-5.86 11.96,-11.82 22.64,-11.58 18.48,0.41 29.97,16.98 36.79,31.66z"/>
  <path class="fil3" d="M200.53 335.57l-0.79 4.37c-2.02,-0.38 -5.3,-1.1 -6.73,0.12 0.64,0.68 0.5,0.4 1.6,0.73 0.51,0.64 0.14,0.27 0.85,0.62 6.54,3.21 7.39,2.95 14.47,8.24l4.77 4.64c3.55,5.01 6.21,9.54 6.41,17.3 0.18,7.06 -2.24,9.97 -3.75,15.05 -2.75,0.97 -8.19,2.26 -11.16,2.65 -4.43,0.57 -8.48,0.33 -12.44,-0.99 -4.5,-1.51 -9.91,-5.26 -12.65,-8.44 -6.25,-7.25 -10.02,-15.23 -7.6,-26.24 1.39,-6.29 6.12,-13.74 9.19,-19.15 2.87,0.13 5.65,0.47 8.87,0.51 2.52,0.03 6.69,0.11 8.96,0.59z"/>
  <path class="fil0" d="M196.78 186.77c0.9,-3.71 -4.34,-4.66 -5.21,-1.59 -1.09,3.91 4.44,4.73 5.21,1.59zm12.11 -30.21c-4.21,-0.89 -7.66,2.28 -8.37,5.7 -0.9,4.38 2.06,8.2 5.45,9.02 9.4,2.25 12.33,-12.73 2.92,-14.72zm-13.08 41.38c-0.91,-0.8 -3.21,-1.34 -5.8,-3.23 -1.1,-0.81 -3.79,-3.39 -4.64,-4.5 -1.17,-1.53 -2.45,-3.57 -3.31,-5.56 -1.09,-2.55 -1.25,-4.74 -2,-7.04 -0.98,-12.87 3.83,-21.3 11.67,-25.82 4.17,-2.4 10.22,-3.32 15.34,-1.81 19.9,5.88 21.61,37.5 4.11,46.44 -7.97,4.07 -12.43,1.31 -15.37,1.52z"/>
  <path class="fil5" d="M273.91 331.27c-0.49,0.8 -0.39,1.33 -0.3,2.43 0.07,0.85 0.17,1.59 0.21,2.46 0.91,0.13 1.51,-0.01 2.09,-0.3 0.26,-1.15 0,-2.01 -0.18,-3.55l-0.23 -1.08 -1.59 0.04zm-6.11 5.6c0.12,-0.89 -0.13,-2.28 -0.23,-3.43 -0.15,-1.73 -0.61,-1.51 -2.18,-1.15 -0.05,0.68 -0.04,1.33 0.05,1.93 0.37,2.56 -0.66,3.34 2.36,2.65zm15.96 -6.29c-0.79,-0.36 -0.74,-0.25 -1.9,-0.19l0.19 2.46c0.09,0.02 0.21,0.03 0.27,0.04 0.06,0 0.18,0.02 0.25,0.03l-0.6 0.08 0.36 2.41 2.03 -0.28 -0.41 -4.14c-0.02,-0.06 -0.08,-0.1 -0.09,-0.21 -0.01,-0.12 -0.07,-0.14 -0.1,-0.2zm-4.3 2.35c-0.06,-0.02 -0.15,-0.06 -0.21,-0.08l-0.82 -0.26c0.6,-1.2 -0.1,-0.01 0.84,-0.55 0.01,-0.01 0.91,0.34 0.48,-0.71 -0.24,-0.6 -3.34,-2.05 -1.56,4.32 0.51,0.04 0.54,0.09 1.08,0.02 1.54,-0.22 0.53,-2.57 0.38,-2.64 -0.05,-0.02 -0.14,-0.08 -0.19,-0.1zm4.25 -32.45c-1.03,-0.18 -1.38,0.01 -2.2,-0.07 -1.09,-0.11 -0.45,-0.13 -1.54,-0.61 -1.76,-0.76 -0.99,-0.45 -1.53,-2.67 -2.39,-0.34 -14.09,1.28 -18,1.59 -4.19,0.34 -2.96,-0.19 -3.32,3.16 -1.88,0.62 -4.48,0.34 -5.86,1.33 -0.7,1.78 0.57,9.77 0.78,12.4 0.18,2.24 0.51,10.29 1.51,11.7l3.62 0.02c1.28,2.23 0.51,0.53 1.28,3.14 2.65,0.15 15.08,-1.32 19.21,-1.77 2.89,-0.31 2.77,-0.6 3.22,-3.37 1.68,-0.4 3.25,-1.01 4.87,-1.5 0.12,-2.45 -1.37,-22.13 -2.04,-23.35zm-36.88 3.26c0.22,-1.71 -0.03,-4.29 -0.16,-6.05 -0.13,-1.88 -0.13,-1.62 -4.51,-1.14 -3.02,0.33 -3.79,-0.3 -3.51,2.8 0.14,1.61 -0.12,4.08 0.94,5.2 1.19,0.27 5.74,-0.37 7.24,-0.81zm7.82 -5.71c2.58,0.2 2.27,-0.29 2.22,-2.53 -0.05,-2.14 0.02,-2.7 -2.48,-2.04l0.26 4.57zm-2.48 -4.18c-2.66,-1.3 -1.93,2.39 -1.76,4.55 1.65,0.02 2.46,0.34 2.37,-1.48 -0.04,-0.65 -0.32,-2.46 -0.61,-3.07zm8.52 0.25c0,-0.98 0.15,-0.38 -0.23,-1.28l-1.91 0.25c-0.05,0.24 -0.61,5.42 1.81,4.55 1.26,-0.44 0.35,-1.01 0.33,-3.52zm6.73 2.54c2.26,0.35 2.78,0.08 1.88,-4.73l-1.92 0.22c-0.57,1.19 -0.07,3.1 0.04,4.51zm5.95 -0.61c0.03,-0.08 0.08,-0.18 0.09,-0.25 0.15,-0.69 0.23,-1.29 -0.04,-3.33 -0.2,-1.49 -1.13,-1.2 -2.05,-0.68 -0.33,1.11 0,2.94 0.19,4.42l1.81 -0.16zm4.33 -0.52c0.32,-1.26 0.04,-3.14 -0.46,-4.4l-1.86 0.12 0.4 4.47c1.02,0.08 1,0.19 1.92,-0.19zm4.95 -7.47c-0.04,2.34 -0.11,3.37 1.85,3.33 1.37,-0.03 2.22,-0.73 3.63,-0.27 2.84,0.93 11.18,-0.81 16.05,-0.93 0.51,0.85 0.53,1.71 0.5,2.85 -1.26,0.68 -2.74,1.04 -4,1.77 -2.47,1.42 -2.33,1.93 -3.51,2.43 -0.23,-1.69 -0.16,-3.68 -0.65,-5.1 -1.03,-0.1 -7.03,0.29 -8.21,0.73 -0.83,0.31 -0.38,0.11 -0.8,0.45 -0.47,1.36 0.59,11.58 1.2,12.68 1.23,0.15 1.91,0 3.05,-0.13 4.41,-0.47 2.24,0.48 1.73,3.34 -0.26,1.41 -0.17,2.92 0.27,4.21 1.31,3.78 2.68,2.16 3.64,5.94l-7.94 1.01c-0.16,0.94 0.36,10.54 0.91,12.16 0.67,1.96 7.71,0.3 9.6,-0.14l-0.77 -9.76c1.36,1.01 1.92,1.81 3.99,2.67 0.98,0.41 4.89,1.22 5.03,1.32 0.63,0.77 0.86,3.69 0.44,4.63 -1.96,1.69 -5.74,-0.31 -6.91,2.63l-0.36 0.29c-0.04,0.03 -0.13,0.09 -0.18,0.12 -0.06,0.02 -0.14,0.06 -0.2,0.08 -0.32,0.1 -0.61,0.08 -0.98,0.1l-6.06 0.65c-2.37,0.24 -5.42,0.65 -7.82,1.04 -4.19,0.69 -8.7,0.54 -12.37,0.89l-12.11 1.48c-3.5,0.46 -2.71,-0.16 -8.32,0.86 -1.45,0.26 -6.57,0.67 -8.12,0.62l-1.69 0.03c-3.5,1.2 -1.84,-0.12 -3.79,2.49 -0.32,-0.51 -0.34,-0.39 -0.46,-1.1 -0.04,-3.74 -0.11,-4.3 -2.33,-6.32 4.96,-2.63 6.6,-6.41 7.9,-7.05 1.91,-0.95 4.96,0.39 5.03,-2.37 0.03,-0.92 -0.43,-5.86 -0.8,-6.27 -0.85,-0.8 -1.66,0.87 -2.11,-0.92 0.48,-0.8 0.43,-0.45 1.9,-0.84l-0.13 -1.61c-1.22,-0.6 -1.09,1.18 -1.72,-1.15 1.02,-1.37 2.21,0.43 1.61,-3.69 -0.66,-4.56 1.06,-5 -3.94,-4.56 -4.36,0.38 -1.18,-1.55 -8.59,-2.57 1.02,-1.07 2.69,-1.86 1.86,-4.55 -0.48,-1.57 -1.97,-2.56 -4.07,-2.46 -4.25,0.2 -4.71,5.74 -1.51,7.11l-3.42 0.5 -0.92 -12.25c1.7,0.79 2.58,1.67 5.04,0.92 1.54,-0.47 2.72,-1.6 3.42,-2.8 1.17,-0.34 2.38,-0.17 3.25,-0.1 1.59,0.13 1.56,-0.11 3.02,-0.18 2.33,-0.11 0.59,0.55 2.22,0.11 2.73,-0.73 1.43,-0.1 2.66,-0.25 0.43,-0.05 0.33,-0.24 1.23,-0.35 0.51,-0.05 0.54,0.02 0.69,0.01 1.26,-0.04 0.28,-0.26 1.48,-0.42l2.38 0.14c0.04,0 0.12,-0.02 0.16,-0.03 3.17,-0.58 1.12,-0.25 3.55,-0.29l2.85 -0.49c0.7,0.1 -0.09,0.29 1.13,0.05l1.14 -0.18c1.46,0.11 0.2,-0.35 1.94,-0.31 1.28,0.02 1,0.03 2.38,-0.11 3.11,-0.32 0.33,-0.59 2.74,-0.65 0.5,-0.01 1,0.13 1.51,0.23 1.4,0.28 0.63,-0.53 2.23,-0.44 2.89,0.16 2.38,0.35 3.17,-0.66 0.06,0.05 0.13,0.12 0.17,0.14l0.35 0.26c0.67,0.42 0.77,0.25 1.25,0.06 0.05,-0.01 0.13,-0.06 0.18,-0.08 0.5,-0.19 0.29,-0.14 0.82,-0.26 1.11,1.23 -0.29,0.47 0.81,1.02 0.25,-0.78 0.31,-0.68 0.62,-1.34 2.03,0.67 0.84,0.36 2.21,1.63z"/>
  <path class="fil3" d="M278.32 38.99l3.61 6.54c1.1,2.08 2.4,4.8 3.3,6.93 6.25,14.94 10.25,36.61 8.85,52.87 -1.16,0.06 -0.65,-0.14 -1.95,-1.39l-6.48 -5.15c-7.42,-5.36 -16.39,-10.3 -25.17,-13.57 -1.65,-0.61 -4.33,-1.13 -5.57,-2.2 1.33,-2.73 3.53,-5.51 5.61,-9.92 1.68,-3.55 3.36,-7.05 4.82,-10.94 1.27,-3.37 7.41,-21.31 6.96,-24.25l-0.06 -0.82c0.4,-0.25 0.4,-0.15 0.41,-0.16l0.25 -0.18c1.89,-1.24 0.35,-0.16 2.79,0.23 0.62,0.1 1.02,0.09 1.58,0.22 0.12,0.27 0.24,0.63 0.4,0.92 0.22,0.41 0.02,0.08 0.35,0.54l0.3 0.33z"/>
  <path class="fil6" d="M201.09 334.27l-0.37 0.77c-0.09,0.2 -0.14,0.45 -0.19,0.53 -2.27,-0.48 -6.44,-0.56 -8.96,-0.59 -3.22,-0.04 -6,-0.38 -8.87,-0.51 -3.07,5.41 -7.8,12.86 -9.19,19.15 -2.42,11.01 1.35,18.99 7.6,26.24 2.74,3.18 8.15,6.93 12.65,8.44 3.96,1.32 8.01,1.56 12.44,0.99 2.97,-0.39 8.41,-1.68 11.16,-2.65 -0.38,0.8 -1.51,2.36 -1.37,2.56 -0.5,0.88 -1.28,1.38 -2.07,1.98 -0.79,0.6 -1.38,1.08 -2.2,1.67 -1.52,1.09 -2.87,1.92 -4.56,2.93 -2.18,1.3 -9.11,4.55 -9.55,5.43 3.46,0.4 6.85,-1.7 8.32,-1.58 0.8,0.07 6.62,2.24 7.11,2.83 -1.25,-0.21 -0.93,-0.07 -2.28,0.41 -6.05,2.18 -13.37,2.75 -19.74,2.07 -5.72,-0.6 -19.99,-3.93 -21.56,-3.99 0.49,2.49 4.92,8.8 6.41,10.57 -2.8,-0.88 -6.27,-2.85 -8.98,-4.18 -2.9,-1.42 -6.49,-3.33 -4.07,-7.76 1.02,-1.87 4.67,-5.49 6.25,-6.77l5.23 -4.73c0.62,-0.47 1.13,-0.66 1.71,-1.26 -0.34,-1.32 -6.28,-5.03 -9.91,-12.16 -6.26,-12.27 -3.22,-22.57 3.44,-33.67 2.78,-4.63 5.56,-9.03 8.48,-13.35l11.1 3.77c1.95,0.57 3.85,1.05 5.92,1.54l4.66 0.91c0.91,0.17 0.72,0.05 1.39,0.41z"/>
  <path class="fil7" d="M20.46 221.82c-0.34,-1.7 -1.02,-3.23 -1.5,-4.88 -0.48,-1.64 -0.73,-3.2 -1.17,-4.96 4.41,3.48 16.8,9.39 24.36,5.51 0.89,-0.45 0.63,-0.42 1.24,-0.99 1.27,-1.2 2.01,-0.35 3.62,-2.19 5.35,-6.1 -3.45,-12.73 -4.43,-15.91 2.95,-1.81 1.41,-1.55 4.12,-1.88 0.33,0.49 3.31,1.15 5.76,2.38 2.33,1.17 3.43,2.06 5.17,3.4 8.45,6.51 15.25,25.66 15.46,35.05 -14.38,4.76 -30.86,1.3 -42.95,-7 -2.65,-1.82 -8.7,-6.47 -9.68,-8.53z"/>
  <path class="fil8" d="M192.8 199.28c0.75,-0.45 0.77,0.05 1.73,-0.35 1.41,-0.57 0.04,-0.45 1.28,-0.99 2.94,-0.21 7.4,2.55 15.37,-1.52 17.5,-8.94 15.79,-40.56 -4.11,-46.44 -5.12,-1.51 -11.17,-0.59 -15.34,1.81 -7.84,4.52 -12.65,12.95 -11.67,25.82 -2.01,-2.36 -2.47,-11.63 -2.37,-15.39 0.18,-6.37 1.61,-8.87 3.53,-14.41 0.29,-1.39 3.58,-4.5 4.83,-5.56 21.33,-18 51.53,5.7 44.13,36.12 -1.29,5.34 -4.18,11.07 -7.05,13.95 -1.1,1.1 -1.58,1.65 -2.62,2.64 -6.73,6.38 -20.69,8.73 -27.71,4.32z"/>
  <path class="fil7" d="M90.35 255.88l-0.35 4.85c-0.21,6.32 -3.08,25.53 -4.06,33.17 -0.79,6.17 -1.92,19.99 -1,26.36 0.29,2.01 1.37,6.03 1.35,7.57l-2.86 -7.72c-0.97,-2.79 -1.72,-5.49 -2.41,-8.41 -5.62,-23.76 -1.62,-39.45 -2.67,-60.47 -0.83,-16.37 -4.44,-37.13 -16.13,-48.26 -2.89,-2.75 -8.43,-7.25 -14.79,-6.82l1.64 -0.54c2.49,-0.11 7.35,1.37 9.4,2.27 19.16,8.4 25.42,28.41 29.48,47.71 0.4,1.9 1.63,9.37 2.4,10.29z"/>
  <path class="fil6" d="M146.08 86.29c-0.94,-9.12 3.58,-25.42 6.27,-34.79 0.48,-1.67 1.43,-3.39 1.06,-5.11 0.9,1.01 2.55,4.56 3.42,6.07 1.13,1.95 2.22,4.08 3.26,6.16 6.42,12.93 12.54,29.39 12.82,44.51l-0.58 -0.52c-0.08,-0.1 -0.31,-0.4 -0.4,-0.53 -1.18,-1.67 -3.21,-5.46 -6.36,-5.39 -4.62,0.1 -1.91,7.15 -2.08,9.67 -1.67,-1.27 -4.61,-1.41 -5.78,0.34 -1.37,2.05 -0.36,4.82 -0.01,6.99 -2.67,-3.1 -5.36,-7.19 -7.28,-11.95 -0.97,-2.41 -1.72,-4.66 -2.27,-7.37 -0.65,-3.15 -0.44,-5.84 -0.91,-8.79 -1.24,0.12 -0.25,-0.18 -1.16,0.71z"/>
  <path class="fil6" d="M298.68 381.49c-0.3,0.4 -0.19,0.32 -0.72,0.78 -0.23,0.19 -0.36,0.27 -0.64,0.47 -1.68,1.2 -9.32,6.03 -9.7,7.12 1.29,0.77 3.83,-0.5 5.12,-0.93 2.17,-0.74 3.56,-0.38 5.92,-0.72 3.81,-0.56 7.81,-1.48 11.61,-1.88l-1.19 1.03c-3.61,4.2 -5.89,6.9 -10.91,10.02 -0.8,0.5 -1.55,1.09 -2.33,1.53 -0.92,0.53 -1.53,0.6 -2.16,1.49 2.38,0.63 20.63,2.53 24.62,3.04 1.2,0.16 7.7,1.26 8.25,0.2 0.63,0.8 1.07,2.15 0.83,3.87 -4.68,0.61 -15.78,-0.64 -20.77,-1.18l-39.91 -4.42c-3.33,-0.41 -6.59,-0.84 -9.82,-1.28 -3.32,-0.45 -5,-2.68 -4.95,-6 5.54,-1.37 12.23,-3.79 16.67,-6.32 2.59,-1.47 4.77,-2.79 6.87,-4.48l5.99 -5.41c0.36,0.28 -0.11,0.02 0.6,0.35l4.3 0.93c4.3,0.63 13.25,0.31 15.11,-1.82 -0.39,0.03 -0.23,0.05 -0.81,0.71 -1.7,1.95 -2.72,2.37 -1.98,2.9z"/>
  <path class="fil8" d="M300.26 191.79c5.2,0.67 8.59,-2.36 11.14,-6.1 4.58,-6.71 4.36,-17.02 1.72,-24.45 -1.16,-3.28 -2.43,-5.24 -4.22,-7.68 -7.8,-10.62 -19.64,-6.86 -22.03,0.16 -0.23,-7.42 5.92,-19.99 17.21,-18.86 16.39,1.65 26.86,29.83 18.39,48.89 -2.87,6.45 -8.46,12.36 -15.81,11.04 -2.2,-0.4 -5.23,-1.77 -6.4,-3z"/>
  <path class="fil2" d="M213.04 402.46c1.9,0.09 8.6,3.18 10.46,4.16 3.01,1.59 6.23,4.01 6.34,8.52 -0.68,-0.32 -7.12,-6.52 -11.49,-4.9 -0.29,2.15 2.13,1.19 6.2,3.91 1.58,1.06 4.35,3.26 4.08,6.15 -2.87,2.87 -7.19,3.18 -12.18,3.28 -0.02,-2.53 -0.61,-4.71 -1.83,-6.41 -0.82,-1.16 -2.91,-3.5 -4.74,-2.95 0.03,1.53 1.32,1.81 2.61,4.26 0.57,1.09 1.72,3.86 0.81,4.98 -1.6,1.66 -9.1,-0.43 -10.89,-1.02 -3.12,-1.02 -6.08,-2.01 -9.1,-3.3 -2.95,-1.26 -15.57,-6.47 -17.44,-7.62 -1.49,-1.77 -5.92,-8.08 -6.41,-10.57 1.57,0.06 15.84,3.39 21.56,3.99 6.37,0.68 13.69,0.11 19.74,-2.07 1.35,-0.48 1.03,-0.62 2.28,-0.41z"/>
  <path class="fil0" d="M192.8 199.28c7.02,4.41 20.98,2.06 27.71,-4.32 1.04,-0.99 1.52,-1.54 2.62,-2.64 2.87,-2.88 5.76,-8.61 7.05,-13.95 7.4,-30.42 -22.8,-54.12 -44.13,-36.12 -1.25,1.06 -4.54,4.17 -4.83,5.56 -1.22,0.87 -3.24,4.68 -3.83,5.97 -1.1,2.38 -1.81,4.52 -2.45,7.2 -2.45,10.33 0.28,22.1 6.72,29.9 2.03,2.46 6.98,7.19 11.14,8.4zm2.77 4.33c-2.44,-1.43 -5.82,-1.56 -10.55,-5.31 -4.88,-3.86 -4.12,-3.8 -7.24,-7.41l-0.5 -0.52c-1.75,-3.69 -3.14,-4.41 -4.9,-10.14 -3.89,-12.6 -1.23,-25.92 5.84,-35.86 13.77,-19.37 44.02,-16.89 53.75,11.42 6.62,19.28 -2.15,43.46 -22.74,48.08 -6.97,1.57 -8.86,0.13 -13.66,-0.26z"/>
  <path class="fil3" d="M304.91 376.14c-0.52,1.32 -1.97,2.07 -2.94,2.93 -0.94,0.83 -2.11,2.03 -3.29,2.42 -0.74,-0.53 0.28,-0.95 1.98,-2.9 0.58,-0.66 0.42,-0.68 0.81,-0.71 -1.86,2.13 -10.81,2.45 -15.11,1.82l-4.3 -0.93c-0.71,-0.33 -0.24,-0.07 -0.6,-0.35 0.21,-0.36 3.03,-3.7 4.48,-6.25 5.3,-9.31 5.75,-15.85 3.85,-26.03 3.54,-0.57 10.4,-0.65 13.45,-1.77 0.66,2.32 2.6,2.8 4.12,7.4 1.11,3.38 1.92,5.9 1.48,9.87 -0.58,5.29 -2.73,10.05 -5.79,14.08 -0.91,1.2 -0.8,0.76 -1.22,1.88 1.31,-0.17 1.9,-0.3 2.72,-1.08 0.62,-0.61 -0.69,0.2 0.36,-0.38z"/>
  <path class="fil0" d="M273.76 223.37c-1.44,0.05 -2.39,1 -3.41,1.79 -1.15,0.88 -2.06,1.43 -3.35,2.18 -2.06,1.21 -4.88,2.75 -7.42,3.39 1.14,12.77 13.53,15.52 19.5,6.2 1.13,-1.76 3.38,-6.27 3.55,-8.6 -3.3,-1.13 -5.82,-3.48 -7.89,-4.3 0.08,2.38 -0.83,6.02 -1.25,8.42 -0.6,3.43 -0.68,7.28 -2.59,6.72 -0.59,-1.14 -0.06,-2.9 0.15,-4.2 0.36,-2.3 1.18,-10.36 2.71,-11.6zm6.98 -31.19l-0.91 0.1c-1.28,-0.88 -3.85,-0.53 -5.55,-0.4 -3.02,0.21 -11.87,1.9 -12.14,4.58 -0.24,2.31 9.96,9.88 14.09,10.21 1.83,0.15 3.42,-1.02 4.52,-1.81 0.79,-0.56 1.13,-0.77 1.65,-1.4 1.97,-2.38 1.82,-1.24 2.95,-2.86 0.79,-1.13 3.48,-4.25 3.03,-5.8 -0.56,-1.94 -5.64,-3.07 -7.64,-2.62zm18.5 27.01c0.04,-0.2 0.21,-0.98 0.27,-1.12 0.35,-0.82 -0.23,-0.16 0.52,-0.7 1.55,1.25 0.25,4.46 -0.42,5.78 -0.37,0.73 -0.97,1.69 -1.4,2.2 -0.4,0.46 -1.25,1.28 -1.69,1.62 -3.43,2.61 -6.33,2.62 -11.06,2.23 -2.14,7.55 -5.12,14.25 -13.69,15.9 -8.35,1.62 -14.3,-6.31 -15.08,-13.58 -7.3,1 -12.24,0.1 -17.82,-2.96 -3.48,-1.9 -6.3,-4.31 -8.57,-7.19 -0.8,-1.01 -1.38,-2.3 -2.2,-3 -1.93,0.89 -4.35,2.72 -6.52,3.08 0.54,-4.1 11.3,-8.34 13.38,-6.73 -0.16,1.47 -3.11,2.14 -4.48,2.39 0.41,1.01 1.41,2.17 2.16,3.03 5.86,6.61 14.87,10.7 24.1,8.55 5.67,-1.32 8.89,-3.87 12.9,-6.46 2.95,-1.91 3.02,-1.48 4.25,-5.43 0.84,-2.73 1.2,-5.11 1.66,-8 -4.99,-0.75 -13.04,-6.91 -14.76,-9.89 -6.28,-10.85 34.72,-13.72 29.45,-1.44 -2.22,5.18 -7.59,9.6 -12.75,11.55 -0.06,2.06 -0.41,4.19 -0.81,6.1 -0.44,2.05 -1.29,3.77 -1.64,5.48 0.88,0.31 2.23,1.43 3.2,2.08 5.25,3.56 13.16,6.72 18.37,1.35 0.56,-0.58 1.55,-2.02 2,-2.99 0.3,-0.65 0.46,-1.11 0.63,-1.85z"/>
  <path class="fil9" d="M281.18 323.18c-0.28,0.58 0.38,0.38 -2.39,0.81l-19.72 1.91c-1.21,-0.04 -0.74,0.14 -1.26,-0.38 -0.35,-0.52 -2.25,-19.84 -1.93,-21.6l23.56 -2.49 1.74 21.75z"/>
  <path class="fil2" d="M338.67 400.67c0.05,0.51 0.05,0.89 0.01,1.46 -3.34,0.64 -5.59,0.78 -9.1,0.97 -1.44,-1.76 -1.44,-2.56 -3.21,-3.88 -1.11,-0.83 -3.32,-2.53 -4.63,-1.27 0.3,1.7 4.31,2.5 4.81,5.69 -0.55,1.06 -7.05,-0.04 -8.25,-0.2 -3.99,-0.51 -22.24,-2.41 -24.62,-3.04 0.63,-0.89 1.24,-0.96 2.16,-1.49 0.78,-0.44 1.53,-1.03 2.33,-1.53 5.02,-3.12 7.3,-5.82 10.91,-10.02l1.19 -1.03c9.01,-2.02 16,-2.25 22.57,4.27 -2.29,-0.09 -6.3,-2.04 -7.96,-0.19 0.41,1.01 0.69,0.85 1.98,1.11 0.89,0.19 1.58,0.35 2.44,0.6 3.88,1.13 9.66,4.18 9.37,8.55z"/>
  <path class="fil6" d="M238.36 329.67c-0.33,0.59 -0.05,0.14 -0.4,0.58l-2.36 1.82c-8.01,4.75 -21.52,3.63 -25.45,-1.41 -16.97,0.34 -43.83,-9.53 -50.48,-22.63 -3.14,-6.18 -1.22,-12.89 3.33,-17.62 -0.68,4.73 0.19,8.49 1.91,12.34 4.33,9.7 15.42,14.35 25.17,18.64 7.22,3.17 32.93,10.92 42.12,8.42 1.82,-0.5 3.76,-1.28 5.75,-1.3 -1.21,0.68 -1.28,1.28 0.41,1.16z"/>
  <path class="fil3" d="M310.19 315.18c-2.22,-1.48 -12.57,2.84 -13.61,-3.47 -0.54,-3.27 1.25,-4.26 3.31,-5.28 1.97,-0.97 4.01,-1.76 6.34,-2.26 6.06,-1.29 -0.1,-2.79 -5.8,-0.8 -0.57,0.19 -2.52,1.21 -2.79,1.06 -1.69,-0.87 1.43,-4.45 2.53,-5.47 1.53,-1.41 3.28,-2.39 5.49,-3.08 4.95,-1.55 10.64,1.7 12.44,4.25 6.15,8.69 3.23,19.76 -5.97,22.41 -4.99,1.44 -11.22,-0.37 -11.88,-4.89 1.65,0.05 9.46,0.04 9.94,-2.47z"/>
  <path class="fil0" d="M279.44 301.43l-23.56 2.49c-0.32,1.76 1.58,21.08 1.93,21.6 0.52,0.52 0.05,0.34 1.26,0.38l19.72 -1.91c2.77,-0.43 2.11,-0.23 2.39,-0.81l-1.74 -21.75zm-16.94 -1.59l-0.05 1.2c1.04,0.04 0.66,0.13 1.45,-0.27 -0.16,-1.13 -0.25,-1.02 -1.4,-0.93zm3.13 0.65c0.62,0.31 0.21,0.55 1.58,0l-0.05 -0.83c-1.07,-0.48 -1.49,-0.52 -1.53,0.83zm4.79 -1.41l-1.53 0.19 0.06 1.12 1.53 -0.18 -0.06 -1.13zm13.29 1.4c0.67,1.22 2.16,20.9 2.04,23.35 -1.62,0.49 -3.19,1.1 -4.87,1.5 -0.45,2.77 -0.33,3.06 -3.22,3.37 -4.13,0.45 -16.56,1.92 -19.21,1.77 -0.77,-2.61 0,-0.91 -1.28,-3.14l-3.62 -0.02c-1,-1.41 -1.33,-9.46 -1.51,-11.7 -0.21,-2.63 -1.48,-10.62 -0.78,-12.4 1.38,-0.99 3.98,-0.71 5.86,-1.33 0.36,-3.35 -0.87,-2.82 3.32,-3.16 3.91,-0.31 15.61,-1.93 18,-1.59 0.54,2.22 -0.23,1.91 1.53,2.67 1.09,0.48 0.45,0.5 1.54,0.61 0.82,0.08 1.17,-0.11 2.2,0.07z"/>
  <path class="fil9" d="M251.17 342.2c-0.8,-0.34 -1.92,-0.14 -2.79,-0.06 0.01,3.15 -0.61,4.51 2.85,3.69 0.12,-0.21 0.18,-0.27 0.27,-0.78l-0.33 -2.85zm-7.81 4.17c3.79,0.46 3.28,-0.87 2.5,-3.86 -0.48,-0.02 -1.28,-0.07 -1.74,-0.01 -1.7,0.22 -1.36,1.98 -0.76,3.87zm10.63 -0.98l2.71 -0.25 -0.75 -3.54 -2.11 0.12 0.15 3.67zm7.73 -4.24c-0.99,-0.3 -1.84,-0.13 -2.67,0.29 -0.31,3.57 0.4,3.59 2.89,2.9l-0.22 -3.19zm5 -0.68l-2.46 0.09c-0.33,3.16 -0.24,4.19 2.78,3.27 0.23,-1.12 0.09,-2.32 -0.32,-3.36zm5.09 -0.59l-2.34 0.11c-0.24,3.07 -0.28,4.24 2.83,3.33 0.06,-0.63 0.09,-1.19 0.04,-1.83 -0.12,-1.44 -0.43,-1.46 -0.53,-1.61zm5.56 -0.71l-2.68 0.3 0.3 3.51c0.97,0.24 1.82,0.25 2.85,-0.44l-0.47 -3.37zm5.67 2.55c-0.06,-2.68 0.07,-3.63 -2.91,-2.77 -0.71,2.73 -0.01,3.48 1.08,3.58 1.96,0.18 1.77,-0.71 1.83,-0.81zm5.25 -0.1c0.14,-1.23 0.04,-2.34 -0.44,-3.38l-2.42 0.24c-0.22,1.27 0.05,2.34 0.24,3.62l2.62 -0.48zm2.55 -0.08c3.26,0.03 3.42,-0.49 2.45,-3.96l-2.64 0.35 0.19 3.61zm5.5 -0.51c4.32,0.33 3.04,-0.84 2.75,-3.97l-3.14 0.17 0.39 3.8zm-57.05 0.38c0.12,0.71 0.14,0.59 0.46,1.1 1.95,-2.61 0.29,-1.29 3.79,-2.49l1.69 -0.03c1.55,0.05 6.67,-0.36 8.12,-0.62 5.61,-1.02 4.82,-0.4 8.32,-0.86l12.11 -1.48c3.67,-0.35 8.18,-0.2 12.37,-0.89 2.4,-0.39 5.45,-0.8 7.82,-1.04l6.06 -0.65c0.37,-0.02 0.66,0 0.98,-0.1 0.06,-0.02 0.14,-0.06 0.2,-0.08 0.05,-0.03 0.14,-0.09 0.18,-0.12l0.36 -0.29 0.17 8.1c-1.78,0.68 -14.78,1.76 -17.83,2.06 -11.49,1.1 -25.04,2.8 -36.08,3.66 -5.69,0.44 -12.55,1.97 -18.59,2.03l-0.61 -6.7c1.14,0.75 2.67,2.91 6.07,2.09 1.12,-0.27 1.99,-0.88 2.61,-1.46 0.79,-0.73 0.81,-1.08 1.31,-1.73 0.28,-0.36 0.18,-0.25 0.49,-0.5z"/>
  <path class="fil0" d="M172.42 117.27c-0.63,-1.9 1.71,-5.23 -0.76,-10.73 -1.08,-2.39 -3.94,-6.96 -6.1,-7.33 -1.8,3.13 2.72,11.07 1.75,13.24 -2.17,0.97 -3.63,-5.24 -7.63,-4.34 -0.76,4.02 1.75,7.65 3.76,10.51 1.32,1.89 3.96,3.62 4.5,4.87 -5.42,0.44 -13.46,-8.61 -16.34,-13.49 -1.74,-2.94 -3.43,-6.33 -4.49,-10.19 -0.56,-2.06 -0.98,-4.04 -1.16,-6.27 -0.19,-2.42 0.35,-5.38 0.13,-7.25 0.91,-0.89 -0.08,-0.59 1.16,-0.71 0.47,2.95 0.26,5.64 0.91,8.79 0.55,2.71 1.3,4.96 2.27,7.37 1.92,4.76 4.61,8.85 7.28,11.95 -0.35,-2.17 -1.36,-4.94 0.01,-6.99 1.17,-1.75 4.11,-1.61 5.78,-0.34 0.17,-2.52 -2.54,-9.57 2.08,-9.67 3.15,-0.07 5.18,3.72 6.36,5.39 0.09,0.13 0.32,0.43 0.4,0.53l0.58 0.52c-0.28,-15.12 -6.4,-31.58 -12.82,-44.51 -1.04,-2.08 -2.13,-4.21 -3.26,-6.16 -0.87,-1.51 -2.52,-5.06 -3.42,-6.07 -0.6,-1.96 -2.27,-3.54 -2.53,-5.72 1.51,0.51 2.17,2.03 3.15,3.25 5.7,7.07 13.03,21.88 15.86,30.06 2.27,6.56 4.44,13.51 5.34,20.97 0.59,4.9 1.38,19.42 -2.81,22.32z"/>
  <path class="fil10" d="M137.42 109.96c-9.27,-5.15 -8.98,-5.85 -20.43,-10.21 -20.7,-7.9 -45.21,-6.25 -65.72,1.22 -2.07,0.76 -3.57,1.38 -5.47,2.31l-3.9 2c-1.81,0.74 -1,0.41 -1.33,-0.16 13.63,-9.43 33.78,-14.82 50.84,-15.04 13.06,-0.17 28.89,3.36 39.87,9.52 2.59,1.45 4.12,1.92 4.5,3.78 0.52,2.53 0.95,4.22 1.64,6.58z"/>
  <path class="fil11" d="M162.16 12.03c-0.52,2.1 -1.58,4.96 -2.32,7.13 -0.82,2.42 -1.56,4.88 -2.4,7.27 -0.8,2.26 -5.08,12.3 -4.88,13.98 -1.04,-0.63 -1.45,-0.9 -1.68,-2.22l-2.5 -0.13c0.1,1.79 0.34,1.34 0.6,2.9l-2.17 0.96c-0.07,0.04 -0.17,0.1 -0.27,0.14 -0.39,-1.18 -2.73,-2.89 -3.63,-3.9 -1.24,-1.41 -2.26,-2.54 -3.49,-3.99 -0.56,-0.66 -1.19,-1.13 -1.81,-1.77l-4.52 -5.15c-0.84,-1.02 -0.43,-0.16 -0.81,-1.44 6.08,1.52 16.49,14.81 13.52,5.05 -2.73,-8.96 -5.29,-14.32 -6.88,-24.49 -0.43,-2.76 -0.09,-1.96 0.17,-2.1 2.92,1.35 7.43,12.86 9.25,15.41 0.1,-1.66 0.5,-2.56 0.55,-4.16 0.05,-1.56 0.01,-3.14 0.07,-4.72 0.08,-2.2 -0.28,-7.32 1.39,-8.35 1.5,0.8 1.27,7.56 1.36,10.01 0.14,3.78 0.29,7.44 0.52,11.21 0.83,-2.7 7.86,-10.73 9.93,-11.64z"/>
  <path class="fil6" d="M155.99 133.07c-0.06,0.06 -0.17,0.09 -0.22,0.12 -1.08,0.61 -1.03,0.26 -1.52,1.92 -3.56,12.12 -4.99,18.12 -6.09,31.34 -0.31,3.79 -0.24,11.79 -0.4,13.08l-4.33 -0.17c-0.54,-0.69 0.35,0.36 -0.11,-0.39 -0.62,-1.02 -3.54,-1.41 -3.7,-1.47 0.89,-1.04 1.31,-0.36 1.8,-1.52 -0.93,-0.83 -2.11,-0.33 -3.57,-0.16 0.75,-8.2 2.13,-17.05 4.24,-24.68 1.5,-5.37 5.35,-17.41 8.02,-20.99 1.71,0.95 3,2.94 5.88,2.92z"/>
  <path class="fil9" d="M244.98 287.19l2.49 -0.17c0.23,-1.2 0.11,-2.14 -0.15,-3.19 -0.51,-0.28 -2.18,-0.76 -2.53,0.4 -0.16,0.51 0.1,2.38 0.19,2.96zm-5.03 0.47l2.67 -0.1 -0.2 -3.4c-1.27,-0.31 -0.64,-0.52 -2.76,-0.05l0.29 3.55zm22.5 -2.11l-0.16 -3.42 -2.38 0.09 0.09 3.51c1.04,0.23 1.51,0.17 2.45,-0.18zm-7.32 0.65l2.47 -0.02 -0.21 -3.48c-1.05,-0.33 -1.6,-0.25 -2.62,0.2 -0.07,1.1 -0.01,2.54 0.36,3.3zm-5.16 0.39l2.58 -0.1 -0.22 -3.51 -2.47 0.19 0.11 3.42zm15.15 -1.29l2.52 -0.3 -0.29 -3.22 -2.48 0.09 0.25 3.43zm12.56 -1.08c0.28,-0.78 0.27,-1.96 0,-2.81 -0.15,-0.49 -0.17,-0.46 -0.34,-0.73l-2.36 0.15 0.27 3.63 2.43 -0.24zm-7.47 0.63c1.16,0.02 1.75,0 2.57,-0.41 0.13,-2.83 0.17,-3.93 -2.81,-2.98l0.24 3.39zm12.44 3.19c-1.37,-1.27 -0.18,-0.96 -2.21,-1.63 -0.31,0.66 -0.37,0.56 -0.62,1.34 -1.1,-0.55 0.3,0.21 -0.81,-1.02 -0.53,0.12 -0.32,0.07 -0.82,0.26 -0.05,0.02 -0.13,0.07 -0.18,0.08 -0.48,0.19 -0.58,0.36 -1.25,-0.06l-0.35 -0.26c-0.04,-0.02 -0.11,-0.09 -0.17,-0.14 -0.79,1.01 -0.28,0.82 -3.17,0.66 -1.6,-0.09 -0.83,0.72 -2.23,0.44 -0.51,-0.1 -1.01,-0.24 -1.51,-0.23 -2.41,0.06 0.37,0.33 -2.74,0.65 -1.38,0.14 -1.1,0.13 -2.38,0.11 -1.74,-0.04 -0.48,0.42 -1.94,0.31l-1.14 0.18c-1.22,0.24 -0.43,0.05 -1.13,-0.05l-2.85 0.49c-2.43,0.04 -0.38,-0.29 -3.55,0.29 -0.04,0.01 -0.12,0.03 -0.16,0.03l-2.38 -0.14c-1.2,0.16 -0.22,0.38 -1.48,0.42 -0.15,0.01 -0.18,-0.06 -0.69,-0.01 -0.9,0.11 -0.8,0.3 -1.23,0.35 -1.23,0.15 0.07,-0.48 -2.66,0.25 -1.63,0.44 0.11,-0.22 -2.22,-0.11 -1.46,0.07 -1.43,0.31 -3.02,0.18 -0.87,-0.07 -2.08,-0.24 -3.25,0.1 0.42,-3.39 0.56,-5.53 -2.04,-6.93 -3,-1.61 -5.72,-0.4 -7.17,1.29l0.16 -1.59c2.39,-1.03 39.22,-3.83 47.39,-4.32l5.27 -0.24c0.2,-0.01 0.63,-0.04 0.82,-0.03 2,0.12 -1.27,-0.22 0.49,0.06 0.07,0.02 0.17,0.05 0.23,0.06 0.06,0.01 0.15,0.04 0.22,0.07l0.77 9.14z"/>
  <path class="fil7" d="M286.92 357.11c-0.22,-1.04 0.14,-1.74 0.14,-2.94 0,-0.96 -0.21,-1.98 -0.31,-2.95 -2.09,0.86 -11.17,1.78 -14.21,2.27 -4.75,0.77 -9.51,1.46 -14.33,2.06 -5.01,0.63 -10.12,1.15 -15.14,1.48 -4.24,0.29 -7.7,0.86 -9.49,-2.53 -1.3,-2.46 -0.56,-1.82 0.1,-2.08l-1.89 -0.07c0.98,-0.68 40.63,-4.5 48.14,-5.22l5.95 -0.53c0.81,0.15 0.02,-0.17 0.52,0.23 0.85,1.2 1.31,9.1 0.52,10.28zm-135.08 -174.48c-2.64,-0.23 -4.61,3.57 -5.47,5.7 -1.13,2.83 -1.75,5.96 -1.9,9.2 -1.64,9.94 4.57,19.32 8.71,24.61 1.4,1.78 2.47,2.91 4.05,4.51 3.35,3.39 4.7,4.74 8.67,7.92 1.4,1.12 3.56,2.26 4.83,3.42 8.07,4.71 5.93,4.13 16.28,8.97 29.47,13.75 76.92,15.47 108.47,7.78 6.85,-1.67 12.68,-3.95 18.99,-6.19 2.97,-1.05 5.57,-2.66 8.37,-4.12 1.47,-0.77 2.63,-1.51 3.95,-2.41l3.87 -2.31c-1.72,3.11 -14.08,10.47 -17.84,12.42 -15.47,8.03 -28.23,11.77 -45.45,15.41 -6.04,1.28 -13.17,2.54 -19.38,3.32 -1.38,0.17 -5.99,0.22 -6.6,1.13 1.86,0.81 12.79,0.02 15.76,0.09 1.84,2.42 2.06,2.77 2.15,5.39l-21.55 1.88c-2.34,0.19 -8.74,0.51 -10.58,1.12 -3.52,1.15 -2.54,5.75 -2.15,9.43 -0.78,-0.73 -0.21,-0.46 -1.61,-0.47l-5.6 -0.17c-2.09,-0.13 -5.58,-0.77 -7.46,-0.37l-0.01 -0.31c0.61,-0.62 3.47,-7.07 4.15,-8.32 0.87,-1.58 4.29,-7.1 4.13,-8.54 -0.51,-0.18 -0.84,-0.18 -1.22,-0.3l-1.14 -0.62c-0.82,-1.09 -4.74,-1.18 -6.27,-1.44 -2.29,-0.41 -4.41,-0.92 -6.67,-1.37 -2.04,-0.41 -4.38,-0.78 -6.17,-1.56 -1.82,-0.78 -4.1,-1.23 -6.18,-1.86 -16.04,-4.87 -29.98,-10.15 -43.23,-19.84l-6.53 -5.11c-1.73,-1.41 -8.86,-8.68 -9.5,-10.79 3.35,-2.18 8.58,-0.99 8.42,-4.25 -1.98,-0.95 -7.61,1.61 -10.16,1.93 -1.21,-1.66 -3.44,-7.1 -2.81,-9.2 0.22,-0.74 1.02,-1.24 1.04,-2.06 0.05,-1.78 0.44,1.37 -0.15,-0.64 -0.46,-1.59 -5.31,2.51 -6.96,2.54 -0.6,-2.8 -0.21,-6.78 0.4,-9.72 1.83,-0.5 10.52,0.57 13.65,0.61 2.09,0.03 0.68,-0.38 2.82,-0.39 0.78,-0.01 0.14,0.29 1,-0.12 -0.2,-0.99 -0.03,-0.69 -1.12,-0.92 -3.53,-0.76 -2.23,-0.68 -6.58,-1.06 -2.99,-0.27 -6.11,-0.56 -9.08,-0.59 1.45,-7.58 7.38,-10.73 6.01,-12.37 -1.33,-0.84 -4.79,-0.25 -6.53,-0.41 -0.31,-1.87 3.69,-5.84 4.62,-6.5 2.51,0.6 8.68,3.91 11.57,5.29 1.23,0.59 2.85,1.9 4.2,1.06 2.13,-2.29 -10.92,-5.95 -13.54,-8.3 0.79,-0.99 5.76,-4.24 7.43,-4.72 2.11,0.79 7.22,0.85 12.35,2.3 0.76,0.22 1.16,0.32 1.95,0.52 1.6,0.4 1.34,0.54 1.6,0.8zm73.18 107.27l0.63 7.26c-4.31,-0.72 -6.55,1.81 -8.55,3.68 -1.36,1.28 -5.31,5.97 -6.18,6.5 -1.37,-1.07 -4,-2.45 -5.5,-3.42 0.75,-2.53 1.38,-5.36 2.17,-7.88 0.82,-2.61 1.97,-4.73 2.76,-7.15 1.88,-0.4 5.37,0.24 7.46,0.37l5.6 0.17c1.4,0.01 0.83,-0.26 1.61,0.47zm6.77 62.45l1.89 0.07c-0.66,0.26 -1.4,-0.38 -0.1,2.08 1.79,3.39 5.25,2.82 9.49,2.53 5.02,-0.33 10.13,-0.85 15.14,-1.48 4.82,-0.6 9.58,-1.29 14.33,-2.06 3.04,-0.49 12.12,-1.41 14.21,-2.27 0.1,0.97 0.31,1.99 0.31,2.95 0,1.2 -0.36,1.9 -0.14,2.94 0.37,3.39 -1.82,8.53 -3.16,11.22 -1.23,2.49 -4.56,7.2 -6.02,8.22l-11.79 4.13c-11.32,3.5 -25.85,5.12 -37.84,5.55l-3.06 0.12c-0.99,-0.2 -0.35,0.24 -0.93,-0.46 6.31,-9.6 7.03,-20.88 0.45,-30.69 -2.56,-3.83 -6.18,-7.22 -10.4,-9.8 -3.19,-1.95 -10.1,-5.14 -14.43,-5.46l0.79 -4.37c0.05,-0.08 0.1,-0.33 0.19,-0.53l0.37 -0.77c2.1,-0.02 4.85,0.19 7.1,0.26 3.41,0.09 3.55,4.12 17.65,3.9 0.15,3.02 0.56,6.11 0.83,9.13 0.43,4.67 1.01,4.33 5.12,4.79zm-7.67 33.54c0.58,0.7 -0.06,0.26 0.93,0.46l3.06 -0.12c11.99,-0.43 26.52,-2.05 37.84,-5.55l11.79 -4.13c-0.6,1.22 -1.6,1.72 -2.71,2.7 -1.02,0.9 -1.72,1.44 -2.81,2.17 -6.52,4.34 -12.76,7.13 -20.81,9.06 -8.45,2.02 -27.68,5.2 -35.67,4.01 2.84,-2.99 3.65,-2.19 8.38,-8.6z"/>
  <path class="fil11" d="M274.42 24.22c0.51,0.42 0.67,0.76 1.07,1.41 0.01,0.02 0.42,0.67 0.43,0.69 0.9,0.87 -0.23,0.41 1.15,0.59 -0.03,1.02 -0.14,1.23 -0.4,2.14 -1.1,3.88 1.13,3.57 1.96,1.87 0.9,-1.85 1.15,-3.35 1.66,-5.19 0.01,-0.02 0.28,-0.78 0.3,-0.81 0.37,-0.65 0.21,-0.4 0.68,-0.83l0.04 0.98c1.24,-1.35 3.4,-2.54 4.92,-3.55 0.12,0.69 0.14,1.02 0.21,1.76 0.01,0.13 0.06,0.68 0.08,0.77l0.23 0.61c0.01,0.05 0.06,0.13 0.1,0.18 -0.12,1.13 -0.25,1.12 -0.83,2.05 -0.43,0.7 -0.61,1.01 -1.02,1.75 -0.94,1.72 -4.32,7.23 -5.67,8.5 -0.56,0.52 -1.1,0.78 -1.01,1.85l-0.3 -0.33c-0.33,-0.46 -0.13,-0.13 -0.35,-0.54 -0.16,-0.29 -0.28,-0.65 -0.4,-0.92 -0.56,-0.13 -0.96,-0.12 -1.58,-0.22 -2.44,-0.39 -0.9,-1.47 -2.79,-0.23l-0.25 0.18c-0.01,0.01 -0.01,-0.09 -0.41,0.16l0.06 0.82c-0.85,-0.69 -0.13,-0.12 -0.77,-1.23l-2.04 0.37c-0.85,-1.98 -2.77,-5.06 -3.96,-6.96 -1.4,-2.24 -2.8,-4.35 -4.24,-6.56 -1.27,-1.97 -7.34,-12.36 -7.74,-14.07 6.34,3.26 13.33,14.35 15.48,16.35 -0.95,-7.82 -3.81,-15.21 -4.53,-23.11 1.01,0.98 2.75,5.91 3.28,7.2 2.41,5.87 5.32,22.24 6.49,23.33 2.74,-0.15 -0.07,-7.05 0.15,-9.01z"/>
  <path class="fil8" d="M273.76 223.37c-1.53,1.24 -2.35,9.3 -2.71,11.6 -0.21,1.3 -0.74,3.06 -0.15,4.2 1.91,0.56 1.99,-3.29 2.59,-6.72 0.42,-2.4 1.33,-6.04 1.25,-8.42 2.07,0.82 4.59,3.17 7.89,4.3 -0.17,2.33 -2.42,6.84 -3.55,8.6 -5.97,9.32 -18.36,6.57 -19.5,-6.2 2.54,-0.64 5.36,-2.18 7.42,-3.39 1.29,-0.75 2.2,-1.3 3.35,-2.18 1.02,-0.79 1.97,-1.74 3.41,-1.79z"/>
  <path class="fil11" d="M280.74 192.18c2,-0.45 7.08,0.68 7.64,2.62 0.45,1.55 -2.24,4.67 -3.03,5.8 -1.13,1.62 -0.98,0.48 -2.95,2.86 -0.52,0.63 -0.86,0.84 -1.65,1.4 -1.1,0.79 -2.69,1.96 -4.52,1.81 -4.13,-0.33 -14.33,-7.9 -14.09,-10.21 0.27,-2.68 9.12,-4.37 12.14,-4.58 1.7,-0.13 4.27,-0.48 5.55,0.4 -0.91,-0.03 -2.45,-0.13 -3.32,0.01 -1.44,0.23 -1.26,0.54 -1.17,2.01 1.7,0.37 7.8,0.69 8.97,-0.61 -0.2,-0.45 0.06,-0.62 -1.62,-0.97 -0.83,-0.17 -1.34,-0.13 -1.95,-0.54z"/>
  <polygon class="fil12" points="305.47,287.82 290.08,289.39 288.84,275.53 304.47,274.1 "/>
  <path class="fil13" d="M180.06 177.61c0.75,2.3 0.91,4.49 2,7.04 0.86,1.99 2.14,4.03 3.31,5.56 0.85,1.11 3.54,3.69 4.64,4.5 2.59,1.89 4.89,2.43 5.8,3.23 -1.24,0.54 0.13,0.42 -1.28,0.99 -0.96,0.4 -0.98,-0.1 -1.73,0.35 -4.16,-1.21 -9.11,-5.94 -11.14,-8.4 -6.44,-7.8 -9.17,-19.57 -6.72,-29.9 0.64,-2.68 1.35,-4.82 2.45,-7.2 0.59,-1.29 2.61,-5.1 3.83,-5.97 -1.92,5.54 -3.35,8.04 -3.53,14.41 -0.1,3.76 0.36,13.03 2.37,15.39z"/>
  <path class="fil10" d="M215.99 389.2c-0.14,-0.2 0.99,-1.76 1.37,-2.56 1.51,-5.08 3.93,-7.99 3.75,-15.05 -0.2,-7.76 -2.86,-12.29 -6.41,-17.3l-4.77 -4.64c-7.08,-5.29 -7.93,-5.03 -14.47,-8.24 -0.71,-0.35 -0.34,0.02 -0.85,-0.62 17.95,4.21 34.38,16.92 30,35.08 -1.16,4.79 -5.37,11.4 -8.62,13.33z"/>
  <path class="fil8" d="M208.89 156.56c9.41,1.99 6.48,16.97 -2.92,14.72 -3.39,-0.82 -6.35,-4.64 -5.45,-9.02 0.71,-3.42 4.16,-6.59 8.37,-5.7z"/>
  <path class="fil7" d="M172.42 117.27c-0.05,0.05 -0.13,0.04 -0.15,0.12 -0.03,0.09 -0.13,0.1 -0.16,0.12 -0.36,0.31 -0.12,0.08 -0.44,0.39l-3.2 3.77c-0.17,0.36 -0.51,1.77 -0.53,1.82 -0.54,-1.25 -3.18,-2.98 -4.5,-4.87 -2.01,-2.86 -4.52,-6.49 -3.76,-10.51 4,-0.9 5.46,5.31 7.63,4.34 0.97,-2.17 -3.55,-10.11 -1.75,-13.24 2.16,0.37 5.02,4.94 6.1,7.33 2.47,5.5 0.13,8.83 0.76,10.73z"/>
  <path class="fil8" d="M296.74 154.27c3.4,0.72 5.9,4.01 5.26,8.16 -0.51,3.38 -3.61,6.42 -7.61,5.59 -8.38,-1.74 -5.9,-15.5 2.35,-13.75z"/>
  <path class="fil10" d="M304.91 376.14c-1.05,0.58 0.26,-0.23 -0.36,0.38 -0.82,0.78 -1.41,0.91 -2.72,1.08 0.42,-1.12 0.31,-0.68 1.22,-1.88 3.06,-4.03 5.21,-8.79 5.79,-14.08 0.44,-3.97 -0.37,-6.49 -1.48,-9.87 -1.52,-4.6 -3.46,-5.08 -4.12,-7.4 1.73,-1 0.87,-1.2 1.5,-2.51 4.21,3.09 8.18,10.63 8.35,17.01 0.18,6.66 -3.96,14.83 -8.18,17.27z"/>
  <path class="fil0" d="M274.42 24.22c-0.22,1.96 2.59,8.86 -0.15,9.01 -1.17,-1.09 -4.08,-17.46 -6.49,-23.33 -0.53,-1.29 -2.27,-6.22 -3.28,-7.2 -0.26,-1.18 -0.41,-1.37 -0.17,-2.68 1.94,-0.28 3.04,2.47 3.97,4.62 0.89,2.04 1.69,4.1 2.4,6.17 0.99,2.86 3.75,10.62 3.72,13.41z"/>
  <path class="fil8" d="M168.49 334.37c-0.33,-0.97 -1.22,-2.38 -1.78,-3.49 -1.71,-3.41 -3.21,-8.55 -3.34,-12.36 1.14,0.51 3.92,2.97 5.37,3.98 1.24,0.86 4.87,2.53 5.66,3.45 -0.61,1.2 -4.93,7.87 -5.91,8.42z"/>
  <path class="fil4" d="M337.62 221.51l2.81 0.08c1.6,-2.4 2.8,-9.75 2.38,-12.94 -0.13,-0.98 -0.14,-0.63 -0.74,-1.44l5.35 -0.95c0.12,5.96 -0.83,12.2 -3.42,16.67l-6.38 -1.42z"/>
  <path class="fil0" d="M281.27 24.09c-0.47,0.43 -0.31,0.18 -0.68,0.83 -0.02,0.03 -0.29,0.79 -0.3,0.81 -0.51,1.84 -0.76,3.34 -1.66,5.19 -0.83,1.7 -3.06,2.01 -1.96,-1.87 0.26,-0.91 0.37,-1.12 0.4,-2.14l5.28 -17.74c0.43,-1.12 0.44,-1.47 1.63,-1.62 1.25,1.93 -0.33,5.77 -0.89,8.15 -0.65,2.69 -1.19,5.63 -1.82,8.39z"/>
  <path class="fil4" d="M342.49 204.62l-0.78 -0.22c0.37,-0.51 0.13,0.24 0.25,-0.78 0.12,-1.09 -0.73,-3.89 -1.09,-4.86 -1.31,-3.51 -0.75,-2.19 -2.59,-4.55 1.41,-0.72 2.67,-1.9 4.09,-2.39 1.4,1.27 5.17,9.72 4.55,12.21l-4.43 0.59z"/>
  <path class="fil0" d="M240.37 298.43l0.04 1.38 4.25 -0.44 0.39 -1.09c-0.43,-0.3 0.04,-0.16 -0.66,-0.29 -0.17,-0.03 -0.33,-0.02 -0.52,-0.02l-3.5 0.46zm6.46 5.31c-1.5,0.44 -6.05,1.08 -7.24,0.81 -1.06,-1.12 -0.8,-3.59 -0.94,-5.2 -0.28,-3.1 0.49,-2.47 3.51,-2.8 4.38,-0.48 4.38,-0.74 4.51,1.14 0.13,1.76 0.38,4.34 0.16,6.05z"/>
  <path class="fil14" d="M291.87 329.48c-0.63,-8.03 -1.67,-7.39 1.23,-7.67 1.3,-0.12 2.57,-0.35 3.87,-0.33 0.18,2.01 1.22,7.76 0.67,9.27l-5.35 0.62 -0.42 -1.89z"/>
  <path class="fil14" d="M290.16 304.01c-0.16,-1.61 -0.3,-3.22 -0.45,-4.84 -0.08,-0.84 -0.15,-1.68 -0.24,-2.53l0.09 -2.06 5.52 -0.57c0.04,1.23 0.38,4.38 0.24,5.35 -0.08,0.59 -1.18,3.67 -1.5,4.07 -0.7,0.5 -2.58,0.51 -3.66,0.58z"/>
  <path class="fil8" d="M184.95 267.11c-0.02,-0.07 -0.11,-0.08 -0.13,0.01 -0.03,0.09 -0.14,0.1 -0.18,0.12 -0.03,0.03 -0.12,0.09 -0.17,0.12 -0.05,0.03 -0.13,0.07 -0.19,0.1 -3.21,1.69 -4.36,1.68 -8.39,4.9 -0.94,0.76 -1.82,1.62 -2.85,2.17l2.49 -10.56 9.42 3.14z"/>
  <path class="fil7" d="M237.36 340.33c-0.69,4.46 -7.66,3.94 -7.32,-0.82 0.12,-1.83 3.73,-2.89 4.25,-2.95 2,-0.24 3.39,1.66 3.07,3.77z"/>
  <path class="fil12" d="M287.79 288.81l-2.8 0.34c-0.36,-2.88 -1.22,-10.49 -0.95,-12.94l2.67 -0.37 1.08 12.97z"/>
  <path class="fil7" d="M232.78 284.91c4.57,1.67 1.56,7.78 -2.24,6.49 -1.52,-0.51 -2.73,-2.32 -2.11,-4.38 0.47,-1.57 2.55,-2.77 4.35,-2.11z"/>
  <path class="fil6" d="M329.58 403.1c3.51,-0.19 5.76,-0.33 9.1,-0.97 0.04,-0.57 0.04,-0.95 -0.01,-1.46l0.29 0.61c1,3.9 -6.15,5.68 -8.76,5.77 0.03,-1.83 -0.13,-2.35 -0.62,-3.95z"/>
  <path class="fil8" d="M196.78 186.77c-0.77,3.14 -6.3,2.32 -5.21,-1.59 0.87,-3.07 6.11,-2.12 5.21,1.59z"/>
  <path class="fil7" d="M279.83 192.28l0.91 -0.1c0.61,0.41 1.12,0.37 1.95,0.54 1.68,0.35 1.42,0.52 1.62,0.97 -1.17,1.3 -7.27,0.98 -8.97,0.61 -0.09,-1.47 -0.27,-1.78 1.17,-2.01 0.87,-0.14 2.41,-0.04 3.32,-0.01z"/>
  <path class="fil8" d="M307.22 178.41c2.55,1.17 0.87,5.4 -2.04,4.08 -2.47,-1.12 -0.68,-5.33 2.04,-4.08z"/>
  <path class="fil13" d="M236.44 301.32c-0.27,0.92 -1.5,1.71 -2.69,1.49 -1.06,-0.2 -2.09,-1.13 -1.83,-2.54 0.48,-2.57 5.44,-2.17 4.52,1.05z"/>
  <path class="fil0" d="M296.34 341.03l-0.39 -3.8 3.14 -0.17c0.29,3.13 1.57,4.3 -2.75,3.97z"/>
  <path class="fil0" d="M243.36 346.37c-0.6,-1.89 -0.94,-3.65 0.76,-3.87 0.46,-0.06 1.26,-0.01 1.74,0.01 0.78,2.99 1.29,4.32 -2.5,3.86z"/>
  <path class="fil0" d="M251.5 345.05c-0.09,0.51 -0.15,0.57 -0.27,0.78 -3.46,0.82 -2.84,-0.54 -2.85,-3.69 0.87,-0.08 1.99,-0.28 2.79,0.06l0.33 2.85z"/>
  <path class="fil0" d="M283.04 341.72c-0.06,0.1 0.13,0.99 -1.83,0.81 -1.09,-0.1 -1.79,-0.85 -1.08,-3.58 2.98,-0.86 2.85,0.09 2.91,2.77z"/>
  <path class="fil7" d="M254.65 298.03l-0.26 -4.57c2.5,-0.66 2.43,-0.1 2.48,2.04 0.05,2.24 0.36,2.73 -2.22,2.53z"/>
  <path class="fil7" d="M267.42 296.64c-0.11,-1.41 -0.61,-3.32 -0.04,-4.51l1.92 -0.22c0.9,4.81 0.38,5.08 -1.88,4.73z"/>
  <path class="fil7" d="M252.17 293.85c0.29,0.61 0.57,2.42 0.61,3.07 0.09,1.82 -0.72,1.5 -2.37,1.48 -0.17,-2.16 -0.9,-5.85 1.76,-4.55z"/>
  <path class="fil0" d="M290.84 341.54l-0.19 -3.61 2.64 -0.35c0.97,3.47 0.81,3.99 -2.45,3.96z"/>
  <path class="fil7" d="M267.8 336.87c-3.02,0.69 -1.99,-0.09 -2.36,-2.65 -0.09,-0.6 -0.1,-1.25 -0.05,-1.93 1.57,-0.36 2.03,-0.58 2.18,1.15 0.1,1.15 0.35,2.54 0.23,3.43z"/>
  <path class="fil7" d="M275.5 331.23l0.23 1.08c0.18,1.54 0.44,2.4 0.18,3.55 -0.58,0.29 -1.18,0.43 -2.09,0.3 -0.04,-0.87 -0.14,-1.61 -0.21,-2.46 -0.09,-1.1 -0.19,-1.63 0.3,-2.43l1.59 -0.04z"/>
  <path class="fil0" d="M277.84 342.54c-1.03,0.69 -1.88,0.68 -2.85,0.44l-0.3 -3.51 2.68 -0.3 0.47 3.37z"/>
  <path class="fil7" d="M258.55 293.07l1.91 -0.25c0.38,0.9 0.23,0.3 0.23,1.28 0.02,2.51 0.93,3.08 -0.33,3.52 -2.42,0.87 -1.86,-4.31 -1.81,-4.55z"/>
  <path class="fil0" d="M271.81 339.88c0.1,0.15 0.41,0.17 0.53,1.61 0.05,0.64 0.02,1.2 -0.04,1.83 -3.11,0.91 -3.07,-0.26 -2.83,-3.33l2.34 -0.11z"/>
  <path class="fil7" d="M283.76 330.58c0.03,0.06 0.09,0.08 0.1,0.2 0.01,0.11 0.07,0.15 0.09,0.21l0.41 4.14 -2.03 0.28 -0.36 -2.41 0.6 -0.08c-0.07,-0.01 -0.19,-0.03 -0.25,-0.03 -0.06,-0.01 -0.18,-0.02 -0.27,-0.04l-0.19 -2.46c1.16,-0.06 1.11,-0.17 1.9,0.19z"/>
  <path class="fil0" d="M266.72 340.47c0.41,1.04 0.55,2.24 0.32,3.36 -3.02,0.92 -3.11,-0.11 -2.78,-3.27l2.46 -0.09z"/>
  <path class="fil7" d="M273.37 296.03l-1.81 0.16c-0.19,-1.48 -0.52,-3.31 -0.19,-4.42 0.92,-0.52 1.85,-0.81 2.05,0.68 0.27,2.04 0.19,2.64 0.04,3.33 -0.01,0.07 -0.06,0.17 -0.09,0.25z"/>
  <path class="fil0" d="M239.66 284.11c2.12,-0.47 1.49,-0.26 2.76,0.05l0.2 3.4 -2.67 0.1 -0.29 -3.55z"/>
  <path class="fil0" d="M288.29 341.62l-2.62 0.48c-0.19,-1.28 -0.46,-2.35 -0.24,-3.62l2.42 -0.24c0.48,1.04 0.58,2.15 0.44,3.38z"/>
  <path class="fil0" d="M261.94 344.34c-2.49,0.69 -3.2,0.67 -2.89,-2.9 0.83,-0.42 1.68,-0.59 2.67,-0.29l0.22 3.19z"/>
  <path class="fil7" d="M277.7 295.51c-0.92,0.38 -0.9,0.27 -1.92,0.19l-0.4 -4.47 1.86 -0.12c0.5,1.26 0.78,3.14 0.46,4.4z"/>
  <path class="fil0" d="M255.13 286.2c-0.37,-0.76 -0.43,-2.2 -0.36,-3.3 1.02,-0.45 1.57,-0.53 2.62,-0.2l0.21 3.48 -2.47 0.02z"/>
  <path class="fil0" d="M277.68 284.22l-2.43 0.24 -0.27 -3.63 2.36 -0.15c0.17,0.27 0.19,0.24 0.34,0.73 0.27,0.85 0.28,2.03 0,2.81z"/>
  <path class="fil0" d="M269.97 281.46c2.98,-0.95 2.94,0.15 2.81,2.98 -0.82,0.41 -1.41,0.43 -2.57,0.41l-0.24 -3.39z"/>
  <path class="fil0" d="M244.98 287.19c-0.09,-0.58 -0.35,-2.45 -0.19,-2.96 0.35,-1.16 2.02,-0.68 2.53,-0.4 0.26,1.05 0.38,1.99 0.15,3.19l-2.49 0.17z"/>
  <path class="fil14" d="M278.43 332.59l0.82 0.26c0.06,0.02 0.15,0.06 0.21,0.08 0.05,0.02 0.14,0.08 0.19,0.1 0.15,0.07 1.16,2.42 -0.38,2.64 -0.54,0.07 -0.57,0.02 -1.08,-0.02 -1.78,-6.37 1.32,-4.92 1.56,-4.32 0.43,1.05 -0.47,0.7 -0.48,0.71 -0.94,0.54 -0.24,-0.65 -0.84,0.55z"/>
  <polygon class="fil0" points="249.86,283.17 252.33,282.98 252.55,286.49 249.97,286.59 "/>
  <polygon class="fil0" points="253.84,341.72 255.95,341.6 256.7,345.14 253.99,345.39 "/>
  <path class="fil0" d="M262.45 285.55c-0.94,0.35 -1.41,0.41 -2.45,0.18l-0.09 -3.51 2.38 -0.09 0.16 3.42z"/>
  <polygon class="fil0" points="264.87,281.87 267.35,281.78 267.64,285 265.12,285.3 "/>
  <path class="fil13" d="M245.05 298.28l-0.39 1.09 -4.25 0.44 -0.04 -1.38 3.5 -0.46c0.19,0 0.35,-0.01 0.52,0.02 0.7,0.13 0.23,-0.01 0.66,0.29z"/>
  <polygon class="fil13" points="244.22,308.22 246.78,307.99 246.88,309.34 245,309.6 "/>
  <path class="fil8" d="M245.34 325.95c0.4,-1.52 1.16,-1.41 2.86,-1.31l-0.06 1.16 -2.8 0.15z"/>
  <path class="fil13" d="M267.16 299.66l0.05 0.83c-1.37,0.55 -0.96,0.31 -1.58,0 0.04,-1.35 0.46,-1.31 1.53,-0.83z"/>
  <polygon class="fil13" points="270.48,300.21 268.95,300.39 268.89,299.27 270.42,299.08 "/>
  <path class="fil8" d="M246.72 322.09c0.03,-1.13 0.64,-0.81 1.02,-0.86 0.28,0.58 0.47,0.55 0,1.51l-0.83 0.02c-0.06,-0.17 -0.2,-0.17 -0.19,-0.67z"/>
  <path class="fil13" d="M263.9 300.77c-0.79,0.4 -0.41,0.31 -1.45,0.27l0.05 -1.2c1.15,-0.09 1.24,-0.2 1.4,0.93z"/>
 </g>
</svg>
