<?xml version="1.0" encoding="UTF-8"?>
<!DOCTYPE svg PUBLIC "-//W3C//DTD SVG 1.1//EN" "http://www.w3.org/Graphics/SVG/1.1/DTD/svg11.dtd">
<!-- Creator: CorelDRAW -->
<svg xmlns="http://www.w3.org/2000/svg" xml:space="preserve" width="299px" height="246px" version="1.1" style="shape-rendering:geometricPrecision; text-rendering:geometricPrecision; image-rendering:optimizeQuality; fill-rule:evenodd; clip-rule:evenodd"
viewBox="0 0 61.21 50.39"
 xmlns:xlink="http://www.w3.org/1999/xlink"
 xmlns:xodm="http://www.corel.com/coreldraw/odm/2003">
 <defs>
  <style type="text/css">
   <![CDATA[
    .fil0 {fill:#211C57}
    .fil6 {fill:#2D506F}
    .fil2 {fill:#5AB5AB}
    .fil1 {fill:#5C739C}
    .fil3 {fill:#9CDFD4}
    .fil5 {fill:#AAA8C5}
    .fil4 {fill:#FEFEFE}
   ]]>
  </style>
 </defs>
 <g id="Layer_x0020_1">
  <metadata id="CorelCorpID_0Corel-Layer"/>
  <g id="_2316002413936">
   <path class="fil0" d="M36.07 28.18c0,0.04 0.05,0.35 0.04,0.4 -0.1,0.52 -0.1,0.37 -0.18,0.55l-0.75 0.07c-4.12,1.88 -3.35,1.15 -3.93,2.58 0.12,0.43 0.2,0.35 -0.26,0.25l-0.76 -0.01c-0.45,0.1 -0.38,0.19 -0.26,-0.24 -0.03,-0.06 -0.07,-0.22 -0.09,-0.19 -0.01,0.04 -0.06,-0.14 -0.08,-0.19 -0.01,-0.04 -0.05,-0.14 -0.07,-0.18l-3.7 -2.01 -0.73 0.01c-0.03,-0.15 -0.09,-0.3 -0.09,-0.27l-0.06 -0.77 -2.44 -5.43c-0.12,-0.73 -0.12,-0.15 0.16,-0.76l2.13 5.04c0.21,0.42 0.16,0.35 0.39,0.68l-0.02 -2.01c-0.42,0.02 -0.33,0.12 -0.27,-0.27l0.04 -0.67c-0.26,-1.13 -0.32,-0.81 -1.13,-1.59l-0.24 -0.25c-0.54,-0.61 -0.26,-0.56 -0.95,-1.09 0,0 -0.19,0.91 -0.64,-0.53l-0.93 -0.09 0.34 -1.05 -0.08 -4.61c-0.11,-0.35 -0.17,-0.34 -0.27,-0.48l-0.35 -0.41c0.31,-0.86 -0.07,-0.31 0.44,-0.61 0.09,-0.32 -0.24,-0.19 0.52,-0.24 0.09,-1.01 1.37,-3.13 1.85,-4.25 0.29,0.78 -0.14,1.11 -0.64,2.08 -0.43,0.83 -0.81,1.5 -1.03,2.4l0.11 0.07 1.07 1.04 -1.26 -0.23 -0.1 1.39c0.1,1.45 -0.02,2.83 0.45,3.82l0.11 -0.02c0.46,-0.18 0.12,-0.03 0.65,-0.29 0.2,-0.1 0.44,-0.22 0.64,-0.33 0.96,-0.5 0.43,-0.09 0.98,-0.71l0.18 -0.46 0.18 -0.01 0.34 -0.08c1.01,-0.1 0.58,-0.07 1.6,-0.85 0.04,-0.03 0.1,-0.08 0.14,-0.11l-1.27 1.3 0.1 0.69c-0.45,0.54 -0.38,0.39 -0.81,0.41 0,0 -1.23,-0.43 -2.39,0.76l-0.16 0.15c1.11,-0.05 2.97,0.22 3.54,0.53 -1.09,0.16 -2.38,-0.14 -3.51,-0.3 0.32,0.8 0.23,0.55 0.69,1.12l0.96 0.96c0.04,0.04 0.09,0.09 0.13,0.12l0.55 0.69c0.46,0.59 0.15,0.32 0.72,0.77l0.06 -0.02 2.47 -2.48c-0.03,0.07 -0.08,0.14 -0.11,0.19l-0.88 1.19c-0.19,0.23 -0.31,0.36 -0.45,0.53l-0.43 0.52 3.59 0.1 0.23 -0.21c-0.46,-1.13 -0.77,-1.05 -1.07,-2l0.29 0.21c0.04,0.03 0.1,0.08 0.14,0.12l0.97 1.12 -0.04 -1.01 -0.32 -0.2 -0.17 -0.33 -0.01 -0.18c-0.5,-0.13 -0.73,0.06 0,-0.23l0.17 -0.27c0.42,-1.2 0.01,-3.65 -0.46,-4.66 -0.35,1.77 -0.89,3.04 -0.5,4.01 0.15,0.38 0.36,0.77 0.44,0.98 -0.71,0.4 -0.52,0.32 -0.72,0.25l-0.8 -0.03c-0.5,0 -0.3,0.08 -0.19,-0.55l-1.91 -0.23c1.03,-0.45 0.87,-0.26 2.04,-0.1 0.27,-0.43 -0.01,-0.07 0.41,-0.29l1.14 -4.78 -0.94 0.51c-0.06,-0.28 0.3,-0.47 0,-0.99 -0.77,0.03 -1.48,0.01 -2.25,0.01 -0.23,0 -0.8,0.01 -1.01,0.04 -0.58,0.07 -0.47,0.02 -0.84,0.24l-0.13 0.36 0.53 1.72c-0.14,-0.14 -0.12,-0.09 -0.33,-0.44l-0.17 -0.33c-0.22,-0.42 -0.12,-0.38 -0.44,-0.9l-0.58 -0.25 0.01 -0.74c-0.56,-0.43 -0.26,0.75 -0.07,-0.17 0.05,-0.23 0,-0.19 0.26,-0.11l0.1 0c0.53,-1.17 0.62,-4.3 0.62,-5.61 -0.41,0.36 0.17,0.11 -0.41,0.21l-0.07 -0.73 0.19 -0.86c1.28,0.02 1.14,0 1.13,0.96l2.44 3.21c0.54,0.74 1.27,1.54 1.54,2.34l-1.36 -1.53c-0.03,-0.05 -0.07,-0.1 -0.1,-0.14l-1.04 -1.42c-0.04,-0.05 -0.17,-0.21 -0.21,-0.26 -0.79,-1.03 -0.68,-1.4 -1.66,-1.97l-0.13 0.03 -0.29 5.82c0.38,-0.04 0.29,-0.12 0.29,0.24l4.64 0.12 -0.14 -0.89c0.38,0.15 0.1,-0.4 0.62,0.5l-0.11 -0.02c0.41,-0.45 0.34,-0.54 0.31,-0.81 -0.15,-0.37 -0.12,-0.15 -0.09,-0.58 0,-0.05 0.08,-0.09 0.09,-0.19 0.01,-0.12 0.09,-0.13 0.14,-0.2l1.02 0c0.15,0.24 0.17,0.17 0.25,0.58 0.01,0.04 -0.05,0.22 -0.04,0.19 0,-0.04 -0.06,0.12 -0.09,0.19 -0.59,1.62 0.05,0.26 -0.77,0.5 -0.03,0.01 -0.14,0.09 -0.16,0.04 -0.02,-0.04 -0.12,0.02 -0.16,0.05l0.51 0.43c0.02,-0.04 0.09,0.05 0.13,0.08 0.56,-0.99 -0.45,0 0.39,-0.41 0.03,-0.01 0.17,0.11 0.19,0.04 0.03,-0.09 0.14,0.06 0.21,0.08l-0.12 0.04 2.55 -3.42c0.03,-0.04 0.08,-0.09 0.11,-0.13 0.03,-0.04 0.08,-0.1 0.11,-0.14 0.03,-0.04 0.08,-0.09 0.11,-0.13 0.81,-1.07 -0.41,0.59 0.21,-0.29 0.04,-0.06 0.15,-0.24 0.19,-0.3l0.31 -0.43c0.34,-0.39 0.23,-0.28 0.54,-0.46 -0.67,1.8 -3.3,4.28 -3.65,5.68l4.63 -0.14 0.32 -0.2 -0.29 -5.85 -0.15 -0.01 -0.71 0.43c-0.03,-0.04 -0.1,0.06 -0.14,0.1l0.41 -1.65c-1.44,-0.35 -2.96,-1.08 -4.61,-1.67 0.11,0.47 0.21,0.36 -0.29,0.36l-1 -0.02c-0.48,0 -0.37,0.11 -0.27,-0.35l-4.88 1.44c1.73,-0.24 3.35,-1.37 4.88,-1.69l0.12 -0.36c-0.1,-0.43 -0.18,-0.34 0.27,-0.23l0.76 0c0.46,-0.11 0.39,-0.21 0.27,0.22l0.11 0.38 5.7 1.9c0.36,-0.05 0.26,-0.12 0.25,0.25l0.07 0.56c0.04,1.32 1.65,3.27 2,4.76l-0.76 -1.07c-0.57,-1.1 -0.98,-2.31 -1.74,-3.19 0.12,1.16 0.03,4.16 0.61,5.63l0.12 -0.01c0.68,-0.21 0.99,-0.57 1.44,-1.01 0.62,-0.48 0.15,-0.33 1.11,-0.22l0.16 0.82c-0.25,0.37 -0.02,0.07 -0.33,0.42 -0.68,0.74 -0.45,3.59 -0.5,4.74 -0.55,-0.97 -0.08,-2.64 -0.17,-4.69 -0.01,-0.12 -0.04,-0.14 -0.06,-0.21 -0.91,-0.02 -0.6,0.13 -1.47,0.41l0 0.77 -0.59 0.17c-0.3,0.39 -0.72,1.77 -0.84,2.04l0.17 0.46c0.58,0.7 0.16,0.3 1.15,0.79 0.25,0.13 0.41,0.22 0.63,0.33 0.6,0.3 -0.18,-0.06 0.48,0.21 0.83,-0.13 1.08,0.05 1.1,1.15l-0.85 0.04c-0.14,0.49 -0.14,0.53 -0.4,1.09l-0.39 -0.65c-0.03,0.05 -0.06,0.12 -0.08,0.16l-1.3 1.43c0.3,-1.14 0.88,-0.73 1.71,-2.49l-3.5 0.29c0.58,-0.33 2.4,-0.58 3.53,-0.56l-0.14 -0.11c-0.25,-0.26 -0.07,-0.14 -0.53,-0.41 -0.08,-0.04 -0.39,-0.2 -0.48,-0.25 -1.03,-0.48 -0.06,-0.32 -1.01,-0.21l-0.92 -0.07c-0.44,0.08 -0.36,0.18 -0.29,-0.24l0.23 -0.8 0.66 -0.17 0.67 -1.99 -0.13 -0.37c-0.65,-0.44 0.6,0.03 -0.6,-0.22 -0.33,-0.07 -0.14,-0.03 -0.47,-0.06 -0.16,-0.02 -0.8,0 -1.01,0 -0.87,0.02 -1.62,0.01 -2.5,-0.04 0.05,0.08 0.12,0.15 0.17,0.21l0.97 0.87c0.04,0.03 0.1,0.07 0.15,0.09l1.68 1.26c0.04,0.04 0.11,0.11 0.14,0.14l0.28 0.3c-1.21,-0.35 0.04,0.09 -0.65,-0.25l-3.19 -2.13 1.15 4.78c0.4,0.22 0.16,-0.1 0.42,0.29l1.87 -0.06c-0.25,0.14 -0.8,0.27 -1.8,0.32 -0.22,0.57 -0.18,0.64 -0.94,0.66 0,0 0.43,0.99 -0.38,-0.14l-0.33 -0.22 0.34 -0.71c0.52,-0.86 -0.08,-2.45 -0.39,-4.18l-0.18 0.43c-0.02,0.07 -0.05,0.14 -0.07,0.22 -0.28,0.99 -0.53,3.18 -0.23,4.02l0.16 0.28c0.74,0.25 0.52,0.08 0,0.22l0 0.18 -0.16 0.34 -0.33 0.19c0.1,1.31 0.03,0.57 0.39,1.01 0.22,-0.72 0.23,-1.01 0.97,-1.43l-0.51 0.99c-0.26,0.42 -0.33,0.43 -0.56,0.99l0.24 0.21 3.59 -0.03c-0.42,-0.87 0.13,0.1 -0.57,-0.71l-0.87 -1.1c-0.03,-0.04 -0.08,-0.11 -0.11,-0.15l0.02 -0.3c0.04,0.04 0.11,0.09 0.16,0.13l0.79 0.97c0.61,0.71 0.6,0.33 1.17,1.14l0.06 0.02c0.55,-0.45 0.26,-0.28 0.6,-0.64 0.6,-0.65 -0.04,-0.28 0.73,-0.51 -0.54,0.79 -0.56,0.37 -0.8,1.43l0.04 0.67c0.08,0.41 0.17,0.32 -0.25,0.3l-0.03 1.98c0.83,-1.4 1.43,-3.35 2.24,-4.46 -0.14,1.01 -0.34,1.19 -0.73,2.01l-1.28 2.93zm7.01 -10.69c-0.76,-0.73 -0.69,-0.41 -1.86,-0.55l0.36 -0.89c0.11,-2.03 0.71,-3.21 0.34,-5.58 -0.27,-1.67 -1.27,-3.47 -2.01,-4.34 -2.7,-3.14 -12.79,-5.96 -18.83,0.51 -2.95,3.16 -1.72,6.24 -1.21,10.15 -0.48,0.23 -1.24,0.37 -1.62,0.56 -0.41,1.46 0.12,3.45 0.63,4.74 1.55,3.93 2.13,2.21 2.59,3.27 0.06,0.89 -0.01,1.74 0.28,2.61 0.1,0.31 2.44,3.83 0.28,7.19 -2.32,3.62 -20.03,6.08 -22.03,15.22l61.21 0.01c-0.65,-2.94 -3.42,-5.67 -5.34,-6.85l-8.53 -4.03c-5.24,-2.37 -10.3,-3.53 -8.91,-9.44 0.21,-0.88 0.75,-1.21 1.01,-2.12 0.28,-0.93 0.27,-1.97 0.35,-2.87 1.13,-0.5 0.89,-0.01 1.58,-1.03 1.31,-1.94 1.64,-4.28 1.71,-6.56z"/>
   <path class="fil0" d="M34.88 28.95l0.02 -0.64 0.42 -0.23c0.28,-0.7 0.23,-1.71 -0.08,-2.4l-0.38 -0.19c-1.26,0.54 -1.2,0.91 -2.47,1.15l0.49 -0.46c0.02,-0.01 0.55,-0.31 0.64,-0.36 0.64,-0.37 0.95,-0.5 1.33,-0.7l-0.11 -0.28 -3.47 -0.16c-0.31,0.84 0.24,0.52 -0.91,0.66 -0.45,-0.4 -0.18,-0.03 -0.41,-0.67l-3.46 0.18 -0.12 0.28 3.72 1.92 0.34 -0.13 0.36 0.01 0.35 0.11 1.25 -0.4 -1.21 1.43 -0.07 0.07c-0.49,0.92 -0.38,1.59 0,2.57l0.04 -0.21c0.01,-0.02 0.02,-0.1 0.02,-0.12 0.01,-0.03 0.02,-0.11 0.03,-0.14 0.24,-0.87 0.38,-0.61 0.98,-1.37l2.95 -3.31c-0.03,0.07 -0.07,0.1 -0.08,0.2l-3.09 3.84c-0.03,0.03 -0.09,0.08 -0.12,0.12 -0.5,0.62 -0.22,0.09 -0.45,0.86l3.49 -1.63zm-4.77 -0.81l-0.08 -0.07c-0.04,-0.07 -0.09,-0.27 -0.12,-0.23 -0.38,0.74 0.2,-0.16 -0.55,-0.75l-3 -1.65c0.3,0.96 0.4,0.75 1.02,1.42 0.03,0.03 0.08,0.09 0.12,0.13l2.23 2.67c0.18,0.21 0.05,-0.09 0.25,0.43 0.02,0.04 0.03,0.11 0.04,0.15 0.01,0.03 0.01,0.11 0.02,0.14 0.36,1.44 -0.76,-1.13 0.08,0.34 0.36,-0.98 0.47,-1.65 -0.01,-2.58zm-4.07 -2.45l-0.08 -0.01c-0.2,0.44 -0.24,0.49 -0.25,1.19 -0.02,1.05 -0.1,0.56 0.23,1.2 0.55,0.46 0.34,-0.04 0.4,0.87l3.48 1.65c-0.32,-1.02 -0.25,-0.37 -1.21,-1.81l-0.8 -0.9c-0.03,-0.04 -0.07,-0.1 -0.11,-0.14l-1.03 -1.15c-0.03,-0.04 -0.08,-0.09 -0.11,-0.13l-0.52 -0.77z"/>
   <path class="fil1" d="M30.11 21.52l1 0c-0.3,-0.84 -0.05,-3.03 0.23,-4.02 0.02,-0.08 0.05,-0.15 0.07,-0.22l0.18 -0.43c0.31,1.73 0.91,3.32 0.39,4.18l-0.34 0.71 0.33 0.22c0.81,1.13 0.38,0.14 0.38,0.14l-0.38 -0.14 0.01 -0.93c0.63,-0.29 -0.04,-0.2 0.82,-0.14l-1.15 -4.78 3.19 2.13c0.69,0.34 -0.56,-0.1 0.65,0.25l-0.28 -0.3c-0.03,-0.03 -0.1,-0.1 -0.14,-0.14l-1.68 -1.26c-0.05,-0.02 -0.11,-0.06 -0.15,-0.09l-0.97 -0.87c-0.05,-0.06 -0.12,-0.13 -0.17,-0.21 0.88,0.05 1.63,0.06 2.5,0.04 0.21,0 0.85,-0.02 1.01,0 0.33,0.03 0.14,-0.01 0.47,0.06 1.2,0.25 -0.05,-0.22 0.6,0.22l0.13 0.37 -0.67 1.99 0.23 0.01c0.12,-0.27 0.54,-1.65 0.84,-2.04l-0.4 0.04 -0.13 -0.37 -0.11 -0.6 0.32 -0.2 0.61 -0.06c-0.58,-1.47 -0.49,-4.47 -0.61,-5.63 0.76,0.88 1.17,2.09 1.74,3.19l0.76 1.07c-0.35,-1.49 -1.96,-3.44 -2,-4.76 -0.87,0.67 -0.17,0.22 -0.79,0.34l0.29 5.85 -0.32 0.2 -4.63 0.14c0.35,-1.4 2.98,-3.88 3.65,-5.68 -0.31,0.18 -0.2,0.07 -0.54,0.46l-0.31 0.43c-0.04,0.06 -0.15,0.24 -0.19,0.3 -0.62,0.88 0.6,-0.78 -0.21,0.29 -0.03,0.04 -0.08,0.09 -0.11,0.13 -0.03,0.04 -0.08,0.1 -0.11,0.14 -0.03,0.04 -0.08,0.09 -0.11,0.13l-2.55 3.42c0.11,0.1 0.42,0.32 0.48,0.38 -0.04,0.49 0,0.34 -0.29,0.63 -0.81,0.45 -0.37,0.12 -0.59,0.02l-0.27 -0.78c0.35,-0.52 -0.07,-0.18 0.79,-0.29 -0.07,-0.02 -0.18,-0.17 -0.21,-0.08 -0.02,0.07 -0.16,-0.05 -0.19,-0.04 -0.84,0.41 0.17,-0.58 -0.39,0.41 -0.04,-0.03 -0.11,-0.12 -0.13,-0.08l-0.51 -0.43c0.04,-0.03 0.14,-0.09 0.16,-0.05 0.02,0.05 0.13,-0.03 0.16,-0.04 0.82,-0.24 0.18,1.12 0.77,-0.5 0.03,-0.07 0.09,-0.23 0.09,-0.19 -0.01,0.03 0.05,-0.15 0.04,-0.19 -0.08,-0.41 -0.1,-0.34 -0.25,-0.58l0.12 0.96 -1.28 0.01 0.14 -0.97c-0.05,0.07 -0.13,0.08 -0.14,0.2 -0.01,0.1 -0.09,0.14 -0.09,0.19 -0.03,0.43 -0.06,0.21 0.09,0.58 0.03,0.27 0.1,0.36 -0.31,0.81 0.72,0.17 0.5,-0.27 0.77,0.28 -0.16,0.92 -0.05,1.07 -0.86,0.77 -0.27,-0.29 -0.24,-0.16 -0.28,-0.64 0.1,-0.12 0.31,-0.23 0.48,-0.39 -0.52,-0.9 -0.24,-0.35 -0.62,-0.5l0.14 0.89 -4.64 -0.12c0,-0.36 0.09,-0.28 -0.29,-0.24l0.29 -5.82 -0.32 0.16 -0.48 -0.52 0.07 0.73c0.58,-0.1 0,0.15 0.41,-0.21 0,1.31 -0.09,4.44 -0.62,5.61l0.65 0.05 0.29 0.24 -0.12 0.57 -0.13 0.36 -0.41 0.05c0.32,0.52 0.22,0.48 0.44,0.9l0.17 0.33c0.21,0.35 0.19,0.3 0.33,0.44l-0.53 -1.72 0.13 -0.36c0.37,-0.22 0.26,-0.17 0.84,-0.24 0.21,-0.03 0.78,-0.04 1.01,-0.04 0.77,0 1.48,0.02 2.25,-0.01 0.3,0.52 -0.06,0.71 0,0.99l0.94 -0.51 -1.14 4.78c0.55,0 0.37,-0.05 0.81,0.14 -0.12,1.43 0.11,0.48 -0.36,1.06 0.2,0.07 0.01,0.15 0.72,-0.25 -0.08,-0.21 -0.29,-0.6 -0.44,-0.98 -0.39,-0.97 0.15,-2.24 0.5,-4.01 0.47,1.01 0.88,3.46 0.46,4.66zm-0.17 0.5l0 -0.23c-0.73,0.29 -0.5,0.1 0,0.23zm0.21 2.27l-0.23 0.21 -3.59 -0.1 0.43 -0.52c0.14,-0.17 0.26,-0.3 0.45,-0.53l0.88 -1.19c0.03,-0.05 0.08,-0.12 0.11,-0.19l-2.47 2.48c0.08,0.04 0.19,0.01 0.23,0.11 0.04,0.1 0.16,0.08 0.21,0.11 0.05,0.02 0.25,0.14 0.32,0.18l3.46 -0.18 -0.03 -0.17c0.33,0.1 0.22,0.14 0.23,-0.21l0.45 -0.24 0.47 0.24c0,0.35 -0.1,0.31 0.24,0.21l-0.04 0.18 3.47 0.16c0.42,-0.27 0.35,-0.19 0.75,-0.39 -0.57,-0.81 -0.56,-0.43 -1.17,-1.14l-0.79 -0.97c-0.05,-0.04 -0.12,-0.09 -0.16,-0.13l-0.02 0.3c0.03,0.04 0.08,0.11 0.11,0.15l0.87 1.1c0.7,0.81 0.15,-0.16 0.57,0.71l-3.59 0.03 -0.24 -0.21c0.23,-0.56 0.3,-0.57 0.56,-0.99l0.51 -0.99c-0.74,0.42 -0.75,0.71 -0.97,1.43 -0.36,-0.44 -0.29,0.3 -0.39,-1.01l0.33 -0.19 0.16 -0.34 -0.16 0.34 -0.33 0.19 -0.34 0 -0.32 -0.2 -0.17 -0.33 0.17 0.33 0.32 0.2 0.04 1.01 -0.97 -1.12c-0.04,-0.04 -0.1,-0.09 -0.14,-0.12l-0.29 -0.21c0.3,0.95 0.61,0.87 1.07,2zm-4.77 -6.06l0.47 0.34 1.27 -1.3c-0.04,0.03 -0.1,0.08 -0.14,0.11 -1.02,0.78 -0.59,0.75 -1.6,0.85zm-0.34 0.08l-0.18 0.01 0.18 -0.01zm-3.19 -4.5c-0.24,0.26 -0.16,0.09 0.18,0.23 0.22,-0.9 0.6,-1.57 1.03,-2.4 0.5,-0.97 0.93,-1.3 0.64,-2.08 -0.48,1.12 -1.76,3.24 -1.85,4.25zm3.31 -4.77l-0.39 0.23c0.98,0.57 0.87,0.94 1.66,1.97 0.04,0.05 0.17,0.21 0.21,0.26l1.04 1.42c0.03,0.04 0.07,0.09 0.1,0.14l1.36 1.53c-0.27,-0.8 -1,-1.6 -1.54,-2.34l-2.44 -3.21zm11.29 0.24c-0.41,-0.54 -0.35,-0.17 -0.27,-1.09l0.89 -0.05 0.25 0.25c0.01,-0.37 0.11,-0.3 -0.25,-0.25l-5.7 -1.9 -0.11 -0.38c0.12,-0.43 0.19,-0.33 -0.27,-0.22l0.27 0.22 0.11 0.38 0.03 0.25 -0.29 0.36c0.5,0 0.4,0.11 0.29,-0.36 1.65,0.59 3.17,1.32 4.61,1.67l-0.41 1.65c0.04,-0.04 0.11,-0.14 0.14,-0.1l0.71 -0.43zm-5.18 12.74c0.52,-0.14 0.74,0.03 0,-0.22l0 0.22zm-0.41 -2.67c0.14,1.33 0.11,0.34 -0.25,0.72 -0.38,-0.41 -0.13,0.17 -0.25,-0.72 0.12,-2.34 -0.79,-2.24 0.25,-3.4 0.51,0.58 0.54,0.44 0.41,1.48 -0.09,0.74 -0.2,1.13 -0.16,1.92z"/>
   <path class="fil2" d="M42.26 0.47c0.38,0.3 -0.05,0.14 0.57,0.29l6.6 0.08c0.65,2.81 -0.6,6.48 0.58,7.03 0.81,-0.46 0.42,-6.65 0.37,-7.75l-7.34 -0.12c-1.43,0.24 -0.24,0 -0.78,0.47z"/>
   <path class="fil1" d="M31.11 28.14l-1 0c0.48,0.93 0.37,1.6 0.01,2.58 -0.84,-1.47 0.28,1.1 -0.08,-0.34 -0.01,-0.03 -0.01,-0.11 -0.02,-0.14 -0.01,-0.04 -0.02,-0.11 -0.04,-0.15 -0.2,-0.52 -0.07,-0.22 -0.25,-0.43l-2.23 -2.67c-0.04,-0.04 -0.09,-0.1 -0.12,-0.13 -0.62,-0.67 -0.72,-0.46 -1.02,-1.42l3 1.65c0.75,0.59 0.17,1.49 0.55,0.75 0.03,-0.04 0.08,0.16 0.12,0.23l0.06 -1.02 0.34 -0.13 -0.34 0.13 -3.72 -1.92c-0.25,0.38 -0.03,0.16 -0.33,0.56l0.52 0.77c0.03,0.04 0.08,0.09 0.11,0.13l1.03 1.15c0.04,0.04 0.08,0.1 0.11,0.14l0.8 0.9c0.96,1.44 0.89,0.79 1.21,1.81l-3.48 -1.65c-0.4,0.01 -0.31,-0.1 -0.31,0.27l3.7 2.01c0.02,0.04 0.06,0.14 0.07,0.18 0.02,0.05 0.07,0.23 0.08,0.19 0.02,-0.03 0.06,0.13 0.09,0.19 -0.12,0.43 -0.19,0.34 0.26,0.24l-0.26 -0.24c0.18,-1.19 -0.11,-0.75 0.64,-1.14 0.73,0.38 0.45,-0.08 0.64,1.14l-0.26 0.25c0.46,0.1 0.38,0.18 0.26,-0.25 0.58,-1.43 -0.19,-0.7 3.93,-2.58 0,-0.35 0.09,-0.25 -0.3,-0.25l-3.49 1.63c0.23,-0.77 -0.05,-0.24 0.45,-0.86 0.03,-0.04 0.09,-0.09 0.12,-0.12l3.09 -3.84c0.01,-0.1 0.05,-0.13 0.08,-0.2l-2.95 3.31c-0.6,0.76 -0.74,0.5 -0.98,1.37 -0.01,0.03 -0.02,0.11 -0.03,0.14 0,0.02 -0.01,0.1 -0.02,0.12l-0.04 0.21c-0.38,-0.98 -0.49,-1.65 0,-2.57z"/>
   <path class="fil2" d="M42.31 34.46c0.03,0.51 -0.01,0.28 0.24,0.57l7.61 -0.01 0.2 -7.78c-0.66,0.18 -0.39,0 -0.71,0.35l-0.13 6.8 -7.21 0.07z"/>
   <path class="fil2" d="M11 35.04l7.67 -0.08 0.13 -0.55c-1.93,0.02 -5.36,0.28 -7.1,-0.15l-0.12 -6.67c-0.29,-0.29 -0.08,-0.17 -0.71,-0.33l0.13 7.78z"/>
   <path class="fil2" d="M11.71 0.98c0.39,-0.41 -0.95,-0.3 0.74,-0.33l6.37 -0.02 -0.15 -0.55 -7.6 -0.07c-0.24,1.22 -0.11,2.57 -0.11,3.82 0,0.64 0.01,1.28 0,1.92 -0.01,0.9 -0.14,1.32 0.24,2.05 0.28,-0.35 0.21,0.03 0.36,-0.6 0.21,-0.87 -0.23,-5.02 0.15,-6.22z"/>
   <path class="fil1" d="M25.15 28.18l0.79 -0.11c-0.33,-0.64 -0.25,-0.15 -0.23,-1.2 0.01,-0.7 0.05,-0.75 0.25,-1.19l-0.59 0.02 -0.27 -0.27 0.04 -0.67 0.53 -0.29c-0.57,-0.45 -0.26,-0.18 -0.72,-0.77l-0.55 -0.69c-0.04,-0.03 -0.09,-0.08 -0.13,-0.12l-0.96 -0.96c-0.46,-0.57 -0.37,-0.32 -0.69,-1.12 1.13,0.16 2.42,0.46 3.51,0.3 -0.57,-0.31 -2.43,-0.58 -3.54,-0.53l-0.41 0.72c0.45,1.44 0.64,0.53 0.64,0.53 0.69,0.53 0.41,0.48 0.95,1.09l0.24 0.25c0.81,0.78 0.87,0.46 1.13,1.59l-0.04 0.67c-0.06,0.39 -0.15,0.29 0.27,0.27l0.02 2.01c-0.23,-0.33 -0.18,-0.26 -0.39,-0.68l-2.13 -5.04c-0.28,0.61 -0.28,0.03 -0.16,0.76l2.44 5.43zm2.73 -6.66c-0.11,0.63 -0.31,0.55 0.19,0.55l-0.19 -0.55 0.13 -0.33c-1.17,-0.16 -1.01,-0.35 -2.04,0.1l1.91 0.23z"/>
   <path class="fil3" d="M42.31 34.46l7.21 -0.07 0.13 -6.8c0.32,-0.35 0.05,-0.17 0.71,-0.35l-0.2 7.78c0.38,-0.39 0.29,0.55 0.37,-0.71 0.01,-1.93 0.4,-5.57 -0.17,-7.07l-0.94 -0.12 -0.06 6.97c-1.18,0.08 -2.39,0.04 -3.57,0.04 -1.58,-0.01 -3.08,-0.29 -3.48,0.33z"/>
   <path class="fil3" d="M11.71 0.98c1.23,-0.11 2.48,-0.07 3.72,-0.06l2.75 0c0.66,-0.09 0.39,0 0.64,-0.29 0.61,-0.32 0.39,-0.34 -0.15,-0.55l0.15 0.55 -6.37 0.02c-1.69,0.03 -0.35,-0.08 -0.74,0.33 -0.38,1.2 0.06,5.35 -0.15,6.22 -0.15,0.63 -0.08,0.25 -0.36,0.6 -0.38,-0.73 -0.25,-1.15 -0.24,-2.05 0.01,-0.64 0,-1.28 0,-1.92 0,-1.25 -0.13,-2.6 0.11,-3.82 -0.4,0.21 -0.42,-0.54 -0.38,1.9l0 4.33c-0.02,1.13 -0.28,1.24 0.51,1.78 0.78,-0.44 0.6,-0.12 0.64,-1.29l-0.13 -5.75z"/>
   <path class="fil3" d="M11 35.04l-0.13 -7.78c0.63,0.16 0.42,0.04 0.71,0.33l0.12 6.67c1.74,0.43 5.17,0.17 7.1,0.15l-0.13 0.55c0.49,-0.2 0.78,-0.26 0.13,-0.55 -0.33,-0.4 -0.48,-0.29 -1.62,-0.28l-5.34 -0.04 -0.16 -7.01 -0.81 0.18c-0.23,0.57 -0.17,0.24 -0.2,1.03l0.02 5.06c-0.04,2.02 -0.02,1.46 0.31,1.69z"/>
   <path class="fil1" d="M39.05 21.29l-0.46 -0.46 0.03 -0.27c-1.13,-0.02 -2.95,0.23 -3.53,0.56l3.5 -0.29c-0.83,1.76 -1.41,1.35 -1.71,2.49l1.3 -1.43c0.02,-0.04 0.05,-0.11 0.08,-0.16l0.39 0.65c0.26,-0.56 0.26,-0.6 0.4,-1.09zm-3.5 3.18l0.53 0.28 0.04 0.67 -0.25 0.3 -0.63 -0.04c0.31,0.69 0.36,1.7 0.08,2.4l0.75 0.1 1.28 -2.93c0.39,-0.82 0.59,-1 0.73,-2.01 -0.81,1.11 -1.41,3.06 -2.24,4.46l0.03 -1.98c0.42,0.02 0.33,0.11 0.25,-0.3l-0.04 -0.67c0.24,-1.06 0.26,-0.64 0.8,-1.43 -0.77,0.23 -0.13,-0.14 -0.73,0.51 -0.34,0.36 -0.05,0.19 -0.6,0.64zm-2.33 -3.29l0.07 0.26c1,-0.05 1.55,-0.18 1.8,-0.32l-1.87 0.06z"/>
   <path class="fil1" d="M20.89 14.66l0.35 0.41c0.1,0.14 0.16,0.13 0.27,0.48l0.08 4.61 0.71 -0.03c-0.47,-0.99 -0.35,-2.37 -0.45,-3.82l0.1 -1.39 1.26 0.23 -1.07 -1.04c-0.18,1.13 -0.57,0.96 -1.25,0.55zm2.52 0.69l0.19 -0.28c-0.26,-0.08 -0.21,-0.12 -0.26,0.11 -0.19,0.92 -0.49,-0.26 0.07,0.17z"/>
   <path class="fil0" d="M30.36 19.35l0.5 0c-0.04,-0.79 0.07,-1.18 0.16,-1.92 0.13,-1.04 0.1,-0.9 -0.41,-1.48 -1.04,1.16 -0.13,1.06 -0.25,3.4z"/>
   <path class="fil1" d="M37.62 15.07l0.18 0.26c0.87,-0.28 0.56,-0.43 1.47,-0.41 0.02,0.07 0.05,0.09 0.06,0.21 0.09,2.05 -0.38,3.72 0.17,4.69 0.05,-1.15 -0.18,-4 0.5,-4.74 0.31,-0.35 0.08,-0.05 0.33,-0.42 -0.6,0.38 -1.17,0.49 -1.27,-0.6 -0.45,0.44 -0.76,0.8 -1.44,1.01z"/>
   <polygon class="fil4" points="29.96,5.87 29.84,6.23 29.84,6.48 30.11,6.83 31.11,6.85 31.4,6.49 31.37,6.24 31.26,5.86 30.99,5.64 30.23,5.64 "/>
   <path class="fil1" d="M34.86 25.49l-0.01 -0.37c-0.38,0.2 -0.69,0.33 -1.33,0.7 -0.09,0.05 -0.62,0.35 -0.64,0.36l-0.49 0.46c1.27,-0.24 1.21,-0.61 2.47,-1.15zm-3.72 1.55l-0.35 -0.11 0.35 0.11 0.04 1.03 1.21 -1.43 -1.25 0.4z"/>
   <path class="fil4" d="M29.97 31.78l0.26 0.24 0.76 0.01 0.26 -0.25c-0.19,-1.22 0.09,-0.76 -0.64,-1.14 -0.75,0.39 -0.46,-0.05 -0.64,1.14z"/>
   <path class="fil4" d="M23.84 8.94l0.48 0.52 0.32 -0.16 0.13 -0.03 0.39 -0.23c0.01,-0.96 0.15,-0.94 -1.13,-0.96l-0.19 0.86z"/>
   <path class="fil4" d="M31.98 21.03l-0.01 0.93 0.38 0.14c0.76,-0.02 0.72,-0.09 0.94,-0.66l-0.07 -0.26c-0.26,-0.39 -0.02,-0.07 -0.42,-0.29 -0.86,-0.06 -0.19,-0.15 -0.82,0.14z"/>
   <polygon class="fil4" points="29.94,21.79 29.94,22.02 29.95,22.2 30.12,22.53 30.44,22.73 30.78,22.73 31.11,22.54 31.27,22.2 31.27,22.02 31.27,21.8 31.11,21.52 30.11,21.52 "/>
   <path class="fil4" d="M28.01 21.19l-0.13 0.33 0.19 0.55 0.8 0.03c0.47,-0.58 0.24,0.37 0.36,-1.06 -0.44,-0.19 -0.26,-0.14 -0.81,-0.14 -0.42,0.22 -0.14,-0.14 -0.41,0.29z"/>
   <path class="fil4" d="M34.74 24.84l0.11 0.28 0.01 0.37 0.38 0.19 0.63 0.04 0.25 -0.3 -0.04 -0.67 -0.53 -0.28 -0.06 -0.02c-0.4,0.2 -0.33,0.12 -0.75,0.39z"/>
   <polygon class="fil4" points="35.25,19.27 35.54,19.51 36.46,19.58 36.54,18.77 36.37,18.31 36.14,18.3 35.48,18.47 "/>
   <polygon class="fil4" points="30.09,27.05 30.03,28.07 30.11,28.14 31.11,28.14 31.18,28.07 31.14,27.04 30.79,26.93 30.43,26.92 "/>
   <polygon class="fil4" points="23.41,15.35 23.4,16.09 23.98,16.34 24.39,16.29 24.52,15.93 24.64,15.36 24.35,15.12 23.7,15.07 23.6,15.07 "/>
   <path class="fil4" d="M38.8 20.1c0,0.45 0.12,0.35 -0.32,0.35l0.14 0.11 -0.03 0.27 0.46 0.46 0.85 -0.04c-0.02,-1.1 -0.27,-1.28 -1.1,-1.15z"/>
   <polygon class="fil4" points="24.68,18.78 24.73,19.58 25.95,19.26 25.85,18.57 25.38,18.23 25.04,18.31 24.86,18.32 "/>
   <path class="fil4" d="M25.14 24.76l-0.04 0.67 0.27 0.27 0.59 -0.02 0.08 0.01c0.3,-0.4 0.08,-0.18 0.33,-0.56l0.12 -0.28c-0.07,-0.04 -0.27,-0.16 -0.32,-0.18 -0.05,-0.03 -0.17,-0.01 -0.21,-0.11 -0.04,-0.1 -0.15,-0.07 -0.23,-0.11l-0.06 0.02 -0.53 0.29z"/>
   <polygon class="fil4" points="36.57,15.34 36.68,15.94 36.81,16.31 37.21,16.27 37.8,16.1 37.8,15.33 37.62,15.07 37.5,15.08 36.89,15.14 "/>
   <path class="fil4" d="M30.15 24.29c-0.01,0.35 0.1,0.31 -0.23,0.21l0.03 0.17c0.23,0.64 -0.04,0.27 0.41,0.67 1.15,-0.14 0.6,0.18 0.91,-0.66l0.04 -0.18c-0.34,0.1 -0.24,0.14 -0.24,-0.21l-0.47 -0.24 -0.45 0.24z"/>
   <path class="fil4" d="M36.45 9.28l0.15 0.01c0.62,-0.12 -0.08,0.33 0.79,-0.34l-0.07 -0.56 -0.25 -0.25 -0.89 0.05c-0.08,0.92 -0.14,0.55 0.27,1.09z"/>
   <path class="fil4" d="M39.06 14.06c0.1,1.09 0.67,0.98 1.27,0.6l-0.16 -0.82c-0.96,-0.11 -0.49,-0.26 -1.11,0.22z"/>
   <path class="fil4" d="M22.18 21.3l0.41 -0.72 0.16 -0.15c-0.45,0 -0.34,0.11 -0.34,-0.32l-0.11 0.02 -0.71 0.03 -0.34 1.05 0.93 0.09z"/>
   <path class="fil4" d="M26.03 29.21c0,-0.37 -0.09,-0.26 0.31,-0.27 -0.06,-0.91 0.15,-0.41 -0.4,-0.87l-0.79 0.11 0.06 0.77c0,-0.03 0.06,0.12 0.09,0.27l0.73 -0.01z"/>
   <path class="fil4" d="M34.88 28.95c0.39,0 0.3,-0.1 0.3,0.25l0.75 -0.07c0.08,-0.18 0.08,-0.03 0.18,-0.55 0.01,-0.05 -0.04,-0.36 -0.04,-0.4l-0.75 -0.1 -0.42 0.23 -0.02 0.64z"/>
   <polygon class="fil4" points="29.96,14.26 31.24,14.25 31.12,13.29 30.1,13.29 "/>
   <path class="fil1" d="M22.41 20.11c0,0.43 -0.11,0.32 0.34,0.32 1.16,-1.19 2.39,-0.76 2.39,-0.76 0.43,-0.02 0.36,0.13 0.81,-0.41l-1.22 0.32 -0.05 -0.8c-0.55,0.62 -0.02,0.21 -0.98,0.71 -0.2,0.11 -0.44,0.23 -0.64,0.33 -0.53,0.26 -0.19,0.11 -0.65,0.29z"/>
   <path class="fil4" d="M29.28 15.48c0.04,0.48 0.01,0.35 0.28,0.64 0.81,0.3 0.7,0.15 0.86,-0.77 -0.27,-0.55 -0.05,-0.11 -0.77,-0.28l0.11 0.02c-0.17,0.16 -0.38,0.27 -0.48,0.39z"/>
   <path class="fil4" d="M20.89 14.66c0.68,0.41 1.07,0.58 1.25,-0.55l-0.11 -0.07c-0.34,-0.14 -0.42,0.03 -0.18,-0.23 -0.76,0.05 -0.43,-0.08 -0.52,0.24 -0.51,0.3 -0.13,-0.25 -0.44,0.61z"/>
   <path class="fil4" d="M30.79 15.35l0.27 0.78c0.22,0.1 -0.22,0.43 0.59,-0.02 0.29,-0.29 0.25,-0.14 0.29,-0.63 -0.06,-0.06 -0.37,-0.28 -0.48,-0.38l0.12 -0.04c-0.86,0.11 -0.44,-0.23 -0.79,0.29z"/>
   <path class="fil1" d="M36.46 19.58l-0.92 -0.07 -0.29 -0.24c-0.07,0.42 -0.15,0.32 0.29,0.24l0.92 0.07c0.95,-0.11 -0.02,-0.27 1.01,0.21 0.09,0.05 0.4,0.21 0.48,0.25 0.46,0.27 0.28,0.15 0.53,0.41 0.44,0 0.32,0.1 0.32,-0.35 -0.66,-0.27 0.12,0.09 -0.48,-0.21 -0.22,-0.11 -0.38,-0.2 -0.63,-0.33 -0.99,-0.49 -0.57,-0.09 -1.15,-0.79l-0.08 0.81z"/>
   <path class="fil1" d="M29.84 6.23c-1.53,0.32 -3.15,1.45 -4.88,1.69l4.88 -1.44c-0.1,0.46 -0.21,0.35 0.27,0.35l-0.27 -0.35 0 -0.25 0.12 -0.36 0.27 -0.23c-0.45,-0.11 -0.37,-0.2 -0.27,0.23l-0.12 0.36z"/>
   <path class="fil5" d="M43.08 17.49l-0.12 -0.6 -1.51 -0.07 0.13 -0.77 -0.36 0.89c1.17,0.14 1.1,-0.18 1.86,0.55z"/>
   <path class="fil6" d="M30.86 19.35l-0.5 0c0.12,0.89 -0.13,0.31 0.25,0.72 0.36,-0.38 0.39,0.61 0.25,-0.72z"/>
  </g>
 </g>
</svg>
