<?xml version="1.0" encoding="UTF-8"?>
<!DOCTYPE svg PUBLIC "-//W3C//DTD SVG 1.1//EN" "http://www.w3.org/Graphics/SVG/1.1/DTD/svg11.dtd">
<!-- Creator: CorelDRAW -->
<svg xmlns="http://www.w3.org/2000/svg" xml:space="preserve" width="91px" height="75px" version="1.1" style="shape-rendering:geometricPrecision; text-rendering:geometricPrecision; image-rendering:optimizeQuality; fill-rule:evenodd; clip-rule:evenodd"
viewBox="0 0 10.89 8.97"
 xmlns:xlink="http://www.w3.org/1999/xlink"
 xmlns:xodm="http://www.corel.com/coreldraw/odm/2003">
 <defs>
  <style type="text/css">
   <![CDATA[
    .fil0 {fill:#211C57}
    .fil6 {fill:#2D506F}
    .fil2 {fill:#5AB5AB}
    .fil1 {fill:#5C739C}
    .fil3 {fill:#9CDFD4}
    .fil5 {fill:#AAA8C5}
    .fil4 {fill:#FEFEFE}
   ]]>
  </style>
 </defs>
 <g id="Layer_x0020_1">
  <metadata id="CorelCorpID_0Corel-Layer"/>
  <g id="_2316006600832">
   <path class="fil0" d="M6.42 5.01c0,0.01 0.01,0.07 0.01,0.08 -0.02,0.09 -0.02,0.06 -0.04,0.09l-0.13 0.02c-0.73,0.33 -0.6,0.2 -0.7,0.45 0.02,0.08 0.04,0.07 -0.05,0.05l-0.13 0c-0.08,0.01 -0.07,0.03 -0.05,-0.04 0,-0.02 -0.01,-0.04 -0.01,-0.04 0,0.01 -0.01,-0.02 -0.02,-0.03 0,-0.01 -0.01,-0.03 -0.01,-0.04l-0.66 -0.35 -0.13 0c0,-0.03 -0.01,-0.05 -0.01,-0.05l-0.01 -0.14 -0.44 -0.96c-0.02,-0.13 -0.02,-0.03 0.03,-0.14l0.38 0.9c0.04,0.07 0.03,0.06 0.07,0.12l-0.01 -0.36c-0.07,0.01 -0.06,0.02 -0.04,-0.05l0 -0.11c-0.04,-0.2 -0.05,-0.15 -0.2,-0.29l-0.04 -0.04c-0.1,-0.11 -0.05,-0.1 -0.17,-0.2 0,0 -0.03,0.17 -0.11,-0.09l-0.17 -0.02 0.06 -0.18 -0.01 -0.82c-0.02,-0.06 -0.03,-0.06 -0.05,-0.09l-0.06 -0.07c0.05,-0.15 -0.02,-0.06 0.08,-0.11 0.01,-0.06 -0.05,-0.03 0.09,-0.04 0.01,-0.18 0.24,-0.56 0.33,-0.76 0.05,0.14 -0.03,0.2 -0.12,0.37 -0.07,0.15 -0.14,0.27 -0.18,0.43l0.02 0.01 0.19 0.19 -0.22 -0.05 -0.02 0.25c0.02,0.26 -0.01,0.51 0.08,0.68l0.02 0c0.08,-0.03 0.02,-0.01 0.11,-0.05 0.04,-0.02 0.08,-0.04 0.12,-0.06 0.17,-0.09 0.07,-0.02 0.17,-0.13l0.03 -0.08 0.04 0 0.06 -0.02c0.18,-0.01 0.1,-0.01 0.28,-0.15 0.01,0 0.02,-0.01 0.03,-0.02l-0.23 0.23 0.02 0.13c-0.08,0.09 -0.07,0.07 -0.15,0.07 0,0 -0.22,-0.08 -0.42,0.14l-0.03 0.02c0.2,-0.01 0.53,0.04 0.63,0.1 -0.19,0.02 -0.42,-0.03 -0.63,-0.06 0.06,0.15 0.05,0.1 0.13,0.2l0.17 0.17c0.01,0.01 0.02,0.02 0.02,0.02l0.1 0.13c0.08,0.1 0.03,0.06 0.13,0.13l0.01 0 0.44 -0.44c-0.01,0.01 -0.02,0.02 -0.02,0.03l-0.16 0.21c-0.03,0.05 -0.05,0.07 -0.08,0.1l-0.08 0.09 0.64 0.02 0.05 -0.04c-0.09,-0.2 -0.14,-0.18 -0.2,-0.35l0.06 0.03c0,0.01 0.01,0.02 0.02,0.03l0.17 0.19 0 -0.18 -0.06 -0.03 -0.03 -0.06 0 -0.03c-0.09,-0.02 -0.13,0.01 0,-0.04l0.03 -0.05c0.07,-0.21 0,-0.65 -0.08,-0.83 -0.07,0.32 -0.16,0.54 -0.09,0.71 0.02,0.07 0.06,0.14 0.07,0.18 -0.12,0.07 -0.09,0.05 -0.12,0.04l-0.15 0c-0.08,0 -0.05,0.01 -0.03,-0.1l-0.34 -0.04c0.18,-0.08 0.16,-0.05 0.36,-0.02 0.05,-0.08 0,-0.01 0.08,-0.05l0.2 -0.85 -0.17 0.09c-0.01,-0.05 0.06,-0.08 0,-0.18 -0.13,0.01 -0.26,0.01 -0.4,0.01 -0.04,0 -0.14,0 -0.18,0 -0.1,0.01 -0.08,0.01 -0.15,0.04l-0.02 0.07 0.09 0.3c-0.02,-0.02 -0.02,-0.01 -0.05,-0.07l-0.03 -0.06c-0.04,-0.08 -0.03,-0.07 -0.08,-0.16l-0.11 -0.05 0.01 -0.13c-0.1,-0.07 -0.05,0.13 -0.02,-0.03 0.01,-0.04 0,-0.03 0.05,-0.02l0.02 0c0.09,-0.21 0.11,-0.76 0.11,-1 -0.08,0.07 0.03,0.02 -0.07,0.04l-0.02 -0.13 0.04 -0.15c0.22,0 0.2,0 0.2,0.17l0.43 0.57c0.1,0.13 0.23,0.27 0.28,0.42l-0.25 -0.28c0,0 -0.01,-0.01 -0.01,-0.02l-0.19 -0.25c-0.01,-0.01 -0.03,-0.04 -0.04,-0.05 -0.14,-0.18 -0.12,-0.25 -0.29,-0.35l-0.03 0 -0.05 1.04c0.07,-0.01 0.05,-0.02 0.05,0.04l0.83 0.03 -0.02 -0.16c0.06,0.02 0.01,-0.07 0.11,0.09l-0.02 -0.01c0.07,-0.08 0.06,-0.09 0.05,-0.14 -0.03,-0.07 -0.02,-0.03 -0.02,-0.11 0,0 0.02,-0.01 0.02,-0.03 0,-0.02 0.02,-0.02 0.03,-0.04l0.18 0c0.03,0.05 0.03,0.03 0.04,0.11 0,0.01 -0.01,0.04 -0.01,0.03 0.01,0 -0.01,0.02 -0.01,0.04 -0.11,0.28 0.01,0.04 -0.14,0.09 0,0 -0.02,0.01 -0.03,0 0,-0.01 -0.02,0.01 -0.02,0.01l0.09 0.08c0,-0.01 0.01,0.01 0.02,0.01 0.1,-0.18 -0.08,0 0.07,-0.07 0,0 0.03,0.02 0.03,0 0.01,-0.01 0.03,0.02 0.04,0.02l-0.02 0.01 0.45 -0.61c0.01,-0.01 0.02,-0.02 0.02,-0.03 0.01,0 0.02,-0.01 0.02,-0.02 0.01,-0.01 0.02,-0.02 0.02,-0.02 0.14,-0.19 -0.07,0.1 0.04,-0.05 0.01,-0.01 0.03,-0.05 0.03,-0.06l0.06 -0.07c0.06,-0.07 0.04,-0.05 0.09,-0.09 -0.12,0.32 -0.58,0.77 -0.65,1.02l0.83 -0.03 0.05 -0.04 -0.05 -1.04 -0.02 0 -0.13 0.08c-0.01,-0.01 -0.02,0.01 -0.03,0.01l0.08 -0.29c-0.26,-0.06 -0.53,-0.19 -0.82,-0.3 0.02,0.09 0.03,0.07 -0.05,0.07l-0.18 0c-0.09,0 -0.07,0.01 -0.05,-0.07l-0.87 0.26c0.31,-0.04 0.6,-0.24 0.87,-0.3l0.02 -0.07c-0.02,-0.07 -0.03,-0.06 0.05,-0.04l0.13 0c0.09,-0.02 0.07,-0.03 0.05,0.04l0.02 0.07 1.02 0.34c0.06,-0.01 0.04,-0.02 0.04,0.04l0.01 0.1c0.01,0.24 0.3,0.58 0.36,0.85l-0.14 -0.19c-0.1,-0.2 -0.17,-0.41 -0.31,-0.57 0.03,0.21 0.01,0.74 0.11,1l0.02 0c0.13,-0.04 0.18,-0.1 0.26,-0.18 0.11,-0.08 0.03,-0.06 0.2,-0.04l0.03 0.15c-0.05,0.06 -0.01,0.01 -0.06,0.07 -0.12,0.14 -0.08,0.64 -0.09,0.85 -0.1,-0.17 -0.02,-0.47 -0.03,-0.84 0,-0.02 -0.01,-0.02 -0.01,-0.04 -0.16,0 -0.11,0.03 -0.26,0.08l0 0.13 -0.11 0.04c-0.05,0.06 -0.13,0.31 -0.15,0.36l0.03 0.08c0.11,0.12 0.03,0.05 0.21,0.14 0.04,0.02 0.07,0.04 0.11,0.06 0.11,0.05 -0.03,-0.01 0.08,0.04 0.15,-0.03 0.2,0.01 0.2,0.2l-0.15 0.01c-0.03,0.09 -0.03,0.09 -0.07,0.19l-0.07 -0.11c-0.01,0.01 -0.01,0.02 -0.02,0.02l-0.23 0.26c0.06,-0.2 0.16,-0.13 0.31,-0.44l-0.63 0.05c0.11,-0.06 0.43,-0.11 0.63,-0.1l-0.02 -0.02c-0.05,-0.05 -0.02,-0.03 -0.1,-0.07 -0.01,-0.01 -0.07,-0.04 -0.08,-0.05 -0.19,-0.08 -0.01,-0.05 -0.18,-0.04l-0.17 -0.01c-0.07,0.02 -0.06,0.03 -0.05,-0.04l0.04 -0.14 0.12 -0.03 0.12 -0.36 -0.02 -0.06c-0.12,-0.08 0.1,0 -0.11,-0.04 -0.06,-0.01 -0.02,-0.01 -0.08,-0.01 -0.03,-0.01 -0.15,0 -0.18,0 -0.16,0 -0.29,0 -0.45,-0.01 0.01,0.01 0.02,0.03 0.03,0.04l0.17 0.15c0.01,0.01 0.02,0.01 0.03,0.02l0.3 0.22c0.01,0.01 0.02,0.02 0.03,0.03l0.04 0.05c-0.21,-0.06 0.01,0.02 -0.11,-0.04l-0.57 -0.38 0.21 0.85c0.07,0.04 0.02,-0.02 0.07,0.05l0.33 -0.01c-0.04,0.02 -0.14,0.05 -0.32,0.05 -0.04,0.11 -0.03,0.12 -0.16,0.12 0,0 0.07,0.18 -0.07,-0.02l-0.06 -0.04 0.06 -0.13c0.09,-0.15 -0.01,-0.43 -0.07,-0.74l-0.03 0.08c0,0.01 -0.01,0.02 -0.01,0.03 -0.05,0.18 -0.1,0.57 -0.04,0.72l0.03 0.05c0.13,0.04 0.09,0.01 -0.01,0.04l0 0.03 -0.02 0.06 -0.06 0.03c0.01,0.24 0,0.11 0.07,0.19 0.04,-0.13 0.04,-0.18 0.17,-0.26l-0.09 0.18c-0.05,0.07 -0.06,0.07 -0.1,0.17l0.04 0.04 0.64 -0.01c-0.07,-0.15 0.02,0.02 -0.1,-0.12l-0.16 -0.2c0,-0.01 -0.01,-0.02 -0.02,-0.03l0.01 -0.05c0.01,0.01 0.02,0.02 0.03,0.03l0.14 0.17c0.11,0.12 0.1,0.06 0.21,0.2l0.01 0.01c0.09,-0.08 0.04,-0.06 0.1,-0.12 0.11,-0.11 0,-0.05 0.13,-0.09 -0.09,0.14 -0.1,0.07 -0.14,0.25l0.01 0.12c0.01,0.08 0.03,0.06 -0.05,0.06l0 0.35c0.15,-0.25 0.25,-0.6 0.4,-0.79 -0.03,0.17 -0.07,0.21 -0.13,0.35l-0.23 0.52zm1.25 -1.9c-0.14,-0.13 -0.13,-0.07 -0.34,-0.1l0.07 -0.15c0.02,-0.37 0.13,-0.57 0.06,-1 -0.05,-0.29 -0.23,-0.61 -0.36,-0.77 -0.48,-0.56 -2.27,-1.06 -3.35,0.09 -0.52,0.56 -0.3,1.11 -0.21,1.81 -0.09,0.04 -0.22,0.06 -0.29,0.1 -0.07,0.26 0.02,0.61 0.11,0.84 0.28,0.7 0.38,0.39 0.46,0.58 0.01,0.16 0,0.31 0.05,0.47 0.02,0.05 0.43,0.68 0.05,1.28 -0.41,0.64 -3.56,1.08 -3.92,2.7l10.89 0.01c-0.11,-0.53 -0.61,-1.01 -0.95,-1.22l-1.52 -0.72c-0.93,-0.42 -1.83,-0.63 -1.58,-1.68 0.04,-0.16 0.13,-0.21 0.18,-0.38 0.05,-0.16 0.05,-0.35 0.06,-0.51 0.2,-0.09 0.16,0 0.28,-0.18 0.23,-0.35 0.29,-0.76 0.31,-1.17z"/>
   <path class="fil0" d="M6.21 5.15l0 -0.11 0.07 -0.04c0.05,-0.13 0.05,-0.31 -0.01,-0.43l-0.07 -0.03c-0.22,0.09 -0.21,0.16 -0.44,0.2l0.09 -0.08c0,0 0.1,-0.06 0.12,-0.07 0.11,-0.06 0.16,-0.08 0.23,-0.12l-0.02 -0.05 -0.61 -0.03c-0.06,0.15 0.04,0.1 -0.17,0.12 -0.08,-0.07 -0.03,-0.01 -0.07,-0.12l-0.62 0.03 -0.02 0.05 0.66 0.34 0.07 -0.02 0.06 0 0.06 0.02 0.22 -0.07 -0.21 0.25 -0.01 0.02c-0.09,0.16 -0.07,0.28 -0.01,0.45l0.01 -0.03c0,-0.01 0.01,-0.02 0.01,-0.02 0,-0.01 0,-0.02 0,-0.03 0.05,-0.15 0.07,-0.11 0.18,-0.24l0.52 -0.59c0,0.01 -0.01,0.02 -0.01,0.03l-0.55 0.69c-0.01,0 -0.02,0.01 -0.02,0.02 -0.09,0.11 -0.04,0.02 -0.08,0.15l0.62 -0.29zm-0.85 -0.14l-0.02 -0.02c0,-0.01 -0.01,-0.04 -0.02,-0.04 -0.07,0.14 0.04,-0.02 -0.1,-0.13l-0.53 -0.29c0.05,0.17 0.07,0.13 0.18,0.25 0.01,0.01 0.02,0.02 0.02,0.02l0.4 0.48c0.03,0.04 0.01,-0.02 0.05,0.07 0,0.01 0,0.02 0,0.03 0,0.01 0,0.02 0.01,0.03 0.06,0.25 -0.14,-0.21 0.01,0.06 0.06,-0.18 0.08,-0.3 0,-0.46zm-0.73 -0.44l-0.01 0c-0.04,0.08 -0.04,0.09 -0.05,0.21 0,0.19 -0.01,0.1 0.05,0.21 0.09,0.09 0.06,0 0.07,0.16l0.62 0.29c-0.06,-0.18 -0.05,-0.06 -0.22,-0.32l-0.14 -0.16c-0.01,-0.01 -0.01,-0.02 -0.02,-0.02l-0.18 -0.21c-0.01,-0.01 -0.02,-0.02 -0.02,-0.02l-0.1 -0.14z"/>
   <path class="fil1" d="M5.36 3.83l0.18 0c-0.06,-0.15 -0.01,-0.54 0.04,-0.72 0,-0.01 0.01,-0.02 0.01,-0.03l0.03 -0.08c0.06,0.31 0.16,0.59 0.07,0.74l-0.06 0.13 0.06 0.04c0.14,0.2 0.07,0.02 0.07,0.02l-0.07 -0.02 0 -0.17c0.11,-0.05 -0.01,-0.03 0.15,-0.02l-0.21 -0.85 0.57 0.38c0.12,0.06 -0.1,-0.02 0.11,0.04l-0.04 -0.05c-0.01,-0.01 -0.02,-0.02 -0.03,-0.03l-0.3 -0.22c-0.01,-0.01 -0.02,-0.01 -0.03,-0.02l-0.17 -0.15c-0.01,-0.01 -0.02,-0.03 -0.03,-0.04 0.16,0.01 0.29,0.01 0.45,0.01 0.03,0 0.15,-0.01 0.18,0 0.06,0 0.02,0 0.08,0.01 0.21,0.04 -0.01,-0.04 0.11,0.04l0.02 0.06 -0.12 0.36 0.04 0c0.02,-0.05 0.1,-0.3 0.15,-0.36l-0.07 0 -0.02 -0.06 -0.02 -0.11 0.05 -0.04 0.11 -0.01c-0.1,-0.26 -0.08,-0.79 -0.11,-1 0.14,0.16 0.21,0.37 0.31,0.57l0.14 0.19c-0.06,-0.27 -0.35,-0.61 -0.36,-0.85 -0.15,0.12 -0.03,0.04 -0.14,0.06l0.05 1.04 -0.05 0.04 -0.83 0.03c0.07,-0.25 0.53,-0.7 0.65,-1.02 -0.05,0.04 -0.03,0.02 -0.09,0.09l-0.06 0.07c0,0.01 -0.02,0.05 -0.03,0.06 -0.11,0.15 0.1,-0.14 -0.04,0.05 0,0 -0.01,0.01 -0.02,0.02 0,0.01 -0.01,0.02 -0.02,0.02 0,0.01 -0.01,0.02 -0.02,0.03l-0.45 0.61c0.02,0.01 0.07,0.05 0.08,0.07 0,0.08 0,0.05 -0.05,0.11 -0.14,0.08 -0.06,0.02 -0.1,0l-0.05 -0.14c0.06,-0.09 -0.01,-0.03 0.14,-0.05 -0.01,0 -0.03,-0.03 -0.04,-0.02 0,0.02 -0.03,0 -0.03,0 -0.15,0.07 0.03,-0.11 -0.07,0.07 -0.01,0 -0.02,-0.02 -0.02,-0.01l-0.09 -0.08c0,0 0.02,-0.02 0.02,-0.01 0.01,0.01 0.03,0 0.03,0 0.15,-0.05 0.03,0.19 0.14,-0.09 0,-0.02 0.02,-0.04 0.01,-0.04 0,0.01 0.01,-0.02 0.01,-0.03 -0.01,-0.08 -0.01,-0.06 -0.04,-0.11l0.02 0.18 -0.23 0 0.03 -0.18c-0.01,0.02 -0.03,0.02 -0.03,0.04 0,0.02 -0.02,0.03 -0.02,0.03 0,0.08 -0.01,0.04 0.02,0.11 0.01,0.05 0.02,0.06 -0.05,0.14 0.12,0.03 0.08,-0.05 0.13,0.05 -0.03,0.17 -0.01,0.19 -0.15,0.14 -0.05,-0.05 -0.04,-0.03 -0.05,-0.11 0.02,-0.03 0.05,-0.05 0.09,-0.07 -0.1,-0.16 -0.05,-0.07 -0.11,-0.09l0.02 0.16 -0.83 -0.03c0,-0.06 0.02,-0.05 -0.05,-0.04l0.05 -1.04 -0.05 0.03 -0.09 -0.09 0.02 0.13c0.1,-0.02 -0.01,0.03 0.07,-0.04 0,0.24 -0.02,0.79 -0.11,1l0.11 0.01 0.05 0.04 -0.02 0.1 -0.02 0.07 -0.07 0.01c0.05,0.09 0.04,0.08 0.08,0.16l0.03 0.06c0.03,0.06 0.03,0.05 0.05,0.07l-0.09 -0.3 0.02 -0.07c0.07,-0.03 0.05,-0.03 0.15,-0.04 0.04,0 0.14,0 0.18,0 0.14,0 0.27,0 0.4,-0.01 0.06,0.1 -0.01,0.13 0,0.18l0.17 -0.09 -0.2 0.85c0.1,0 0.06,-0.01 0.14,0.02 -0.02,0.26 0.02,0.09 -0.06,0.19 0.03,0.01 0,0.03 0.12,-0.04 -0.01,-0.04 -0.05,-0.11 -0.07,-0.18 -0.07,-0.17 0.02,-0.39 0.09,-0.71 0.08,0.18 0.15,0.62 0.08,0.83zm-0.03 0.09l0 -0.04c-0.13,0.05 -0.09,0.02 0,0.04zm0.04 0.4l-0.05 0.04 -0.64 -0.02 0.08 -0.09c0.03,-0.03 0.05,-0.05 0.08,-0.1l0.16 -0.21c0,-0.01 0.01,-0.02 0.02,-0.03l-0.44 0.44c0.01,0.01 0.03,0 0.04,0.02 0.01,0.02 0.03,0.01 0.04,0.02 0.01,0 0.04,0.02 0.05,0.03l0.62 -0.03 -0.01 -0.03c0.06,0.02 0.04,0.02 0.05,-0.04l0.07 -0.04 0.09 0.04c0,0.06 -0.02,0.06 0.04,0.04l0 0.03 0.61 0.03c0.08,-0.05 0.06,-0.03 0.14,-0.07 -0.11,-0.14 -0.1,-0.08 -0.21,-0.2l-0.14 -0.17c-0.01,-0.01 -0.02,-0.02 -0.03,-0.03l-0.01 0.05c0.01,0.01 0.02,0.02 0.02,0.03l0.16 0.2c0.12,0.14 0.03,-0.03 0.1,0.12l-0.64 0.01 -0.04 -0.04c0.04,-0.1 0.05,-0.1 0.1,-0.17l0.09 -0.18c-0.13,0.08 -0.13,0.13 -0.17,0.26 -0.07,-0.08 -0.06,0.05 -0.07,-0.19l0.06 -0.03 0.02 -0.06 -0.02 0.06 -0.06 0.03 -0.06 0 -0.06 -0.03 -0.03 -0.06 0.03 0.06 0.06 0.03 0 0.18 -0.17 -0.19c-0.01,-0.01 -0.02,-0.02 -0.02,-0.03l-0.06 -0.03c0.06,0.17 0.11,0.15 0.2,0.35zm-0.85 -1.08l0.08 0.06 0.23 -0.23c-0.01,0.01 -0.02,0.02 -0.03,0.02 -0.18,0.14 -0.1,0.14 -0.28,0.15zm-0.06 0.02l-0.04 0 0.04 0zm-0.57 -0.8c-0.04,0.04 -0.03,0.01 0.03,0.04 0.04,-0.16 0.11,-0.28 0.18,-0.43 0.09,-0.17 0.17,-0.23 0.12,-0.37 -0.09,0.2 -0.32,0.58 -0.33,0.76zm0.59 -0.85l-0.07 0.04c0.17,0.1 0.15,0.17 0.29,0.35 0.01,0.01 0.03,0.04 0.04,0.05l0.19 0.25c0,0.01 0.01,0.02 0.01,0.02l0.25 0.28c-0.05,-0.15 -0.18,-0.29 -0.28,-0.42l-0.43 -0.57zm2.01 0.04c-0.08,-0.1 -0.07,-0.03 -0.05,-0.19l0.16 -0.01 0.04 0.04c0,-0.06 0.02,-0.05 -0.04,-0.04l-1.02 -0.34 -0.02 -0.07c0.02,-0.07 0.04,-0.06 -0.05,-0.04l0.05 0.04 0.02 0.07 0.01 0.04 -0.05 0.07c0.08,0 0.07,0.02 0.05,-0.07 0.29,0.11 0.56,0.24 0.82,0.3l-0.08 0.29c0.01,0 0.02,-0.02 0.03,-0.01l0.13 -0.08zm-0.93 2.27c0.1,-0.03 0.14,0 0.01,-0.04l-0.01 0.04zm-0.07 -0.48c0.03,0.24 0.02,0.06 -0.04,0.13 -0.07,-0.07 -0.03,0.03 -0.05,-0.13 0.02,-0.41 -0.14,-0.4 0.05,-0.6 0.09,0.1 0.09,0.08 0.07,0.26 -0.02,0.13 -0.04,0.2 -0.03,0.34z"/>
   <path class="fil2" d="M7.52 0.08c0.07,0.06 -0.01,0.03 0.1,0.05l1.18 0.02c0.11,0.5 -0.11,1.15 0.1,1.25 0.14,-0.08 0.07,-1.18 0.06,-1.38l-1.3 -0.02c-0.26,0.04 -0.04,0 -0.14,0.08z"/>
   <path class="fil1" d="M5.54 5.01l-0.18 0c0.08,0.16 0.06,0.28 0,0.46 -0.15,-0.27 0.05,0.19 -0.01,-0.06 -0.01,-0.01 -0.01,-0.02 -0.01,-0.03 0,-0.01 0,-0.02 0,-0.03 -0.04,-0.09 -0.02,-0.03 -0.05,-0.07l-0.4 -0.48c0,0 -0.01,-0.01 -0.02,-0.02 -0.11,-0.12 -0.13,-0.08 -0.18,-0.25l0.53 0.29c0.14,0.11 0.03,0.27 0.1,0.13 0.01,0 0.02,0.03 0.02,0.04l0.01 -0.18 0.07 -0.02 -0.07 0.02 -0.66 -0.34c-0.04,0.07 0,0.03 -0.06,0.1l0.1 0.14c0,0 0.01,0.01 0.02,0.02l0.18 0.21c0.01,0 0.01,0.01 0.02,0.02l0.14 0.16c0.17,0.26 0.16,0.14 0.22,0.32l-0.62 -0.29c-0.07,0 -0.06,-0.02 -0.06,0.05l0.66 0.35c0,0.01 0.01,0.03 0.01,0.04 0.01,0.01 0.02,0.04 0.02,0.03 0,0 0.01,0.02 0.01,0.04 -0.02,0.07 -0.03,0.05 0.05,0.04l-0.05 -0.04c0.03,-0.22 -0.02,-0.14 0.12,-0.21 0.13,0.07 0.08,-0.01 0.11,0.2l-0.05 0.05c0.09,0.02 0.07,0.03 0.05,-0.05 0.1,-0.25 -0.03,-0.12 0.7,-0.45 0,-0.07 0.02,-0.05 -0.05,-0.05l-0.62 0.29c0.04,-0.13 -0.01,-0.04 0.08,-0.15 0,-0.01 0.01,-0.02 0.02,-0.02l0.55 -0.69c0,-0.01 0.01,-0.02 0.01,-0.03l-0.52 0.59c-0.11,0.13 -0.13,0.09 -0.18,0.24 0,0.01 0,0.02 0,0.03 0,0 -0.01,0.01 -0.01,0.02l-0.01 0.03c-0.06,-0.17 -0.08,-0.29 0.01,-0.45z"/>
   <path class="fil2" d="M7.53 6.13c0,0.09 0,0.05 0.04,0.1l1.36 0 0.03 -1.38c-0.12,0.03 -0.07,0 -0.13,0.06l-0.02 1.21 -1.28 0.01z"/>
   <path class="fil2" d="M1.96 6.24l1.36 -0.02 0.03 -0.1c-0.35,0.01 -0.96,0.05 -1.27,-0.02l-0.02 -1.19c-0.05,-0.05 -0.01,-0.03 -0.13,-0.06l0.03 1.39z"/>
   <path class="fil2" d="M2.08 0.18c0.07,-0.08 -0.17,-0.06 0.14,-0.06l1.13 -0.01 -0.03 -0.1 -1.35 -0.01c-0.04,0.22 -0.02,0.46 -0.02,0.68 0,0.12 0,0.23 0,0.34 0,0.16 -0.03,0.24 0.04,0.37 0.05,-0.06 0.04,0 0.07,-0.11 0.03,-0.15 -0.04,-0.89 0.02,-1.1z"/>
   <path class="fil1" d="M4.48 5.01l0.14 -0.02c-0.06,-0.11 -0.05,-0.02 -0.05,-0.21 0.01,-0.12 0.01,-0.13 0.05,-0.21l-0.11 0 -0.04 -0.05 0 -0.11 0.1 -0.06c-0.1,-0.07 -0.05,-0.03 -0.13,-0.13l-0.1 -0.13c0,0 -0.01,-0.01 -0.02,-0.02l-0.17 -0.17c-0.08,-0.1 -0.07,-0.05 -0.13,-0.2 0.21,0.03 0.44,0.08 0.63,0.06 -0.1,-0.06 -0.43,-0.11 -0.63,-0.1l-0.07 0.13c0.08,0.26 0.11,0.09 0.11,0.09 0.12,0.1 0.07,0.09 0.17,0.2l0.04 0.04c0.15,0.14 0.16,0.09 0.2,0.29l0 0.11c-0.02,0.07 -0.03,0.06 0.04,0.05l0.01 0.36c-0.04,-0.06 -0.03,-0.05 -0.07,-0.12l-0.38 -0.9c-0.05,0.11 -0.05,0.01 -0.03,0.14l0.44 0.96zm0.48 -1.18c-0.02,0.11 -0.05,0.1 0.03,0.1l-0.03 -0.1 0.02 -0.06c-0.2,-0.03 -0.18,-0.06 -0.36,0.02l0.34 0.04z"/>
   <path class="fil3" d="M7.53 6.13l1.28 -0.01 0.02 -1.21c0.06,-0.06 0.01,-0.03 0.13,-0.06l-0.03 1.38c0.06,-0.07 0.05,0.1 0.06,-0.12 0,-0.35 0.07,-1 -0.03,-1.26l-0.17 -0.02 -0.01 1.24c-0.21,0.01 -0.42,0 -0.63,0 -0.28,0 -0.55,-0.05 -0.62,0.06z"/>
   <path class="fil3" d="M2.08 0.18c0.22,-0.03 0.45,-0.02 0.67,-0.02l0.49 0c0.11,-0.01 0.06,0 0.11,-0.05 0.11,-0.05 0.07,-0.06 -0.03,-0.1l0.03 0.1 -1.13 0.01c-0.31,0 -0.07,-0.02 -0.14,0.06 -0.06,0.21 0.01,0.95 -0.02,1.1 -0.03,0.11 -0.02,0.05 -0.07,0.11 -0.07,-0.13 -0.04,-0.21 -0.04,-0.37 0,-0.11 0,-0.22 0,-0.34 0,-0.22 -0.02,-0.46 0.02,-0.68 -0.07,0.04 -0.07,-0.09 -0.07,0.34l0 0.77c0,0.2 -0.05,0.22 0.09,0.32 0.14,-0.08 0.11,-0.02 0.12,-0.23l-0.03 -1.02z"/>
   <path class="fil3" d="M1.96 6.24l-0.03 -1.39c0.12,0.03 0.08,0.01 0.13,0.06l0.02 1.19c0.31,0.07 0.92,0.03 1.27,0.02l-0.03 0.1c0.09,-0.03 0.14,-0.05 0.03,-0.1 -0.06,-0.07 -0.09,-0.05 -0.29,-0.05l-0.95 0 -0.03 -1.25 -0.15 0.03c-0.04,0.1 -0.03,0.04 -0.03,0.18l0 0.9c0,0.36 0,0.26 0.06,0.31z"/>
   <path class="fil1" d="M6.95 3.79l-0.08 -0.08 0 -0.05c-0.2,-0.01 -0.52,0.04 -0.63,0.1l0.63 -0.05c-0.15,0.31 -0.25,0.24 -0.31,0.44l0.23 -0.26c0.01,0 0.01,-0.01 0.02,-0.02l0.07 0.11c0.04,-0.1 0.04,-0.1 0.07,-0.19zm-0.62 0.57l0.09 0.04 0.01 0.12 -0.05 0.06 -0.11 -0.01c0.06,0.12 0.06,0.3 0.01,0.43l0.14 0.01 0.23 -0.52c0.06,-0.14 0.1,-0.18 0.13,-0.35 -0.15,0.19 -0.25,0.54 -0.4,0.79l0 -0.35c0.08,0 0.06,0.02 0.05,-0.06l-0.01 -0.12c0.04,-0.18 0.05,-0.11 0.14,-0.25 -0.13,0.04 -0.02,-0.02 -0.13,0.09 -0.06,0.06 -0.01,0.04 -0.1,0.12zm-0.42 -0.59l0.01 0.04c0.18,0 0.28,-0.03 0.32,-0.05l-0.33 0.01z"/>
   <path class="fil1" d="M3.72 2.61l0.06 0.07c0.02,0.03 0.03,0.03 0.05,0.09l0.01 0.82 0.13 -0.01c-0.09,-0.17 -0.06,-0.42 -0.08,-0.68l0.02 -0.25 0.22 0.05 -0.19 -0.19c-0.03,0.2 -0.1,0.17 -0.22,0.1zm0.45 0.12l0.03 -0.05c-0.05,-0.01 -0.04,-0.02 -0.05,0.02 -0.03,0.16 -0.08,-0.04 0.02,0.03z"/>
   <path class="fil0" d="M5.4 3.44l0.09 0c-0.01,-0.14 0.01,-0.21 0.03,-0.34 0.02,-0.18 0.02,-0.16 -0.07,-0.26 -0.19,0.2 -0.03,0.19 -0.05,0.6z"/>
   <path class="fil1" d="M6.69 2.68l0.04 0.05c0.15,-0.05 0.1,-0.08 0.26,-0.08 0,0.02 0.01,0.02 0.01,0.04 0.01,0.37 -0.07,0.67 0.03,0.84 0.01,-0.21 -0.03,-0.71 0.09,-0.85 0.05,-0.06 0.01,-0.01 0.06,-0.07 -0.11,0.07 -0.21,0.09 -0.23,-0.11 -0.08,0.08 -0.13,0.14 -0.26,0.18z"/>
   <polygon class="fil4" points="5.33,1.04 5.31,1.11 5.31,1.15 5.36,1.22 5.54,1.22 5.59,1.15 5.58,1.11 5.56,1.04 5.51,1 5.38,1 "/>
   <path class="fil1" d="M6.2 4.54l0 -0.07c-0.07,0.04 -0.12,0.06 -0.23,0.12 -0.02,0.01 -0.12,0.07 -0.12,0.07l-0.09 0.08c0.23,-0.04 0.22,-0.11 0.44,-0.2zm-0.66 0.27l-0.06 -0.02 0.06 0.02 0.01 0.18 0.21 -0.25 -0.22 0.07z"/>
   <path class="fil4" d="M5.33 5.66l0.05 0.04 0.13 0 0.05 -0.05c-0.03,-0.21 0.02,-0.13 -0.11,-0.2 -0.14,0.07 -0.09,-0.01 -0.12,0.21z"/>
   <path class="fil4" d="M4.24 1.59l0.09 0.09 0.05 -0.03 0.03 0 0.07 -0.04c0,-0.17 0.02,-0.17 -0.2,-0.17l-0.04 0.15z"/>
   <path class="fil4" d="M5.69 3.74l0 0.17 0.07 0.02c0.13,0 0.12,-0.01 0.16,-0.12l-0.01 -0.04c-0.05,-0.07 0,-0.01 -0.07,-0.05 -0.16,-0.01 -0.04,-0.03 -0.15,0.02z"/>
   <polygon class="fil4" points="5.33,3.88 5.33,3.92 5.33,3.95 5.36,4.01 5.42,4.04 5.48,4.04 5.54,4.01 5.56,3.95 5.56,3.92 5.57,3.88 5.54,3.83 5.36,3.83 "/>
   <path class="fil4" d="M4.98 3.77l-0.02 0.06 0.03 0.1 0.15 0c0.08,-0.1 0.04,0.07 0.06,-0.19 -0.08,-0.03 -0.04,-0.02 -0.14,-0.02 -0.08,0.04 -0.03,-0.03 -0.08,0.05z"/>
   <path class="fil4" d="M6.18 4.42l0.02 0.05 0 0.07 0.07 0.03 0.11 0.01 0.05 -0.06 -0.01 -0.12 -0.09 -0.04 -0.01 -0.01c-0.08,0.04 -0.06,0.02 -0.14,0.07z"/>
   <polygon class="fil4" points="6.27,3.43 6.32,3.47 6.49,3.48 6.5,3.34 6.47,3.26 6.43,3.26 6.31,3.29 "/>
   <polygon class="fil4" points="5.35,4.81 5.34,4.99 5.36,5.01 5.54,5.01 5.55,4.99 5.54,4.81 5.48,4.79 5.42,4.79 "/>
   <polygon class="fil4" points="4.17,2.73 4.16,2.86 4.27,2.91 4.34,2.9 4.36,2.83 4.38,2.73 4.33,2.69 4.22,2.68 4.2,2.68 "/>
   <path class="fil4" d="M6.9 3.58c0,0.08 0.03,0.06 -0.05,0.06l0.02 0.02 0 0.05 0.08 0.08 0.15 -0.01c0,-0.19 -0.05,-0.23 -0.2,-0.2z"/>
   <polygon class="fil4" points="4.39,3.34 4.4,3.48 4.62,3.43 4.6,3.3 4.52,3.24 4.46,3.26 4.42,3.26 "/>
   <path class="fil4" d="M4.47 4.41l0 0.11 0.04 0.05 0.11 0 0.01 0c0.06,-0.07 0.02,-0.03 0.06,-0.1l0.02 -0.05c-0.01,-0.01 -0.04,-0.03 -0.05,-0.03 -0.01,-0.01 -0.03,0 -0.04,-0.02 -0.01,-0.02 -0.03,-0.01 -0.04,-0.02l-0.01 0 -0.1 0.06z"/>
   <polygon class="fil4" points="6.51,2.73 6.53,2.84 6.55,2.9 6.62,2.9 6.73,2.86 6.73,2.73 6.69,2.68 6.67,2.68 6.56,2.69 "/>
   <path class="fil4" d="M5.37 4.32c-0.01,0.06 0.01,0.06 -0.05,0.04l0.01 0.03c0.04,0.11 -0.01,0.05 0.07,0.12 0.21,-0.02 0.11,0.03 0.17,-0.12l0 -0.03c-0.06,0.02 -0.04,0.02 -0.04,-0.04l-0.09 -0.04 -0.07 0.04z"/>
   <path class="fil4" d="M6.49 1.65l0.02 0c0.11,-0.02 -0.01,0.06 0.14,-0.06l-0.01 -0.1 -0.04 -0.04 -0.16 0.01c-0.02,0.16 -0.03,0.09 0.05,0.19z"/>
   <path class="fil4" d="M6.95 2.5c0.02,0.2 0.12,0.18 0.23,0.11l-0.03 -0.15c-0.17,-0.02 -0.09,-0.04 -0.2,0.04z"/>
   <path class="fil4" d="M3.95 3.79l0.07 -0.13 0.03 -0.02c-0.08,0 -0.06,0.02 -0.06,-0.06l-0.02 0 -0.13 0.01 -0.06 0.18 0.17 0.02z"/>
   <path class="fil4" d="M4.63 5.2c0,-0.07 -0.01,-0.05 0.06,-0.05 -0.01,-0.16 0.02,-0.07 -0.07,-0.16l-0.14 0.02 0.01 0.14c0,0 0.01,0.02 0.01,0.05l0.13 0z"/>
   <path class="fil4" d="M6.21 5.15c0.07,0 0.05,-0.02 0.05,0.05l0.13 -0.02c0.02,-0.03 0.02,0 0.04,-0.09 0,-0.01 -0.01,-0.07 -0.01,-0.08l-0.14 -0.01 -0.07 0.04 0 0.11z"/>
   <polygon class="fil4" points="5.33,2.54 5.56,2.54 5.54,2.36 5.36,2.36 "/>
   <path class="fil1" d="M3.99 3.58c0,0.08 -0.02,0.06 0.06,0.06 0.2,-0.22 0.42,-0.14 0.42,-0.14 0.08,0 0.07,0.02 0.15,-0.07l-0.22 0.05 -0.01 -0.14c-0.1,0.11 0,0.04 -0.17,0.13 -0.04,0.02 -0.08,0.04 -0.12,0.06 -0.09,0.04 -0.03,0.02 -0.11,0.05z"/>
   <path class="fil4" d="M5.21 2.76c0.01,0.08 0,0.06 0.05,0.11 0.14,0.05 0.12,0.03 0.15,-0.14 -0.05,-0.1 -0.01,-0.02 -0.13,-0.05l0.02 0.01c-0.04,0.02 -0.07,0.04 -0.09,0.07z"/>
   <path class="fil4" d="M3.72 2.61c0.12,0.07 0.19,0.1 0.22,-0.1l-0.02 -0.01c-0.06,-0.03 -0.07,0 -0.03,-0.04 -0.14,0.01 -0.08,-0.02 -0.09,0.04 -0.1,0.05 -0.03,-0.04 -0.08,0.11z"/>
   <path class="fil4" d="M5.48 2.73l0.05 0.14c0.04,0.02 -0.04,0.08 0.1,0 0.05,-0.06 0.05,-0.03 0.05,-0.11 -0.01,-0.02 -0.06,-0.06 -0.08,-0.07l0.02 -0.01c-0.15,0.02 -0.08,-0.04 -0.14,0.05z"/>
   <path class="fil1" d="M6.49 3.48l-0.17 -0.01 -0.05 -0.04c-0.01,0.07 -0.02,0.06 0.05,0.04l0.17 0.01c0.17,-0.01 -0.01,-0.04 0.18,0.04 0.01,0.01 0.07,0.04 0.08,0.05 0.08,0.04 0.05,0.02 0.1,0.07 0.08,0 0.05,0.02 0.05,-0.06 -0.11,-0.05 0.03,0.01 -0.08,-0.04 -0.04,-0.02 -0.07,-0.04 -0.11,-0.06 -0.18,-0.09 -0.1,-0.02 -0.21,-0.14l-0.01 0.14z"/>
   <path class="fil1" d="M5.31 1.11c-0.27,0.06 -0.56,0.26 -0.87,0.3l0.87 -0.26c-0.02,0.08 -0.04,0.07 0.05,0.07l-0.05 -0.07 0 -0.04 0.02 -0.07 0.05 -0.04c-0.08,-0.02 -0.07,-0.03 -0.05,0.04l-0.02 0.07z"/>
   <path class="fil5" d="M7.67 3.11l-0.03 -0.1 -0.26 -0.02 0.02 -0.13 -0.07 0.15c0.21,0.03 0.2,-0.03 0.34,0.1z"/>
   <path class="fil6" d="M5.49 3.44l-0.09 0c0.02,0.16 -0.02,0.06 0.05,0.13 0.06,-0.07 0.07,0.11 0.04,-0.13z"/>
  </g>
 </g>
</svg>
